<mxfile host="Electron" modified="2023-06-05T14:42:51.101Z" agent="Mozilla/5.0 (Macintosh; Intel Mac OS X 10_15_7) AppleWebKit/537.36 (KHTML, like Gecko) draw.io/21.2.8 Chrome/112.0.5615.165 Electron/24.2.0 Safari/537.36" etag="ApENPnf1NsS9ZqVfRbRR" version="21.2.8" type="device">
  <diagram name="Page-1" id="WDHbdkS6yU1Mqy_MnB93">
    <mxGraphModel dx="1026" dy="683" grid="0" gridSize="10" guides="1" tooltips="1" connect="1" arrows="1" fold="1" page="1" pageScale="1" pageWidth="1654" pageHeight="1169" math="0" shadow="0">
      <root>
        <mxCell id="0" />
        <mxCell id="1" parent="0" />
        <mxCell id="rmZsoPK5EU8ZM_AE0ZiV-1" value="&lt;font size=&quot;1&quot; style=&quot;&quot; color=&quot;#ffffff&quot;&gt;&lt;b style=&quot;font-size: 18px;&quot;&gt;ExampleGen&lt;/b&gt;&lt;/font&gt;" style="rounded=0;whiteSpace=wrap;html=1;fillColor=#f0a30a;strokeColor=#BD7000;fontColor=#000000;" parent="1" vertex="1">
          <mxGeometry x="724" y="515" width="152" height="50" as="geometry" />
        </mxCell>
        <mxCell id="rmZsoPK5EU8ZM_AE0ZiV-44" value="" style="edgeStyle=orthogonalEdgeStyle;rounded=0;orthogonalLoop=1;jettySize=auto;html=1;" parent="1" source="rmZsoPK5EU8ZM_AE0ZiV-2" target="rmZsoPK5EU8ZM_AE0ZiV-3" edge="1">
          <mxGeometry relative="1" as="geometry" />
        </mxCell>
        <mxCell id="rmZsoPK5EU8ZM_AE0ZiV-2" value="&lt;font size=&quot;1&quot; color=&quot;#ffffff&quot;&gt;&lt;b style=&quot;font-size: 18px;&quot;&gt;StatisticsGen&lt;/b&gt;&lt;/font&gt;" style="rounded=0;whiteSpace=wrap;html=1;fillColor=#f0a30a;strokeColor=#BD7000;fontColor=#000000;" parent="1" vertex="1">
          <mxGeometry x="921" y="515" width="143" height="50" as="geometry" />
        </mxCell>
        <mxCell id="rmZsoPK5EU8ZM_AE0ZiV-3" value="&lt;font size=&quot;1&quot; style=&quot;&quot; color=&quot;#ffffff&quot;&gt;&lt;b style=&quot;font-size: 16px;&quot;&gt;SchemaGen / Importer&lt;/b&gt;&lt;/font&gt;" style="rounded=0;whiteSpace=wrap;html=1;fillColor=#f0a30a;strokeColor=#BD7000;fontColor=#000000;" parent="1" vertex="1">
          <mxGeometry x="1113.5" y="512" width="146.5" height="53" as="geometry" />
        </mxCell>
        <mxCell id="rmZsoPK5EU8ZM_AE0ZiV-4" value="&lt;font size=&quot;1&quot; color=&quot;#ffffff&quot;&gt;&lt;b style=&quot;font-size: 20px;&quot;&gt;Transform&lt;/b&gt;&lt;/font&gt;" style="rounded=0;whiteSpace=wrap;html=1;fillColor=#f0a30a;strokeColor=#BD7000;fontColor=#000000;" parent="1" vertex="1">
          <mxGeometry x="724" y="610" width="148" height="45" as="geometry" />
        </mxCell>
        <mxCell id="rmZsoPK5EU8ZM_AE0ZiV-45" value="" style="edgeStyle=orthogonalEdgeStyle;rounded=0;orthogonalLoop=1;jettySize=auto;html=1;" parent="1" source="rmZsoPK5EU8ZM_AE0ZiV-5" target="rmZsoPK5EU8ZM_AE0ZiV-8" edge="1">
          <mxGeometry relative="1" as="geometry" />
        </mxCell>
        <mxCell id="rmZsoPK5EU8ZM_AE0ZiV-5" value="&lt;font size=&quot;1&quot; color=&quot;#ffffff&quot;&gt;&lt;b style=&quot;font-size: 20px;&quot;&gt;Trainer&lt;/b&gt;&lt;/font&gt;" style="rounded=0;whiteSpace=wrap;html=1;fillColor=#f0a30a;strokeColor=#BD7000;fontColor=#000000;" parent="1" vertex="1">
          <mxGeometry x="921" y="610" width="143" height="46" as="geometry" />
        </mxCell>
        <mxCell id="rmZsoPK5EU8ZM_AE0ZiV-6" value="&lt;font style=&quot;font-size: 20px;&quot;&gt;Metadata Store&lt;/font&gt;" style="shape=cylinder3;whiteSpace=wrap;html=1;boundedLbl=1;backgroundOutline=1;size=15;points=[[0,0,0,0,15],[0,0,0,0,27.5],[0,0,0,0,52.5],[0,0.5,0,0,0],[0,1,0,0,-15],[0.06,0,0,0,0],[0.12,0,0,0,0],[0.145,0,0,0,4.35],[0.145,1,0,0,-4.35],[0.18,0,0,0,0],[0.24,0,0,0,0],[0.29,0,0,0,0],[0.35,0,0,0,0],[0.41,0,0,0,0],[0.47,0,0,0,0],[0.5,0,0,0,0],[0.5,1,0,0,0],[0.53,0,0,0,0],[0.59,0,0,0,0],[0.65,0,0,0,0],[0.71,0,0,0,0],[0.76,0,0,0,0],[0.82,0,0,0,0],[0.855,0,0,0,4.35],[0.855,1,0,0,-4.35],[0.88,0,0,0,0],[0.94,0,0,0,0],[1,0,0,0,15],[1,0,0,0,27.5],[1,0,0,0,52.5],[1,0.5,0,0,0],[1,1,0,0,-15]];fillColor=#f5f5f5;strokeColor=#666666;fontColor=#333333;" parent="1" vertex="1">
          <mxGeometry x="746" y="678" width="692" height="80" as="geometry" />
        </mxCell>
        <mxCell id="rmZsoPK5EU8ZM_AE0ZiV-30" style="edgeStyle=orthogonalEdgeStyle;rounded=0;orthogonalLoop=1;jettySize=auto;html=1;exitX=1;exitY=0.5;exitDx=0;exitDy=0;entryX=0;entryY=0.5;entryDx=0;entryDy=0;" parent="1" source="rmZsoPK5EU8ZM_AE0ZiV-7" target="rmZsoPK5EU8ZM_AE0ZiV-4" edge="1">
          <mxGeometry relative="1" as="geometry" />
        </mxCell>
        <mxCell id="rmZsoPK5EU8ZM_AE0ZiV-7" value="&lt;font size=&quot;1&quot; color=&quot;#ffffff&quot;&gt;&lt;b style=&quot;font-size: 15px;&quot;&gt;ExampleValidator&lt;/b&gt;&lt;/font&gt;" style="rounded=0;whiteSpace=wrap;html=1;fillColor=#f0a30a;strokeColor=#BD7000;fontColor=#000000;" parent="1" vertex="1">
          <mxGeometry x="1313" y="513" width="140" height="50" as="geometry" />
        </mxCell>
        <mxCell id="rmZsoPK5EU8ZM_AE0ZiV-8" value="&lt;font size=&quot;1&quot; color=&quot;#ffffff&quot;&gt;&lt;b style=&quot;font-size: 20px;&quot;&gt;Evaluator&lt;/b&gt;&lt;/font&gt;" style="rounded=0;whiteSpace=wrap;html=1;fillColor=#f0a30a;strokeColor=#BD7000;fontColor=#000000;" parent="1" vertex="1">
          <mxGeometry x="1113.5" y="608" width="148.5" height="49" as="geometry" />
        </mxCell>
        <mxCell id="rmZsoPK5EU8ZM_AE0ZiV-9" value="&lt;font size=&quot;1&quot; color=&quot;#ffffff&quot;&gt;&lt;b style=&quot;font-size: 20px;&quot;&gt;Pusher&lt;/b&gt;&lt;/font&gt;" style="rounded=0;whiteSpace=wrap;html=1;fillColor=#f0a30a;strokeColor=#BD7000;fontColor=#000000;" parent="1" vertex="1">
          <mxGeometry x="1313" y="609" width="137" height="46.5" as="geometry" />
        </mxCell>
        <mxCell id="rmZsoPK5EU8ZM_AE0ZiV-22" value="" style="shape=flexArrow;endArrow=classic;html=1;rounded=0;exitX=1;exitY=0.5;exitDx=0;exitDy=0;entryX=0;entryY=0.5;entryDx=0;entryDy=0;strokeColor=#000000;fillColor=#f5f5f5;" parent="1" source="rmZsoPK5EU8ZM_AE0ZiV-1" target="rmZsoPK5EU8ZM_AE0ZiV-2" edge="1">
          <mxGeometry width="50" height="50" relative="1" as="geometry">
            <mxPoint x="1262" y="592" as="sourcePoint" />
            <mxPoint x="1312" y="542" as="targetPoint" />
          </mxGeometry>
        </mxCell>
        <mxCell id="rmZsoPK5EU8ZM_AE0ZiV-23" value="" style="shape=flexArrow;endArrow=classic;html=1;rounded=0;exitX=1;exitY=0.5;exitDx=0;exitDy=0;entryX=0;entryY=0.5;entryDx=0;entryDy=0;strokeColor=#000000;fillColor=#f5f5f5;" parent="1" source="rmZsoPK5EU8ZM_AE0ZiV-2" target="rmZsoPK5EU8ZM_AE0ZiV-3" edge="1">
          <mxGeometry width="50" height="50" relative="1" as="geometry">
            <mxPoint x="1056" y="543" as="sourcePoint" />
            <mxPoint x="1150" y="571" as="targetPoint" />
          </mxGeometry>
        </mxCell>
        <mxCell id="rmZsoPK5EU8ZM_AE0ZiV-25" value="" style="shape=flexArrow;endArrow=classic;html=1;rounded=0;exitX=1;exitY=0.5;exitDx=0;exitDy=0;entryX=0;entryY=0.5;entryDx=0;entryDy=0;strokeColor=#000000;fillColor=#f5f5f5;" parent="1" source="rmZsoPK5EU8ZM_AE0ZiV-3" target="rmZsoPK5EU8ZM_AE0ZiV-7" edge="1">
          <mxGeometry width="50" height="50" relative="1" as="geometry">
            <mxPoint x="1257" y="622" as="sourcePoint" />
            <mxPoint x="1320" y="622" as="targetPoint" />
          </mxGeometry>
        </mxCell>
        <mxCell id="rmZsoPK5EU8ZM_AE0ZiV-26" value="" style="shape=flexArrow;endArrow=classic;html=1;rounded=0;exitX=1;exitY=0.5;exitDx=0;exitDy=0;strokeColor=#000000;fillColor=#f5f5f5;entryX=0;entryY=0.5;entryDx=0;entryDy=0;" parent="1" source="rmZsoPK5EU8ZM_AE0ZiV-4" target="rmZsoPK5EU8ZM_AE0ZiV-5" edge="1">
          <mxGeometry width="50" height="50" relative="1" as="geometry">
            <mxPoint x="884" y="579" as="sourcePoint" />
            <mxPoint x="905" y="627" as="targetPoint" />
          </mxGeometry>
        </mxCell>
        <mxCell id="rmZsoPK5EU8ZM_AE0ZiV-27" value="" style="shape=flexArrow;endArrow=classic;html=1;rounded=0;exitX=1;exitY=0.5;exitDx=0;exitDy=0;strokeColor=#000000;fillColor=#f5f5f5;" parent="1" source="rmZsoPK5EU8ZM_AE0ZiV-5" target="rmZsoPK5EU8ZM_AE0ZiV-8" edge="1">
          <mxGeometry width="50" height="50" relative="1" as="geometry">
            <mxPoint x="1056" y="634" as="sourcePoint" />
            <mxPoint x="986" y="593" as="targetPoint" />
          </mxGeometry>
        </mxCell>
        <mxCell id="rmZsoPK5EU8ZM_AE0ZiV-28" value="" style="shape=flexArrow;endArrow=classic;html=1;rounded=0;exitX=1;exitY=0.5;exitDx=0;exitDy=0;strokeColor=#000000;fillColor=#f5f5f5;" parent="1" source="rmZsoPK5EU8ZM_AE0ZiV-8" target="rmZsoPK5EU8ZM_AE0ZiV-9" edge="1">
          <mxGeometry width="50" height="50" relative="1" as="geometry">
            <mxPoint x="1413" y="594" as="sourcePoint" />
            <mxPoint x="1476" y="594" as="targetPoint" />
          </mxGeometry>
        </mxCell>
        <mxCell id="rmZsoPK5EU8ZM_AE0ZiV-31" value="" style="shape=flexArrow;endArrow=classic;html=1;rounded=0;exitX=1;exitY=0.5;exitDx=0;exitDy=0;strokeColor=#b85450;fillColor=#f8cecc;" parent="1" source="rmZsoPK5EU8ZM_AE0ZiV-9" edge="1">
          <mxGeometry width="50" height="50" relative="1" as="geometry">
            <mxPoint x="1495" y="630" as="sourcePoint" />
            <mxPoint x="1501" y="632" as="targetPoint" />
          </mxGeometry>
        </mxCell>
        <mxCell id="rmZsoPK5EU8ZM_AE0ZiV-32" value="" style="shape=flexArrow;endArrow=classic;html=1;rounded=0;entryX=0;entryY=0.5;entryDx=0;entryDy=0;strokeColor=#82b366;fillColor=#d5e8d4;exitX=1;exitY=0.5;exitDx=0;exitDy=0;" parent="1" source="xyOQkmO1HEtsdpfs6mHX-3" target="rmZsoPK5EU8ZM_AE0ZiV-1" edge="1">
          <mxGeometry width="50" height="50" relative="1" as="geometry">
            <mxPoint x="636" y="539" as="sourcePoint" />
            <mxPoint x="713" y="543" as="targetPoint" />
          </mxGeometry>
        </mxCell>
        <mxCell id="rmZsoPK5EU8ZM_AE0ZiV-35" value="" style="whiteSpace=wrap;html=1;aspect=fixed;" parent="1" vertex="1">
          <mxGeometry x="117" y="445" width="212" height="212" as="geometry" />
        </mxCell>
        <mxCell id="rmZsoPK5EU8ZM_AE0ZiV-39" value="" style="shape=image;aspect=fixed;image=data:image/jpg,/9j/4AAQSkZJRgABAQAAAQABAAD/2wBDAAoHBwgHBgoICAgLCgoLDhgQDg0NDh0VFhEYIx8lJCIfIiEmKzcvJik0KSEiMEExNDk7Pj4+JS5ESUM8SDc9Pjv/2wBDAQoLCw4NDhwQEBw7KCIoOzs7Ozs7Ozs7Ozs7Ozs7Ozs7Ozs7Ozs7Ozs7Ozs7Ozs7Ozs7Ozs7Ozs7Ozs7Ozs7Ozv/wAARCAHzAZMDASIAAhEBAxEB/8QAHwAAAQUBAQEBAQEAAAAAAAAAAAECAwQFBgcICQoL/8QAtRAAAgEDAwIEAwUFBAQAAAF9AQIDAAQRBRIhMUEGE1FhByJxFDKBkaEII0KxwRVS0fAkM2JyggkKFhcYGRolJicoKSo0NTY3ODk6Q0RFRkdISUpTVFVWV1hZWmNkZWZnaGlqc3R1dnd4eXqDhIWGh4iJipKTlJWWl5iZmqKjpKWmp6ipqrKztLW2t7i5usLDxMXGx8jJytLT1NXW19jZ2uHi4+Tl5ufo6erx8vP09fb3+Pn6/8QAHwEAAwEBAQEBAQEBAQAAAAAAAAECAwQFBgcICQoL/8QAtREAAgECBAQDBAcFBAQAAQJ3AAECAxEEBSExBhJBUQdhcRMiMoEIFEKRobHBCSMzUvAVYnLRChYkNOEl8RcYGRomJygpKjU2Nzg5OkNERUZHSElKU1RVVldYWVpjZGVmZ2hpanN0dXZ3eHl6goOEhYaHiImKkpOUlZaXmJmaoqOkpaanqKmqsrO0tba3uLm6wsPExcbHyMnK0tPU1dbX2Nna4uPk5ebn6Onq8vP09fb3+Pn6/9oADAMBAAIRAxEAPwD0sH1py4B5pOTQhA4apAm8vevyHNGwJy3J9KbzH8yPSbi/NVcALnPFAbIoB55xUh2FflFIBCDspiDNOGNtNBwaABhg470jHOKGPOaRjSAegFP4wRimJ0NLnilcQwqgfmgsBwopux2bpT2Aj46mn0GhhUAZ70Q5JbHbrQeRnNLCSGOO9Aym4Ic5pMZHSpZeXY+9Rg4oBE0QzGc9qbjJxSxHgijvQA9fLx8y004ycDFFFAD0Y5qUkk1Cpx2qckYBoEOL5AFWopg0YA9Kp5GKlhUlCRVICbzAccVHc5ZM4xRH8r5bpTb+XYUAHU4NPoIrfcGB1NJz1zU0aqxBNBgLPgcVNhkQGQTScEVcEARcE5qDysNntQFxi1LG+ODzQVAGaaBg0AKzKWOKY2KVlAakYUAKRkcU0gg04fdp20FM0bgZ8oZZT8xqSN8jBouGDSbQtRg4FIRKGBOKkKnHFQIec1OLmJRgtzQO43GOtGKUzLIflpTQMaRxU1qN0mKiNLE/lyA0Jgy1NCUcOTSyR5QEGmvMJ8DNSbWKgVZJLCgEQA5NNYcYxyDRFKiHYTzUj43fWmAzzlHaijH+zRQGpRFGATRjFLWYxNoPfilB2/SkpwximAmNx4oyUPzClAbPGadIM4zQwAbShqMsM4qCSQwHk1D9tjGVYgH60rhYu7hQzDFU2u0UjcwXNOW5Q8Bue4pcyHYs59DUBlkVz6U5ZQ3RuKYxDZNAi7byApyeacYQ7E5qnGSOKuxA4zVCK74BxyMUkf3qnlAYkkYquD82KQ7kcv3jTMZ6U6TO6mo3WmMfFxmmlvmNCN89RuwzxSAsx4xu6inYj3fMcCqccueQfrSSXC5XLgMenvSuKzLbECjcMZB9qzxeKH2k/MKe94kWMnO4gUuZFcrLwcc+gqzBJtTJ6HpWFeajFZt5kjkKVwOOCaittct2KfPgEkY9KPaJOw/ZyfQ6CWcA8VHNOkqEnru4rDudbhjlwr52gk4FJHq9uYQ5fAK56dqPaq9hezkblvJh+TTnu1UnHOKxodTgmQsjgnGdtDajBHF5krbcdQee9HPEOSXY2luS454qSMhvmY8etYMOrwzTbA3Qdu9WU1NJsrGSR0wT0oU4sTi1ubBdSeCDUUhAqn9r+bAJx7003QZiNwLelU2Is+YC1GS2KrrJkk1OpOMUwHhh0pd+ARTGKg/eqUIGTNCAZLCrQ7+jVSYHPSrE6uU4bp2qsCQMGhiEydvFCID14FABJp4QvgCkBMoQL8lOpVi8uMU3NBQGkUAsM01nAqMyhRk8CgDThhjQ5Dgmpw69OfyrHjuwhyCOBUi3/mfcJOTVJoRpSxxlg+CDUhG4A9MVVw8sfDE+tTINiYP86oQpkIPaioyOaKAK6hWNBUk4pkBwmTTnuooxy2T7Cs7gSBABzQISTSJLvGQOKkD4p3C44DaKjYZNBfB5oBz+dCGVZ03LgjIrl9a0yU7pYWfHoDyD/WuymXIAI4qhNCDkYyDUyjzFRlyu55tNeXURMTu7BOxzioU1q6jZdzEgcZyf8a6vWfDy3Ss8Iw2cla4a9glspSjphgTkHvXNZp6nUpcy0R0Fv4qnJJP935x7VsW3iiLeqyH/AIF/k+4rz+JwuQDtbrgc1YiuHACYywPIx2ppNapgoxa1PUbXU4LggK+D2zV17xyMZAPtXmFnqUsTBQ+MHgHrWvB4gniyjZAJ4PXFXGo7WZEqHZnah3c/fNPDbDgnJNcpB4l8uTbNwjdDirs3iCER5jO41SmmZezkjbmYLkk9qpm+iWXBce4BrG1DxFG1n+6kUOcfhXNTasXl3K3zfWlKbvoaRp9zvzeRbC4kXA5z/SqE2uQqgZQGU9eea44apKU5dirE5B/CqL3km5h5hwDn8KnnbZXs4xZ102vi0uRdJmRGwskXcDruqnf6+WnLRY2biUOea5ma8YY5ySvFRGdcbk+UHrjtU62NFGKdzdbWJWm+ZyWAweaQ63KG2H5iCDnn/Gufa8XeWJ6Co3mI3MmdrAZI7UlHqNNM2rnV5pk2OcqffrVP+0pIn3HgdB+WKgjMU0A55Dc7vpUZDxgc8ck8UrpBd9Cy2pu77mbgcYz14qY6hJs4Y5P8qylaM3ARCDu5x6YqYuEwmfrTRN9TXi1J0gLK3OMdPxpq6jJOjHc6rjjBrJknIGzgDHanhyECqAA3BI+lEk0NSNKLUpImZt5BPXntVux1qeFsqTjgnPt1rnftG1wDg575NPimwVGcZyScd6N0TzLqdafElwvJx8zZ49KWHX5Io9mQT1GTz1+tcyJg4GCxIGOBxT23O7ENyMChOzsW0rbHo+lait0CzNyvBGe1av2xXXauOP1ry+21Sa3VkVzHn7xH8VaVvrlwkwkeQkqMKpGccVqp2MXSu9Dv1JYFycDt71YglyMDNcnZeIo5diSuCelbkOpQ9BKpOcAd6uM0zKUHF2NCVgM9Tmq5UE56UouC69ajeVFXLMBVuS3IHEYNLHLsOQuapHUISf8AWdPaqU2v2cO/D7ioz9ajnSKVOT6G611lcMMVUudQit0LSOB7Z5rkL7xJcyuQnyKBnC1lLJf6tKVRSFyOR2rN1L7GkaXc6W68VqHYQxFwP71VrefUb+RQciNuc4NWLDw4qKrTnJxyD61vQwJAgRFwFAFVFNlNxivdK1vpyRqpd3Zh1yeK0YE2sMCmAVPbjLitEjGTuX4w5iO3rT4UkP3qS3lCZHWla7Ik6ACrMyXyzRQJwRRTuBjuzFQo4GKctuEIaXAHUDNLGBnceoPyil8t55Mk5A71CQiwuMAKMCnUqJsGD2p5ApDImApAeg9KV+TgUqIT0poAkbIwahI45FSOMUwkEUDKzx8msrUtIttQiKzRgt2IGK22XioXQ+lJxTQ02noeXapoFxp0pkBLRjuCf5VlMGYjEkitnI+avXLm1SdSkiAgjnNcprHhhfmlto0BP8G2sGuU6oSjLU44XMiEmXkYOCetWY5mIVVfBxjOe9NuYZrYmOVMMvVSv/16rhufvcZ4xULUu+iuXRIyndIS/sOcVC15IVODnHvVCW4mikxklMjmo3ugU3j6jHFNxYN6XLS6gJJmUFvVvpT0fGSgyvTryKzY3aSYMFKjP3fUVcgBJMYGCaGrkt9S8rYUhug5yDVdmCHORk9acGOCHTpnGD0/xqG53KRlAuRg8035jb1ElZXK5OSDkf59KZISYmYH5hnjPFRSEsofoeQTn0p8odrdhk8j9aErDVmM3gKwc5UjOcc4xStNEINiDBwPmx9cVDGPmwwwCD/h/SlVSGbK5Ufr6VUkrX7Bpe5NayEKeWOPmxk5z9fwqXzQxxyAePp7VWgVjLlG2oo/LrStIcsMY2ncc8mptfUL3IpDiUGP5Of7x/KrrsDtPlBiFyeepqnKQrkKdy9znpUsbBnJG5c8ZBqpWWopJkZYKQAck4GSTxzU/mK52g7RnvVUcE/L0+b5WPPNTQMfJYMM5BGPT3pSta47O2pE8hZThgOf0qxGzGJS3HHTvTNjMiys2OMdqYzEx7MnAXJwaV01dA0rXLYlAIZchRySDTPtDOXbdhQcfWqMjnYFUDHcZp7mR2OATg5INCS3Y0l1NDzwudxPqc5pq3G+ckyH5TnGex//AF1VBLlV2jdjkmnJHJhScAgEH37CmkmF7GjHdMgzuG7GevarUOsTQoSHYEn16VlGQKCWGR6ZJOarG4kzu2EbhyAcVKSewrOx2UHiiWBB+9fdxknmornxJd3DHMnDf3a5CJ5CzMQdgIAYmrcLNGFUZY+pPFPldtSVp0Npr+UqB5h56jPFVjO80vlx+YzY5I5pNN0651JvkLKqkAt2rs9J8Pw2ke5huc8liKTSRpzWWpm6R4caZhJeZ2r6HkmustrGC2QLFEFA5xUkcYRQq5GOtSAEdauKuzmnPXQUDijNHX6UjbVBLtgDqa12RmtQBBPBq9bL8ueuapW7LK37sqeeq1rQgLgAU46ksaDhvSrLW6bdxNVpmw+cVYJaW3IDc1aJId6+tFH2Z/WilqBW8so+1uPepxOkUeFB+tXWiSYZwMimraxH760WAqpMsuNtKXI4FWxaQJkhAKgaEA/XpSsBCOTUyHbUghwOlGzC80DIJMHmoiBT3znFNK5GaAIyPemketO2n0prGgCJwM8VA6AjB5qywzULr70rXGnbYwNX0WO8QkKdxB5FcHf6Lc2cjbzhOo+lerkAis+/sYrlDuQNxjrWE48upvGpdWZ5ZLC00GCQCvQr1NV/sb+UWON+RjP+FdPqfh+S2k3W4ym49/yrMe3kCsQgwvDc9+9EXY0s0ZdsgifaVIwvOa0Y7ZPMEoJBz0qxEsckTHHQYPFSBAFyACw4+tOTW6K7FKX903DE7jjHXFRy/IpI+Yqeh5qxK7Z3svTiqjuqRu3POBn8KhXauDWt2QyRpvXd9VJPUmpEn+QqSOcYzTJfn7YTAOKjA4TAwBwuOpqkugtL3Q2WLbNvReCRjB7Uu4opy/3sKPrSSZZS452kcUyV9m1ZAclu3anLXQN2H3WIJwxHakclXxgc8HNAjbz1LKQSp+8KdEP4nQbn56gE/X0otZDQkxTghBxxyelGAi7EPzHoTUY/1vzHKscAA9/wp8zCJc5xuyAD2HNVui207CR5MxkwWxxnd3xTtwXcCMKOSPf0qGFwIgCmSzZzmgvI7HfgnOST7VO5LaJzIS2d2AF4DdKryzLtJLDLgEYPanuCkXX5jHlgR0GarOSZQMYHX8MVSSC9iaNSsYcDkEHmpkP8RbDYyMtSbwITEu4nkhRVdlZiAchBxjNN2bBa2LA3E7hkHkDFToSUk3MQ+Bu54FVVJjIUZIzVmEfMoY4GclfWs2rK4JdyWWRVjCqwBPNVZ13Ng8kcCr0Vu0pyRwF5z3q3FYFmBROvJapU1HUqze2pmW9nI5Cktg9ABnFdLpfhzzZBJMDjAyKvaVpsVuu9gGK/xbc1u2zKHAQkAe1Jz5loPl5Vdk9nbxwIEWML9PStCNQqgDtVfDDlfkxjPFPe7iiXLNj6VS8zmleRYHFNkmjhTfJIEX1JrFvNfVPktkaRz0GOaxbpb++kAupfKQ54LZP5VTk9kVDDye5uXXiOJCVt8O2ep6VRj+16nON7synr1xUFvFZWi/MPtD5z6D61t6WjyH5gFQdFHeizvqdLiqUG0ja023ESqMdBWzbwgruaqVrHhRmtWNdqAVslZHmSd3dle8iURhgOc1BExjPNaLAMORms+ZCZ9o7VaJHlnzx0ooEhAwQKKAsPU984PvUqvuGCOfamtGH68U3yn6BsCkMczYPzH8KFQt8x/ChYgPvEsakHr2oAUU11GKXNBGQcmgCv5i78YBqK4ZR/Ay/XmpBasX3ZwAaS4yGA60AQxrv6MM+maY6YPIqxHCkgyyfiOKgmRkzhjgdmpMZC6gnionjOMjn6U95QQQSCaiZzg4OKQERqNgW6AH605gSaikO0ZINS9tSkjPvF2s3Cnj+KubvbZJlKcIWBycd66e52SxgK2Qa5+8iMMgK8+orFx7HZDWNmYkMTW29JH4Yep4qORQs2wMeMjnj/AD0rQuNuCWXnqazGkRp9xyBjv/jQ1dXG0ooryOY1IcLyTg1DPKBEFGcMuFz6ipT5bfKjfKuRx0PtVO6jOxVPygcHb1ppO9iFJvoAUsuGKjA5A7cVCQRjD7VGO/SmySFJHZsgbQCPpSEq8KNs4I5GOM/WqSsFu5YEiRuQ7YOQeBUciLLcccNkk56U1UCyKpQfN0NToqSuxGFGcj3NLRO9wuk7kcUjtIS2DkZHHQUxpd4OGDDGOKkdQWLBtoWMHH51URGjVmUcuDyeMU7rRjV2xyEb0Xd90kinyKZtqHIO7AJ5yKRV2guPmz7frT4t5Kx5w6jKiiTtqhvsIsWGaJWXK8Cq+yWOVXJyWPQVZiWPzyqkkjOR71YPls5BX5gcDHbj/Gk2OyWhViO64+c8D5ce1QHJuNy42jjGKvyRrETKQc7SMbvyrOmC4MoYYYY49elPfQTba13HyEF0O5tzccf59qa0ygJvOQ3IUfhVcTAyBd5DYBzjpxTtqySKHbJPK5HeqcdmC2sT2xLO2GPynJz6de31FXIU8vaC2cn0qCJVjVmUAN3H+fpU+5QgZwGbO7j+EVnJN3sU0aFuAozuBHINa0MgKqoY9Mc1hWzLlWH8Xfn/ABrXt2IIwAOvUVDVlqXF9EblpOyg7E+Udj3rQtplQ5bLMRWHFN/Fu4bOCBU6SuUOC3I+6BUxskaNcysal3qSphB35CqaxrnUpEcuI+vBDZH8qmaORxuELbgMfSnpYSynfI5IPYiqW9mLkUUVvtRbA+ZTjsMVH5UzMrhyQOAK24NMGBvzjHpWjbWFsrkY3nP5Vpy63CVaMDCsreRmAC7ucdM11lhbfZ4gCeT1pYreGHOxApznpVqFQTk1qlY469d1FYu2p3SBVBrWHSsq0OyZTitUEY61ZyBUUoCKXxzipqYy7lKnvQJlDzC3O3rRVjyQOMUVQE2w4o2nFG0+tG1vWpGJ5Z9aUocUuG/vUYb1oEIFNRTlkTIqU7wDzVff5z+WaBhBOxUg81GwMrkhc/Spmi8oAJ34ojjeNx3z1pAOi3rGB5Zz71DPDcSjACKMc1dxQRTAwJY2DbSBn1xUDqUPb8K1rhdkvK5qnPEChdSBz6VI0USfXiopG4x14qtevIhBBBGOmayXupCAd+D0+Y1jNvY3hTvqi1d+WGyJGQkdewrDvmkUZGCD3zVy5lmMa5xIvt1rJunRiOduM5weaz+Z1JWjcpTzOVPGWA4981lPNmVRnhiRu9D6VfcM7ZLfL/fqu8CYY+evzdcZOavUhq5XllaNlIbkckAjrSpcJNdLFIgVGIw2KjdCwPlyEkH5kZf61DcIxKPt2FRwQfSiIo2uV5XlkLwy4LoxbPrjP9P5UkDM3lIFznIBz+tQ3SMzgxqWkHzcDqO9S2p3zxrzgnPHQHPT9KuPW4K7fkSwgQRiJ25x9c/4VaCfPGVONo257n0JqOW2ZzIzHy/l+b8Khj3mN1L9BkccdaSStdBfWyRLIcSqi54j+bPOeTUUybAeQccbc46/Sk5WRSX5Cc/rUcpaXepPLxjI9On60klZMLNMdFMFaMJyeAQB2NPkk8lH8v5sHbnPT/OaiuEaNlDkjkDP0qSUDyHYKV3Ecev+cUS7jTV9RIZzFDuJGWb5s8kU9J9kzEFRuOMj+tVJHy5LgABTx6/5xTkYyfdUEHnj25p262NLptIu3symJl3HIGKymLiBTkg5PU5FXFBuHK46nmq10PIlMP3jj8iaIqyuQ7JkMYG9CxAOORVsMqnd/EKoRg8MByeBjtUw3ZXZknHfvVvcSdtDQEvloEjOWbrn/PvT1C43yDI6Z71HBaTMwk28Acc46VMibXaSVvmUYCA96zaSe4762LcYSKP5icCrcExIUDhe4brVFNpO6U4XqBnrVmGTBGACF6Vk9fkON9jYgVyFwO/P51oHH8LYNZ9rJJkYXI6HBxVqFo3lUYIwOeaI2Oi1i1FK20/OeepxU8bMDnznXj7u7BH5VJHbRHlguc9CeKvQW8Ctzg8cgCr0auZzmktRlvC8gymduO5q6CsW5k5bHLVKkK5OANo4P1qURrt24HNUr9DjlUTIYbgtKF6Jjv3rSjxtFVFjUHIUcVZjPqauKt1MZNMtxH5ga1k+6Kx4mAYc55rZT7orRGY6koopjGFTmipKKdxWGbval3VRS7fHJpftR9KQy5v9qC+BmqZuj1xSNdMykYoAsG4RsqDzUaQssoc42/WqoyGzUz3LMuABSETyM7sGReAamjcOM4wappd4Tbt/GnR3AQHK5zzTAu0VWF4p/hNH2tf7p/OgB1xgJ8wyKz5lYxHK5FWJ7jzE2hcc1XluT5e3FIaMDUEzGTvAwDnmuYlumSXZIAVByMV0WsXZgGAg59q5iaRbkgIgXPXbXO9WztpaRBpi5+Q5B4x6VXl8lSvmfM4yQoHAp80i2iiNMmU8Fxz+FUmyCJAxBAOSDUu3Q1TXUq3M7n7mE+YZOO1HlupPz5BA5wMflirCQvKzJ1JHfmg27xr852EHr7UL3tyHHQylupHZvNjBOSBxjKiq9xCsluY4soSeNxB/pV9rQEsRPyASeO1WYtNiu7ZXZ1LDpkdatrawKN9jmzFMY/LcB2iO5Mn17cdf/rVJZiNr6AEH584xxtPPatS800253g5+n0NZ+0QX0E4J2byfp0/+vVK12uoX1sdF9nie1fCtvQHJYdRzWIU8p5Nw/dhcrx1rqEcSOGRhsZMEAda56/wszqD904AIyCDUqXLoEvisjLaPeRIHB2sceh74/WoArNcR7OPnByvQ98Vo29rIqMSwKM3HHQdKZNEq/KgwAwII/wA+9Ny1DfcLuFpA23DFSPy55/UVAEkNmcZOD361tWFoJnYNyskBXaR3B/8ArVnR2826dSBtU/dwPepe2oKxkyDzCrEcgjjA6VradZyyv8qAqw59v88VB9kZJkVV4IwQT1yTXUaNZ7GQP82M7lB7AUSlZFpIyruBLQeXGoAbOWHXceK5u9TyZyCAxXHOcZ4rtdRt1t4Xd1zzkZ7da4q9CyXTBU24J5OOaKd2yZJEUMbSsHY7BnIJ+tX7cAH5FJGMgk8mpbOxlliBRTkCtRNGcOJWICqPlXH3jWsgiZximMqhpPlP8KsP8KthEkMgzgA8HHb/ACKm+zfZsmYZJHQHgU6GKJYzIw6gcVjJ9CrNsiCxksgJAA7dqljVII1zJz0wBycZ5zTWUBs5xnqKliBbGO3UmpcntYIxepfsy0hyDgDrnjrWlaoyuSCxHQVmWxBZVXB55rSgO1dxOSD0zio66G8V1ZpRySMckD0wRirsEoVfufUk1mJcneAr9/u4qwbtsHccDjIaq1aIlHm0sbCToBljtJNSrcLkAyD8KwPthxiP5iT6/pV+13Ssu7jB54rSL6M5p0klc1oySOamQcVEq4A5zVhIxjOa2icjJYgcitmBt0S/SsdAM1p20o8sDPIqkS9y1RUYmBOKeGyKYrjqKbuooC5nNGNvFN2kDNJvK8Upk3jB4oGNB3HGKk8vbyelRjCnOaUuxGKAFIz0pVweKarcYpCecigB7RntUqR8c1FHIR1qTzTQhMeIxSeXim+dTTNmgQSKADjms24bBNXHmI4B5NZGqXoto8k4J+7UyehcVd2OU1W4M07qzFccdfT0qku2GBmJLSN90EdqfzNcsx5VeWz61WuJ8ygLyO1YXsjvVlFCEK338g+3BqJtsjKNp54OQKlWffMFdeQvT1qSV40/d43K3Xtmob1HZMIY9o3L9/8ApRLCk+dp2uBjJApYGTfsVwMetTGLkYwxb+IGnsHKmtzKawmOFjVQc9RyT7VftbWS3ZEkjRR355/Kr0UMgjI4ibtyagdHiwZJgpH3s9qvZWGo22GXemxyRsUcE7ejVyc0f9n3WZAWjZsEEdPeusS9tGcxvcoWHQZAqtd2NtqKlWdSw6YpJ2dxyWl0OszmLACnGD+FQ6lZI6+cFAIAU+/vWnpmnSw2zKDvG0hXI5+nWnT2rGAAkbhjJI680WvqCV79zBs7Uvbklc455A9arvZrvkbAwoB57c10draJBbzJuA6np0JxVG4s/LkZsYVuP1qHdaIaXQlsbdVKuyheu0D3qnLZ+VdSAf8ALQcencVoWsTDhWxyCOO1W7yxBjDqPurj8Tz/AENK9x8tnqc1HpxG1jghV5+oNbulW58nzVUL1+/703ywY2VMgEYBx93mtG0RvLIIwvIB/Gk2Va2xz/iOVY7TaqtmRjk46YBribSHzbgNgscjGV6V23iiO5uFFtCnTrgdBUOheG2jCSXD4cckAVrG1jNrmZY0bRvMiV5Dx1JFadwIYYsbHDEHGAOKv8JCqqNu35fmboaz7y2nZw7zbgfvbUAxUptsajYxJvKmDqSG9OBz+VQiBgrZ5yOQa0GtXd9scSMq4IPvTv7Pkj3IpDA84NEn1BIzVtjjMgAweinrUpVWxJtwCO/WrnkMp+bpn0pkx4DADOOW5/lUvWxpy9iFEQHIUgGrQnU9sDPHpUC+YBlSFxwOKQqVG/PzdcgZFNRu9QjtqXVcZBG3ODmnC4UyMHfIPXHG2qId1x8zNkelBZsAMm9Seo602r7Bc2bcxLwuCM5zXQ2s6pDlef1rjrPczbQm1OPlNbERePAXGfSlqZzjzROjt5PNycYwaupnArL08SsNzfdrVTOBXRHY4Jq0rEq4qxAfmwTVZelTQttfmqMmX0UMetSMGC8U2JRjNS7h0NUiSpuf3oqYqMminYDP60nejOKAakoWjNM3UucdaAHZ5oBpoOadimJsUcGkLe9JzQRQK4hJpM+9Kajc8GgCKeUBGJI46muL1zUEkmZVkYtGce1dBrLlLNz0J469K8/u9xmA3cbucHr+FYyd3Y6aVlqWjdiG1zwzSnFZ80+X3ZdeucjFPv2ZrlfLwEi4QdzSqr3DkOAR0DY7VPL3NW2xiz+XGshAYnhc8/jQb47QrKBuPBzUF0C0hwMD0HaoltjtO0ZB696LWDneyLsN0u0YwSDkkmrsWqRxLvkKgEcBOT19ayP7OudpYYZSMdMc0HTJBBgoVYZ+Xnmpacnexab2Jdf8TbYR9jUKvmYywPoP8a5Oa/1K8k+ad5OuCDwfpWtcwRStArOiMZQOuOeh/kK09Ws4dO1BrD93+7C5I6cjNbJWSutTGdRp2OUFpePu+Zyw6gNTku7+0lQuZVweevNaMktrbzK8cxaR3YPGf4RnitprrTJrEq1md5+VT5nOaclZ2Y1PU3PBGurqqGCU/vlHI9q6W7s1a3YhOV5/nXk3ha9bTfEUZD4Vm2kfWvZJH3W+5SMEc1E1bVFSk200Zaxp9mZwuNx5H9KyNQG+QbOi9RmtWFsJIW+6oJrFuf3uG2qMkYx35rGUtrHRC/UsWXyzKGz9wjp+ValyyeQVl46HI/L+hrLtEZdjhCMDGc1fuxsTa2fmPBz6f/rqXexUlqgtLJCeRlcnmtDy444WbYox0FOsYdsA56nIx+FYni3Wxp9q0aMNxOOe3SnayRjzOUrFfVdUtrDmTGTklV649P0rnZ/FoX5oIwrDjDVzU9zcalOVGXJx2zin3WmS2VuklwGPmZ2k8A4962VPS6HOqlob0XjC9DZeJCp/2e9adl4vt7hyJsq/HJHNc7p+km7tmZkQEH/nqCfypk/h2+EixRbtzHAHrQ6XYhVVfc72KcToTFsdSfyouAYowypkjrtriNH1O7sbx7WZGzGPmVsY6V041QX6LscK45Kgcis5LldmdEJpq6LG/aDvZWBOD7CqkzFcqrHgd27VFLeylgZUAOMAnuPUVDPcLsyxB9FPpWbu2VzWu2IXct85DDPqaHYqpCD5WqNbm3WMBFXk/lx0pFnQNkIAB0INNLsyebsWUjBHzOdg4xTyFD/KSF6YI74quZehXOByRUqyBgu7gDk55oV9g6XL1t1OM+tbFjGrMCcszetY0QVOVHHX/wCtXQaRIkrAOuD2xWm2gpu0TctogkarjHFWV6UyJcIBnmpRW62PMbu7jgaen3xUQPNSA4YUxMvpLgYpDL83eogcikbOaCCz54oqtzRVAMMZpBGcGrG2l21VguUwj7ulS+XkVPt9qNtKwXIQmB0pdlS4oxTEyLZSFcVKV9KY1AyIrUMhwKsMKifC570gRiapC88RVR9Sa42a023wLcENnFd7dK7xuEzkjiuZutMm819+dw5BHFZSVnc6KbVrM4h0bz3+djhj9Ota+nW+YS5PLgLSxW/lykMgz3BPar0KCIqAoK9SPTFJR0Vze1rNalP7GqOxDZyOd3HepBbeUSwrSH2YsSgPTO3GKZNs2jbjc35frSTXQpeRXSHZH8pHTODTreMXO5Wxu7VA10Yf496jjFQQ3wS6WXflBxgVDetkVoYGq2zWtzcAjDxESx5PbjP6U/UtSTXJ1uG4kkUB8AYyABx+VdHqWmpqyi5t3HmqpXb3JxXA3MNzpcux42VQfT7taWTVr6mUo2k7okGnKlyzhiynrk9OlWLlhEiqGPA5bI6VVGroV4X5m60v7+eSNpIWC5yTnqKPeurkJa2II0liuknGdwO4DryDXs+iyrLo8cj87gK8osbYCV0PzpIdyle5ByK9K8OXCf2aACcKu3n0orNM0UXYtzxDyiucFmPGe1ZM6mOXY5UqvfripdRv/LljY5xu24/rUbIZWMqqfm7g1yN9TphFrcltAqoDISAxPGOlXHKzSIrCqDygYCHBJ/Kn29ztCNt5B5/Si9typRvsdBMPLtyDwFGa8j8Uam19eygMMIeMfn/SvR9V1NTpsgjO0hSP0ryS7jljnLHoSQW7E/StKdnIxhFxi2x+iSNFN5uQTycHnuKd4hNzKI2Lkxr91Qx45yazbe7MFww3HBzj862IpYLlP3kg+UdG5rqk7M5ZWuVdCimDbvnAPbHuK6m7mnsLiAHDSQDcDuz1x1rOguYbT5o2x6YqPVdbt4dPaKD97cy/6yRscfTiojK8rj5U1oRLexz6nPcuAu6MjHYk8V0FlYmW1RkDK2OT/dNc14b0e41K7RAh27tzscdOK9KFmllB5aR5YjFTWkpHTRVlqcnqNpcKihWkYEHn0zWcyzxkRvyrZyxGCOfau6kaFosyAMB71kz2ltI+VACkc+9Yxs3YqSZyMVw0Mm3oynB3c5P161PFNIybjuKk9BxitG70zdK4jUsSd2Rx7+vvVF7O8jZijFguSVzmqasRa2pchkUnOSCfarMTkAD73bbisyDJOSjox5G45rQjQhSQ5IpStdFx1LqMRJsLjnk81r6RP5cg+Yg/WsNHZWyFBPZvbj9a19MdPOXegw3vTSVtxyTcTtbeTfGp9qnqpagCNT0GKtCuhbHmMUU7PIptL700JlhW4zUg561HHIu0UrSLniqSJJOKKh80etFMVi5gUYp+yjYKZIzFGKdsFG0UAN4pDT9oo2igojNRsOanIFJtBoArnjg0wgHtmrPl881G8XcUAVJAmCMYNUri3WRSPUYzV9wRw3HviqsuRnFTLYqLOOvdOMd0ACuAeV71HJGsVw21TtAxz9K0NRQvMSVwR79apPLG0zhwQWY5BrG90dkblOVoupkPTtVSeRDzvdgw4welX3gDOyo48vPTHNY9ws0LlUXK59OlR6Fq9rkUmx8qS7evAqBAGkymQp4zj2pomAOMgDPIxVqNnYkRKMD2pW97UUWmT2c1xYkyBgVznAq88unaqf8ASkUF+m4c81UW3aRBvb7wPtTY9JLRrtZ1I5Ug/wD6qm9i5Jp6Fh/BmnyN+4cKxzzwcelWrLwPZWuHlnaY46yHgGqNvbXMDfJKQvXOKTUNWnSBlizk56UKbCSaVylrKWkF2wsSgdcDC9BW1pU0ltpaFwCx6jP1rnra0HmgudxJByec9K0576VAAUCqOAKbu4tPcIvW7JrhzdN+8LHDcY/h9Ktwzb0IYrtU9AeRWQJDJIHXOByQ1S28jBmKDCn73asbtaHTHXU0ppEVQc43Hg1SS84kycEEKB2OM5pHlLRAkfOG7+lUp7lcq4ITrlcd6S1uim7IqapqFyroDu2k9DgU6DTF1dkRWBckhjx/PrVW/RJl3BGYjIXJ7Go7CV9PvE27lx044/CtkrJNGCetmX734d3ZjLwyI+OoJIrEfwhq8L7REwJGOK9O0zXd9sBIoOB1qSfWbQ4O05q1V11MnB81mjzJfDGuT87CnuOea1dL8A3DuJr+VVQY4BywrqZ/E0S4RId7BsHJxx+tVbvV57lilufLUDGD0+lS6lthxgrl2AWGi23kwlCSPT+tUptTDyZJK9gARVC6V5UOVZG9+aqrGMjc+/bnIxioburs0V0aq3ZcgBtq4Ocn3qJiXbcNo688VBAqOSzkhe2OavR7Ap5G3OfmFJXtcu11cbw5zkMeBgH2FSNYK6lVwGx1PNTxRpvOFwOnHIz+NXTZo0YJILdeKa0CVupystg6v8/zYzjFMQfvCFbBQ9+ordu7RlQqIyCCedtZLWsySncykH2q3Zq5m0kriq5JL47YJB71fspQrA5OO49arRsFHHJ7gLxirduV4XyW3E5ycn+tJLsNLQ7HSrlpbZQ2OOPfFaY5rD0tGCBs449OtbSZK1vB6anBUVpND6D92gU1nVRzVmYoz60ZNRm4jA+8KYbyIHGRRdCsWOaKqfbY/SilzLuFjp/LNHlH1qSk3VpckZ5fvSGM1IXAphkouKw0oaTbTi9N3/jQKw0rQBilLe1IW9qYwxTSBS7x3prOBSAgnXcpOOO9Ztwmz7ozWlJMpB+YYrOnGSTgUnsOJh36BFZ2Yn+lc/O0pkDIQSTxu962NauJIyQJAueMfxVzU96/KNMRjhfaua+53QvYvLHLJEAVG8DOVPp6VQuYZiNxQgg55PFLHfSbSGuSVXj5jzVhboyZVZMg/wB7Jp3NGrowJLe6MhCKqt0/GtCxsZRjzww4xwa2IYnZlP3kA4yuea1rSIRgFYwfXjFS1rcVluylb28ccCiSHI7VN5MTKGjUA47dvwq60cLZMluOOm3jNVrhEU5VXX0zWdtb3KjK5nXMMoO1eM/3aqNpTSr85APtV9yR+8EoJx9KIJQxCqhBbuQcVCbTZpyplX+zRGoBjXB4xVK7tPLDwkKOPlJ610mwLE08gGFXcD6Yrn5Z0uWmcEuMjk1UG29RJp6FJk2x4jwX43An86dBO6gpgE9D/n86iEoYkxseTycZ49KVGdCGbOCcf060SRtHexMzErwBuwFznoMVXSCMiQfxFSBn+VK0py5GNvr+IpqSDz1AOFYHIPf3ppO2gnZ6CvYSKwZSm1e2eopp0yd5SQmFB4NdTbwx3NuJYhnbjoM5pDKiNhgAeOWqbtaCcb28jHtI5bYbCMMOoq3BEJOqrnPOetOupEBHlbc9MA9aLGaSVlDxGMp03Um/esOzbLH9k2shLhPmP0/wpr6TsVizYx0xjP8AKta2U7ecHjPvU7W3mIcEdPSne+jMPaKMrM5pomA27SSBVGS3YsWMYC45xXRXWnTE8MNoHIAqk1lGjbvIGSCM5wTRra5rzKWxhiNF+7IWJ7EdKtwQ3G5N5V/TPX8quJbfvciIYI7AGr8UZBZ/JAwMDFWrNFPQgt0kcDoMMTxWhFIFADKuB09aoHcR93HXOOooWFz8qKc9wap+SJl5lqQlshUG3OTn0pE01JnDeSrDA6L2qa1s5WOGQgcHr2rat7dIkAVccYqoR3uctSqkrIzoNCtWQbo8cduDVhdFtUYbF5B71ogYPSlUfMK1UInK6kr7kUUIiwNu3vx0qwBgVOqgryKiYYbFVYhtvViVFOgcYIqWmPS6WYyGO0RuODgYFOFqiHgDPtUkZwaU/eqGlcm7TGeSvpRUm4UU9ewrs2y6/wB6mmSMdW/Wsoysf4jTSw7mtbhY1DcQj+IU03UXrWYXHrSeYvrRcLGibxOwpjXvotUDKtJ5oouFi6btj0ApjXMjVUMvpQZG7UrjsWDM/wDeppkPcmq+5yaUk+tFwsSl/Wo3ORTTzSHpQFjH1e0V18zZvYc1xuoy+TK5ECZ67q7672vEVPT0rlNRsTgvjh89Kwmne/Q7KcrxObl1CVMhmGRgkKv0qFbm7JU+XtBPUtjP5VfOmludhwOSfWoxZLEAXP3TgCpTKV76liDV57bbwAB0G7Nb2na2JhibKnsVFc0I43JWKIEg9+cfh0qza2V6VeRpdkWe/wAopPWyRra53cO2Rd6tuBHQdqkdoFj2uvPpisDR7yK3+Uz+ac8BfSuiSRLiLMePTkUPbQ5ppxZSeGCdD8m1TwOKqwaUpnEgdgE6DPBrXaHeuH5B61H5XlqVjP41jyjVR20ILu08yxkRCc7Dj8q81ic2r3MFyzYJ6jsc16gyyDKkggjr71y3iHw/HNumtx5cpJMh65qkuV3NaTTumcpEjylmhkJA6gnPNOMc7SHDnI79if6VHCq6YzxSElnP6f5FJFqcHmuN5XBqmr6o9GEYKNnuSyBoABK6rnvu60+3iN3cBYWL4O1mwK54z/bNQZppCYwxwSeld/4ZsVaBJMcMBz6/5xVSjyoztGzl2N/TYDb2e0sdpHWsy90yea4LCUhc9q6J4CItqKdx5AFVZIJCvzkpjp71jK8tDljP3mzKh0c53M4bJ6MegrQTTIiuBJIGIx1FTQ2LmQEykjGKtpaKGxu6VLXVCnUs9GRxWMaFQJGzj1qwYyAAucDqalESg8LjtTiFRclgq+9awg92csp3ZEsZKgknHv3qC4ggVczN247VFqGqGNWW1wzAdc9K5+S5upnw8m4+nWlKSvY6aNCc/eeiNgyWoYgYOOc9abu84EIAtVLTbjB+Rj1xV+GAhw45UdMU49zWUVHdmY180TbkyGyAQTU1reSH5pNrHOORVTUkMd5KAMAHnHr1qPT3eQs75x0Apq5dk1dnVWs4cjOOnarykCsC1mMeCWGSeK2IZQ5ODWsZrY86rCzLQ60dxTVanN1rYwLUZ+UVHIPmp8X3RTZfvUCQymN0p1NbpQUJ24NJkk0fw03cBwKmWhLQuTRTdxoqOcLC5PrSc+tPCGl2E1sBHjNLj61JsNAjzQBGFpce1WY7bcfmq2lhH6UWEZYWl2E+taxs41/hpRAg/hqlEVzK2N6UoT2rV8sDjA/KmNAG6HFHKFzK2nNIymrM8bRuGzweKiYBuM0WHcozR5cEAfU1lXnlqCuN+3+dbkkY9K57Un2TYQZ9z/DWFRO1kdFJt6GTMskjHA2qOMHhetVnshtMjDAHJZ+AvPtWlcvDHH5k78LyF6ZzWHf6nJeSrBAgPZRg8D2rPV6HVJWVhtxf21oD5CCTHTzAMD6CqZnnuF+03s5itxyoJ6j2HSqt55Vo4G8XV2cfd+4n+Jqk9tcX9yZb2bABGQeP17U1GxGqtc1k1qIyKljCWJ4LenNdbomsrHEkdwQXPTHcf571wqSiNRHaoIow2A+3czk9MZrRjU2MQDDErnLsxz5fsT1J9qbSvox/FvsepI6ugYEEEdqY64BA5NclpXiQrGxIBjB2jP8AEa6eHUIplUAjceq+nsaTtszCUGpEcpk4AbHbjiqF00xbH8A7+tackK9c596yb+6jtyMKWI9KhrU2pSVzlfFunxyWolAVGU844NcLMkUbZVyzdwAMV2mp/atXVvMGEB4GDWZHom4/MejY6e1XBpI77cyXcoaBFbySt9oQKT0Jr0HT5xAiog+XGVx6VzMWj4Ks4K8AdO9bEEFxEow24D2pT97UtQtGzOhjnldgS5HQVcV/MKhnYmse3knyAVz9Bit60t1IDFMZ7GoUHY4qqjHUfFGC5Yg1YVAMEDGOtKqhRild1jTczcCtYwSV2cLblsR3MywREkjI7Vz1zqUsjnIZcdOas6rMGkEkcg5AyOx+vpWdC0bxujLsYjv3rKck3ZM9GhRSjdkRUswdSVJ/iU8c1Ou0MBJEF4wHTuai2PbZKncD1Uip4CjLkBic8qe1Zq6Z1SemmxdgjBwykOo7Y5rStlCjG3H41nQKYsMhJHp/drStWLdTzVR1Z59VtmFq6K13KeBliCc9KowxeQCGY5XpjvVrVEzrEhV9jZ+6wyDTkgZmAzmPPI9Kp3OmLtBXFtfncM3IHNa9ozvJsQYC9SfSqMcCq2AM9q2rWERrjj64q4wu7nLXkkiwowBTj0o6DrSHpXQcJZhOVFEo7023OVp8vSgSIaRulLSEcUFDO1QsxD1P61F5JeTis6ibWgmJu9jRU32V/eip5JgWQh9KXYfSp9tGwV1WIIPL9qPLwan201lpWAkjAxzVlDkDFVk+7VhPu0wFc8U3eKdIcJmq7HPUZpoCbPGaaTnpVcsw6Hj3pjXBHUkfhSAknVZEKkc1lys0JPcCrUtwxHBGPrWZfGV4mxkn61MnZXKgruxFc6lHFwAWPoOKwbwnJncL/sA96eqyGZ5JmO1FyoPOajuI2ZMylQ2Czeg9q5pSbaO+nBRMO4829l5cj+8fSqrkQZhsl/fMCC/8XWtWVRxswGPOOyD1NQfZ4thKZCk/eycuf6Ckmr6lNXMcQQWwDgEs3BkPJ+ij196EtmuiSqMqAc46nPTNW0s7i5uADynQnH3ff6VofY1CiGCRkUfNNJz83HQVT7is2ZkcMVlbtduN2DtUnop7lR+IqjIkl/OgQhFHOD/M+taepmF5hDEgWJF27MZyfWqzBIY/LDBCFBk9vaplLsCVhZWFv5flgcDC7umOucetWdK1K4iu1RWZ5HOXJ6e1Z0s0c1yisByMDnj0qc3McTZXC7iMkdTUv8Rq17nd21350KLvLEjLEepqSWxiuB0Oetcxo85jhAbgcnJ/Sut06cTRBlORjvTTtuKS5VdGdLpKJHnaOByTVGWwSBlxHncRXUTKGXGeO1RSWkcigEfd7ik2h08TJJXOcNuN4QqBk5NaFtaAHlSR9KtNaoX3lfmA/Kr0CKBwPrxSbexdTENrQZDYxIwbbVxVC4x2pq8UNIqrnIrWOiOGTlMVnCjrWRql8Y/lUkqR2pb7VUA2rnPfmsC8upPO3Rsdp6CspyZ24bDtu7Qz7Q4mO5txJHFWiqMoRQS68j3qi5ABIXLE5FPEpTYy/KVHJNYre7PUcNrFqO5AbbJnHTNWUjUfPC2G67TVKVFlXzYxweG9jUtv94KW+6cj2qlpqZTjdXRolzER6Ht71pWZz8wB+Y8is2B96lMAlTkg1pWoHBQj3q4pXuedW2Mm9RZdRl38YJAIqW2T7NH5j9QDkGrF3CJJ3PRd3zGoZHMx8lckxj06j/GrasLmvFIs2qxGUFcgMcjjj8K1YYyxAQdOtUrC2Z1UFCcDHpiuggttsfBA9hW0NjlqO7sUHXA96j6rVq7TY2e1Vu1WYk1vUsn3arwH5jVhuUpoCCg9KKKRQzoTUlvgyD61GfvGpIOJAaCWXwPailDcUVVxDsCjA9KgtbyK4XKODVnINUIZtpjjipSKjbpQAL0qZCQvHNQKamjfHBoAHY4xUWQ3UgVOxDDkVVlUE8GgAY9aqynKn5uvSlaVgSPwqBnXqRQwRTvLhoE3gj06msS71OaTbtGNxxnNbOotF9nbzOB1rlbgvFKZAVIbhfYVjJu51UlpdouW7LcvsTdtTkkdzTLxXLdE8sclSetXdOV1sfM2LlyQOSKqX0gH7tFBZ+rY6VhJpanXG17GdKUmbMaDYD8zHjPtVbz1klKj5VH5Cn3BkkxBGDtGdw6fjVKRU5ht0LZPBJ+8fUU9EwnpsS/avOZoYpMqOr9CaiW7lEinJCQgkqT1xzzSXEKWyGNDl+p9ao+W2HY5bC/MuMdeKbetjLW2gRT+bIJiMMp3tzuFZ2oTNzlzvPLD3PSp0hlS3LKAuWwFz1GMn+YqBoJizMNuW4z79KLa2Y79GMiZ4iGP8Q/OmLPMcAj5UJyWqzFFKrfdZlPVif5VpQ2cahTsxu5IJo23LT1sixazpKyo52rt2cHvXT2l0La2UBgea5uKCJjtU/N6ntV8EQcq5IAxj3rNau5aSlubo1EyYyR1qx/aa8AsOOtc6k0syHC45x6cU+PzXdYyRzyfoKTTS1DkizpVuEkyd3oTxU5uY4Y/T6d6yUV41znBx+dMl3MBzuwMVKdkZulFuxfn1ZVJwAPZqyr7VQ6kFsLIMAjsaxdZ1B7FlYEkcDmqnnPJIB/C/TPahybOqnQhfQttPLISpJ46H1oTkHOeOeKbtww6g49alSLnLcY6+9ZvzPSSUUPiUOpGP15qRAHye/TBpowzcZyKeuVGdmeaPIhvsWIgsb4YcMPmOO1Nkt2ilYB84+7700TA8Ec1dYCWCOVd2em7Ixx7Yq7Jowb5WLbs0kIVy28MCD0JxWzYMrZI4PesNnO5WUY2+netTT5iZlwRgjmqT1OOvBuN0S3LFZ224KlgCPfNTWNmkJ3dSTkGqdxMEuJSOm8g+xzUlneA7kY4Kngnmtrpas5HCXJodFaqFGSoHtV5ZQBwBWTbXgfAJ+lWxIT7VopX1RytO+o2+YMBiqQOatTnIqp0Jqk7kj4jhqtH7tVE4arY+7VICA9TR1ob7xoFIoa33qkiHziom605AxORSYmaA6UVXDSYoouScfpz3iXCiJzjI+TPFdvaeYbdDIMNjJrD0LTdi73O7ngkV0S4CgdABWqTS1E2m7oDTG6U84qN6AGggGlWQZ6VHjJ600jB5NAEjStg4Bx9arPK27pT2PBO4Cq7yc/ez9KAsNaQE/NVS6ukgiLbs8fKKsOQeM9a5/UYzCWcq5G7IHWs5ysjSEbuxTudQllfEoR0VdzYNZwka7vFA+ZnOAoHSkuPM29cBu/sKveG0ea+Eh4RRkYHt61knc7UlCNjfkhSC2RFPCDB+tYs7K2XxnjacetbV80bRld4596xpY41j8wleOQM9axkyqOzbKJhMKHdgM3XnnFRtFHaxh1Q7mGQeu0fjUiwRu5LuSgO4nB/KoZrobswgsVGB3+laJXdxt9zOlFsSyEyPKVzgVLa2uYnj8hCdpJLN6EVK8zPGSyjPX5Rg4qCO8hjk+dDjJByexqnvZEpWYs8cH2RY4Cu4OSQMdMf/Wpq6eVTzHREUDpgZxTHY2rSooDNjO7OOM9qrtKLtWJlZmxkHdxWd+4rpO5Y2W6kHepU9gelRSXSxtjd9Mc1VZLiIMytlB1WmssckYYAjHWp3epp0ui5a3A37tzFT/erUhaGb5mIIB+asOGNgTgjpkJjtWnBZzNGTGNqYHzY696XKVBu/kbkMcbFVQcDk44pvliKXIY5Jzz2FVLS4aOQRuTkcEkYptxdgSqvJHoOKT7M1S1ua9vM0oOWGB2NTSlUUkY96x7aJ4Loyhy0b849K1FyythwRt+6RSVlEhxadzH1ewW4iD4DAdRVG3tAEVkfvkgHpW+YmVdhGQ3PrVOWNImJX34xUtNrQ6qLsVDHkAA8nmnhAo4bjGKUDnoOPfmplXJ55/ChpnS5DFjJAU8VLGjN8g5Gfyp4Q43DgCnquD35NTaxlKWgjWyN8rAAgdc1JEGjjZcEhTkCpVUYHU/hUsYJJyepp26pmEp6alVmjlG4Ngg9Ks6U5WULk4Y5z6VHdWcRLBTgjnINO0+GYSA7d4Jx9KN1qKTTgwvZQLyZGDBSx3c+9NjbyWjG4nHX3p84SaeaR/lZXII9eaqXNxH5m4cgH+lbS+FEwipJJG7bXKqCD68c1r20u7aM/erk7abdCxDHKgCte1uiGC5z/Smpcpx16Gt0bsqZTNU/4qsw3HnxlTww/Wq7DDmt4O6ucD0AHDCri/dql/EKuRn5a0ERP9402nyDBplIpDG61PADnpUTDip7P7+DSlsDJ9jelFW9oorIixBBCIYgoHT0qTqKdSYrreorDTTGzTyDUb5XJ6ikMjHWgqMk4yKiaUBsUgnGemfxoGI+fQYqlNnBKoPpV57hGUgo2arOyHOaTBHNXWqTW8pQFsd8jj86o3GrzyqVJ4zgFa6G80+Kbe/Bz1yeDXHX9lseRkYh0PYZFYzb7HXBxtdCy3SsApbdkcAV0nh2z+z2TykY8zAC+ij/APX+lcpY2NxLcpls88cc5PA4+ua7yOEWtlFDu4jUDPr61F9GyqkuncoXY86QjBX6HHFZ85yQAAR6f3RVy6frk5wOp71UkZVyWDN7Dp+VcrbvodVNe6kV3RURwQTxj3rNlibJ2jYSORWw4iWEssW5jg9f8+tZ90kj9DtGMYx3roi3uTLsY080gjCybgw5JHpWPPNJuYgE7PQGtmby1Yhhub19RTrZYJfuqDnH40PuYtts5pr28dFBXMkX8OcBl/n+tXtPvrWVhAG5OOMfdPcVrT2UT5cRLntgfpWTe6LtnW5gjKypk5QEBjV3VthpNM1Vt9+AkrHOfzqM2Eiy7icEdNp/nUNlPOsYMpZZAMYx3rTjuldASo5GDzzxWK3aNFZmbCs0c4MyiPbwfeuhtHIiUoOPSohHbzpu4BHU9aligCzqUXchAAFVdW0LirBJAXkZuhPSoQht4DNcIJBjIArSKKgXI3c5PsKp6uy+UTwqheTmovpqaSbSMa48Ww2oCBGZs4HtV201czoZlbaRk47VxOoFBMVVMDOckfeqGO5kYrGjnqOBnmtPZ3jcUJXep6H/AGvLz5km7g9BQryS5LnrzWTpcLmNDIG6citqJTjAOM+tc13ex6HLGMboeEwM84x+tPTGVHSnbQwGBz34pwUBWBAA45pNu12ZuVx2RtORn6UqFj0zUSMcgevIq0gHB24yOalXTM5OyJo1HGT7VIYxuwhOOlNXAIAX8anQKXAxx6g+lUkrnNJsglUtIc8c4q/ZKscZcHG0ZqMxCUlsZOOR70l0otNNlYZGRgfnVRTtczlNSSijLuJUNw5DEiQnIPvVFyxiX5ME4G73zTY9wYhi53NwfQVJcbIy20nGcjHOOK09UdlFWJ4HWMhDn5uuKvWk/wA4Huc1kRMS27PTGavxMqucen/16iV3sFWKOjtJTnIzkDFWWYMcjvWTaykkHOSBzWmpyorejK2jPGqxsxx7GrcR+QVVPSrEJyorpMAk61HUklR0mNCN0qW0bElRnpRE21gaTWgM191FVhcLgUVlYkhF45/hpPtr56Cq+X4xTHDAAmunURaN4xPSpd+6POcVTjAyCaJpvkKL1I4oACd2W71G5Hfj6UySXyhuORVWe+SNRkE5pNmii3sTG7RScyAj6VE95bupUON+DjjtWVczRTqUL7WGQM96zpYZg4zINnU4B/KsnUd7GqpINVupmOxWIAz0NYpYELLLOULdQB1q1cByxHHTrzVKTzGRQvbjn+LiolI1jFJ2Oi8M25kudwyVTLZ9+3866K8crGcdfSqegWf2LSlD/fc5J/lRfzc4Lde1RNtKwW5pW7Fecbzluc9KqEDJVQMdSTVl3fByw2ngcVGwj2lzwRjIyaxiuY6VoitLMkMYVcHqOe9ZU93cSPjaSuTnBNbQkt3QrtDAcgGo5LdppA6FMdACa1imjOTu7HNSwsyZmRRjk/Sqn7q3k/dSfl+NdHdWdwyEMyAnjj0rnrnR7h51VEYBjwetPS1iZLsXIJ3mjZXy3GVfmliuZVby05A7t6Vq6R4ee0ttkrjcwPzKTz0pLzQzuEhICqpAHv705aME3oPhgjvId2yJSc5I/iFZEsRjlkheDAyQCDXQWduqQrGW+mCah1CCCYFWwuBwT1NQzXQw0d7OYrtJU9GzWhb30bY+bDdwx4qhdQxruVHYBhgEnvVW3tBFK0pkLHOQAeKFYaaR0EsvmYABHGSd1Zt7qFvI4t92dgx9KS5vVittsbdvmPpXJ3txKJwUDEjv601G70HKTSsRamVM5CoWAz1OMCmaba/ab6NFBJByT0FQS3Ujck9Tkgj9K6Dw3ZAxCfdncQQPbmtJNxhdjowTnY6KzhKoo6cVdjBzlqjh4wM1ZRBkktxXDruehJiqGUEHApuSSBn9Kk7YDZpmMgMecDipbuZJ3BVIYq2D6VajGACSSOnWoFTdzjnNWYwD9+rjqTJ3ROPTA2464qaIZB470yMIFx049alQYAIPoeaeqOST0J4gSw4xjj61U1+4WG0WEkfPkg59K0YoxgY+tcb4t1HzNTNsGG2JQFx3Peto62MYtc3oUbjUERUjEgDc5Azn86ers8Wd5w5Gc9uKxxGF3ZZh8+R3raQBYYQcH5cg+tE2tj08Pd62JoQ4XgZGOTV62LkcgfSqkalhnnH6VfgAXAb5j7VPQ0qtWNG1dlBHFaEVxgjJ4zWVHgHdwD296s5JZRmhPsebUgpM2QwYAg8VYgrNtp1IEZbkVoQGuyEro82ceV2JJRxUVTyfdqCqYkIelIODSnmkHWgY7caKSilZGZKUIGfQ1FKDjFWG6H8KjlACH1zWrAiQE/d709rfHJPJ/SiJiAPyp7ojfx5/GgCjdxNKhVe/WsW/0+4xjcxA9TXRtsTgDJphWN87jWcomsKnKcXs8shnbuD071PFIcBZPunOPWt+60qKZTsABx0xWDe2ctqCrxHYP4sHisnFo6Y1Eyu8SmNlVFU57d6TT9L+1agiNnywctVSS+RM46HpXS6JEbew+0Sja0i5XPULUaLVmjkuVtGjcSLHHjGBgAVlXMm4rtAGMhifqP8AP4VJeTsyYLDHHOazXn3N5S/Mc8c1zSk3K/QujTe7JJJDuAVs4P4VVllUFtxOcgdKllQ/wsMr1GKglmRMMTtwelVC5u0krlKbfsO2Qx85OP4qz5BeuVaOVwB71dm1GLeSqZb0NV8XVxKoaPC9VwPu1v00OaTuzc0i0muUBvJRJkcgVpLp0KMQGYEnjI6Go9GtJBbbZSSQQVcD36VquhJUMu7HPpmm7OxlKbvYoy3IhYLngdahvmxATjO4ZUD61X1q1kYJJBnK/wAPrUtkz3duVmQqwz+RpNJ7lR7mI15LHcbOCQMhfas+8uJiCd3C5JGe9braOzXK55IzkkdqkTR/OLKx4zu4/lUuNtjRyurHIETzjeM4U8tmnSu0SquSXY8Zro30XyYHUEAlt3uDVFdFaUuwzuAxnGce9LVrbQWt7mC6zTEgHepHJY1BHp0kzFtgYnpu6Cu007wxuGZW4J+7k1pT6CqxCKFQAOcYpp6A5RvqzzG5scAxrEpZRu6f/WrpNEg22sWEwMdMVtDw0Ecu+cnrx2pBbpauVXt2A6VMm3GzOqjJdNxqoQQAOffipgAcgH61H5wIwefSmtMeg7Dr61ztqJ02ciVWAIGe36Uo5HDcYxVfzN5AxU6MFC7Vzii6bQONiWJ8AKRyP1qwhAHJqDHy5JYHrViL5iVbjPtRpujGexcVQwBA6DFSRpjHPWoAMKMHP41YiALYB6Gmr3OSehYaQQWjzMQERSWP4V5re38ck7TKDI7sWBI711vjW/ay0Dy0kAkuHCAH05zXnMcJYoF69yK3grr0Kw8HJ7bmjahrh95wcnJC9P5VuxR5RCccLj6Vn2VtsQAZyCeRWuikEAEE44qJSuz1eVQjYkhAYDJz9KuxoQRxke5qO3jPTOCKuLF8ikr16YpaHJUmOCsgGf8A9VOGdwz09qkWMEY3HjoTTdoGQFPXFNJI5b3epNasQ5JyecVsW7Z/CsaFSHwRjPIxxWpZsST06VtTepy111LzjK1XqweUqA9a6mciCm96dTf4qRQ8DjpRT1jYqDRQRdDyR830qKTkGnscde4qGRjgc9q0ZKGrnFDOeh4pqrn3p/lpjAyKRRVmnVDjcAfes2fUWRyI2284PetaW2hc5KZPvzWZd6fGEZlRsg5FZSutTWEo9ShJrE2AVckE/lVefXbl02HBjI5BHNMu1MEirtOwjBHv+dU9m5yyhcKOPeocnax08kXsOsrI6lqEahCEB3uc9s11F3IscXlovyKuNoHTAxVTR7b7LYGV/wDWy8kYxgDpVe+uOCNwBIIH1rnqzsrFwp800lsVLiVjzvwM1BA+6QEHC56ioCxf5T69qmQNjC9B7VhF62PT5VGNiaVmdm2qcDvmqMsP2h9rde5wMCteGJirL0JHHFOj0zOCflIPX1rWCd9TlnUS0M+x0qJpd6oDjpjoBW/bWNnEQ6pvboxqJFMfMahe2PWpXuDAvQH6Cul7aHHJ82qLQcqSqgYxgAetSL23DAPQ1lxWt1OOH8tc5z61oJEIUIlkDEHqahd+hjJEht0cgkEjOacsMaNlUAJp6MpQYOcDqKa8iDhmGfTNaaXuZ3lsI0YI6YqnM0MMj4IB6nirF1L5cRbdtz0rlbrVN9z9nQMzucYrFtuVjopQvuzXmkjnUZYZxg4oR4BH5Y+VgfmxUZVd8aEBc44PFRvaRmcsWHznOM1Op0pK1jQtrlCxVBuA61fQhxnoKzbaGO3QEdM4q8kyBRtI9qcdHqctRa6EsiDYciudurfymLkkn6V0e5W9CD71BdWqyxkbVz64ptX1Q6NTkepyLlRyeMdcUhcuPXHSrt5YSRvkKQKpBH2k7cKemK5Zx1sz2oTjJXTEAIbgcH+E1MCyDjqKQJsw+0k4xUyLuXdjrSjzP5Dk0SQu0g5FW1BaTDA5x1NQRgAjHWraL6fX6ihbaHNN9iUDbznIPap4VzJng5HpUA3blHHrVuIhUaRuFUZarjqcktjhPHepedqsNrC2fIX5lHZjWVp9u2N7KNxHT0qK4k+26tcXDAN5kjY+meP5VrW0ZbCkYA64rSUrKyPVw9NQgmWoUDdyT71pW8RIB5yfSoLeHCg471pRIqJwOgFRFdWTWmSQIFJyKtomUHGMUyBd3arQQ7cjbn0/GqtdnmzlqCIoHTnHINRqrFssD17mpxnk9+lKqMOQOcVaTMua25GWwmNnI4NXrQYxiqphLZIAG7rVyFdgUVvCNmZVZKxd6rUJHJqZfu1E/wB41uzmQ2kPWlpD1pFF2Ijy1+lFQJJhAM0UyLELbj1qMqfWrDZXgjoajfGKtiIMlep/Kmm4VBuZuBUhAqN4gwIzjOKl3toUrEZv4tpbfnHpTBq1ttO6UDHY5qhd6e8YJjbGORWPcJMOGOfas3NrdG8KaZs32pWEoG9+OuStZ9otvfaiIo0ARmydoxwB/wDWrCuXYrsBY444rofCll9ms5LyTO6Y4QnuuP8AGs3NPU0StezL17Icsij5RjH5Vz91MzycfWta9l+VvQn8elYsrAMSeWPauCpe9mejh42VxuE3bgBgDsOtWLRiWXOQOw9apkui4XBOau2W1XMjtkgcegpRdmdNT4TZT7gwRuB5oLjIGeMdziq6XXBUH52GPxqIzneMHMeM59664NWPMlCRaMnlqDnOe/ahPMmZVWP5epc9qqx77u5CKTtXnBFbkUYQYKjgfhWnKYyfKrDkjKjO4Yx0xUPlJLN94kk9M1Zkzs449qZGgiXzHP3R1ptPpsYp6CuyQx4ACj2qqpBPnPgKuPmrOvbya8uxDakopwS57CqesXxs1TT7fLSS8AH+dS/M1ULK76kHiHxDEkrQRt5jpycjjFUNKVmk+1OoXr5eRznFZWpW5Vot7EvI+WK9O3H+fSuiiiH2N3c4IU4GelJRu7m0bbGhdyia0fyWUlRjPcVU3OSkzS7gMjBPesmXUJYA8wOFdcIPXPGKq2OoMJSCxXqWD9BnpU2Tb1GpJHYWmoGVhGcAjv2q5LmSHdDjeMDHrXNwzraoGAKbnJJPpgD+ea07S+AxlgpHcn71Ela7E0m7ouwXDK2DkPn5uK1IZlk6EMfcVzVw8rys8bKyepOM1oWNweNzINvuaI6ImpTTV0aN+A1u+e44rl5mk3tsBUDua6sOjjGQc1RuNMaVspg5qZRcnoVhqqp6SOdiLgAs2asxKuDjkH9KuzaaLYAuM/Sq77OFTt1rJQcdzv8AaKexPGB7VOpQMF56VVhBHJGDUy5DZ27qSVjKSLBGTkdBxml1ZjD4fu3jBLeXgAep/wD10incwAwKkvYvO0uWLgllA6+4NNS1sc/20n3PPdO0zy8M/wArsD+Aret7fA4zgdasR2CxkZX/APXVtYgrA4PHWmrPVnpSqrlsiKKMZHBJ9KuRIgcAjp1pY12nAA5Oc+1TKe7cD2p+hxTlzEigLgjkZqVSO+OfeoWYbcYPHvTomUqSOSOtDujnktLllE+bdnA9KehO4Anmo4nycdxUqgckkjtWsbX1MZEiqN2e1SDhhTQMAUvcV1RWhzt3ZcjIK1E4+apIulMl4aq6CQykal60jUhig0UlFO4iRj1/rTGxycVIckfhUbCrZBH8uaeIgy5H86jbim5YdDg0hiS27YPPNZOoQRBMvGqsSPmA7VfuL8xPtYg1lXerBztVBkH1rKVmtDanzdDCMKzXiQxAMXYAduprqpUS0sUt0bmMAD39f51n6HB59w99JHjYPkPbPep76crIdwxkcVhNpKx0pOckjOvpgTtQYY89fass5wctuJq1cuWJb2546VXVSzAIv1Jrjm7u56tNcsRbeLz35JXn86uyKsQVB2qWCPyoy2Px9KqTvuc5PXOMUXS06iUnKXkNRi0rEORngc1NuCrJCRu2gfN/n61UDqrdACeuKryXEi7lUfM/QDk+9bwutGTUj2Oj0uSJA0m/fnqxrRtWadjIWOMnAz71z9pcf8skzkpkeo9eK6CwkBg2LhnXG/Hb1roTueXVi0rssgbpPcc1DqL4tio/i4NWSDgnviqN24C5I5AwAe9Nu2hzx3uUFjGn2DyHPmMDg+n+eawkhlu1mv3yzg4Qk5wOma1vEbO8cVpGOXxuI7danMK2Om20AAIwDKfUUraHQn1ZiHT0lkwTlYoxjPXJrN1zxFa2qi1iAdlXaQOhI6/zrR13Uo9Ks5GVS0jj7o7V58kMt5fxmUNmY7voDTVm9dCm+xrTyzSs+CzLnaBnpxkfrTlieC9ZRyZVBAbmtEWois0Z05OB069sfpQ11b/boJ5FBKDgg9QQanRNsTi/mWFm3LAGmPyEZQir1vJFE2ZcfNnGBmsjW7mO3mMcCEb16/XpUFlcSXNux3K0kfGz1Hv60tXrYtNo6O3cThirkqDgkVchhkSTJJYdQc1iabKjSgEMrHjr244rdgxG2ecMcdanY1umjVtpQp5GBWjHIrYK96zEAkB2nd6Yp2bqJfkCuegGKE7HNOHMXruLz4sBR171iSWyxy4yWHtWjBeTt8syBOlF5HlMqoUckmlNc2xpSk4PlMwoc5VjgVNGwJZWqJpWL/LjA7etL54ZugJI7Vjqnax1tNosq6l8ZHTA4q0GBjKZznis9f8AWDgAEdjVyDkg5zSStqYTj1K7wkEqCc5ppQgEYGau3CDcrngEVBKFA3EDbihxCM72GxjbyxPHFODfNnqB+tV2di33h14pUkx6H8aLpFuL3LH8OBk5PX0qWJMDGW5FQIxOeB1q1GSACvJo1asZS0RKsfII7Dmrtlam4lyfup96oIImkYIoyW44rdgt1t4gi9epPrW0E9LnJUkZ12Ns2AMDHFQ1av1xJmq2OK64vQwLER4pJutEJ4xSyiq6AR0jdKBSnpSKG0UlFMCZQSgPtTWJ9O1LGSIx9TSMe3pWjMyEnBOajaZR+FTMOc5pohV+CfrUalKxlXjwTLtzu59Kw7m3QPvUHB/rXRX1qkUZdMAr1rM0qH7bfGVwWSLk56E1lJa6HVTelzViiFlYhFyQBlqxr2Ul+Cchycj0/wAmtbUZWWPaACD7VhTMGyf7vt0/xrkqtOR04aOvMyk58wnnuOfWrNtC24EDpyaYsYJyRznvV9VRIsjqRnd/SslG52zlpZENxLhdqngCs2RsZweAasXD4GAcjGBWfMxbp+VZttM0ox0I3k2vnlMckVSa5EUhkxyc5wenFSS5AyxxxworGvHG47lKqDtHua1jJto0nE07TXAb0DdmRvlx2ru/DPFo7Ox8yRyWye9eaaJaEXPnsd3ULx3rvNKuPs6o2Su47ce9dMZpNHBXpOUXY6kjioHjzIpYAhc4z+FSQ3CTpvQ8U/GfQ10NXPIs4uzMq4tg0wJz8zD8P8/0qDXZ4bOxO/7oAUDHXkBf1rWkRd4YjhRnNcfqcz6triW0asY4/nY549v5Vm72sbxle3kc7qMNzql88kpwC+Rjpjnp+FS2FnGtzJsQkpwB0wK6f7AiWznAztJHHPJrGtHjS4kRQAqfOxJ5OByP5VDZpsR6mUhsGtwdzKxGcDvyaxX3NBHuAVCCMjrtwf6ilv72W4vo4on4YbmB9c/y5FEqAyoFIIaNt+O+QcfyFWrLcL3Ysge5to5cAMnD/ToKbboba6Hlt8zgjngZBqGG7zA2cggBTn1ou3f7MCnVkJwfbqRQnZO5f5Gjayu0xDSZfccg/wBa14rrOwoxfPD+3tXOxMjmO4VCM4DAfTrWzZecZd4XKO2cY+tZy90cWdTp84ZAGIPcVqxOCnI6d6wAWgUEDJByU9jWnaylhnB24yB7UhVI31Rae2XJdTz2Oal8svAQ3XFVHLxEMrFl61cguBIPmDA+9NWuYyTVmZ5hxJhkwOmcVDJEFcnAz1rcdU27iM/hWXcufMIVaU0dFOq27EAADZOAalRtuBuzkYqBi24EDFP3kkFjke1YpJG0ldFmVi8eAehqB3HlgHByKN2MNnI6mo2Ibrk47Um22RGNhjgAgk5xxinrg9gKYVyh4/8ArU5Rnv1qVbc0exMpEZyASM1dh9dvI+8apgfMVBBz0rZ0ez8+fcw/dp1961hroupz1HZGjptr5cfmsPmPA+lX8MakAVRjAHYUhcAV1xhZWOBu5l6iuMHFUh0rR1A7krOHStErEk0NPlHFRQnmppPu0B1IaOooopFDaKD1ooAFJK8HvQzHOaajBQc015OvarbIsI8m3sTmqr3TYyMdadI27LKR8tZ0t0VByuRznFZSk+hvCFyO8ne4cx+YxJ/hHc1rWVslnapGBhiMsfU1l6SjXF6XZTsjGQSOrHp/OtmQ/nWeqVy5ae6jO1GYZCjJJGOnrWTJgD5huK9cd6u3kv70hM9ckgVRKbmBJwoOOf51yS1bPQox5Yk1uDwwTHf/AHqSXnJY/KOgFABXBz/rQQoHp7+lRXJO0egpc11Yu15FSZss3Bz6VTfCZHGTz9KuSOck9z2zVWUbkJJHXmsGnudkNCjccAvjccZArIljaVjJk8evSteb5gFByMfeqtJb72CFeMVUZW1KkTaSnlYB68mtSKZdyLjAjO7rVOBSuQuAVU8H/PtS+aFnzuOdpx6GrjK7sZSi2jo9PvHto0Vz1HX61s296slv5mRxwOK4yS4QzJwMDnIHbitrR5laByz5AIbPsM11wld7nnVqKtc37jcbaQry2w4/Ksq3sI4BM7KczMAPfitGC5S4WVQw4JXHpx/9eorlSsttGvY5/IVs9ThV1oZurz/ZrBEG1JHbbgD2NcvLa/Z7SdgNxfIB9PWun1O3e7jYgZ2E7VzXPamj2dkI85aRWB474Xr+X86zlvobpaHMtGPtkkzHIaIFM9sBR/OpryMw2i4B3EKeP4cj/wCsatWli7Ro75G2Pa5K8gnBFOurdpLcFgQ0ijJz0xmq0a1GtrGTPAQsqJt+8sn4Ac1Oi+bbRn5S2D+valUFllPzMxUoOO2asWVlIiFcYIUgdqWt7hq3oPs4iqgg5OcEZPr9a6WxtY/J3q2GXtVWz0wxxqxUYLZz+tWLVJPMIkJ2u3IPXnNZSepqlZFmW4DptXDMCOKfYzyhgAOp6Gq9pYN9oZmILDKk+2ODVqC1nEzpJEoZcFXHfmm5dhu2xeEp3BGdunynJq9aI3ylj09qiFr5qq44ZeDxV2JCoAbtTjB9TlqSVrIJYmZPlJzWdJC6Nk8VsgcVXuoi4BGAAeaqcHuiac7OxkuScZBHFRh1UgAdDVxkXJZh0P4VTkUAj2HGK53dnbCXNoTDAwcc+vWmP8zEKfmz96kRtq5IOO9GckOvfrWXkOzTFAymR1zg/WliQlhxTgo6tkKT1zj/ACasww5wQCfbNXGyRMpWRYs7VppAvdj+ldJDEltEIowAo7+tVrC1+zxbnAEjfpVs13Uqairs8+c3JgWpCaKTFamZWvBlDWcOladyuYzWYO9AD4jhqsOMpVZOHqy33KQEFFKRzRSKGGinYooAhAzSPGGGD+lO3AMaGmRPvMBVWJTK8luuPlLAn0rJvoQsZHQ9Mk960LrUoohhWyT0NZttMLu9WEKcsTuY+grKW5vC61NXTrY2trtflyck1LM2F/Hr6VKR6dKq3TnGwZ9+Kib0BO8rmRdbQSBx6HNVchgAw+6OTVqdwrbmA46Cq2QZACeT1OetcttdD1IfCSqgVd7cZ4PvVaYDHyknB/h9KmdSG2pyoOFxzVVmLMyZIZcA44zUPUuC1I3weAA3A71WlJK4C9Pep23EEnACntVeQhTnf6ZqZK2h1RKsi4PykcDpUeGyDgDdgjmpHHzZLbqYQSCWIyOKzsy9R8bAK2772OtNX7rOQDnOB61DvKt9ORjvSBmL7gcnpWkSWtCQsTIrFeCNuKv2MzLbTDLfNgDacdKy0fnnPGe9Pt5fLxF8zDHJzVxbTMZxVrI7DQ5szSSMcqeAD+VbRRZCrkDcuSK5TR58x5LAZf7ufYAfrXRWLs7uT068+mK64O+jPKxELO6K90THauwTL5Uf1rEvLaSeBJJBgp8yjOc+tdNNGXgCgfMzgnioZNPAgwQXbBGKXVmUZ2Oc+x7EO/CmSTC5z/jUF9Yl4t8bAEfIT6D/ACa6aXTFdt4JVgBjPQd6kTSYjAFkGckk/U07O+hs6sbanHWmkk+ZhDt+8D7cVsW+iACL5AOOcnrXRJaxx8gDGAPrikkUs4RRjHX2pO9yPa9EjKuYBHaxwxnB3DOByOKkt7AK4xk/LjmrHlNJO5IJHAH1FW0hO7J7im0mhyqWVytDZ7ZN3GCOatJbKrMc8k5FSgAdB+dOAqlBMwdRtiIoXOB1p4FGMUorRLQzFFDrvUj2oFOHShq6sUtDOkt3UYxuFUZImVixUj8eK2ZVz3xn9Kz5gCNjdDkZrmnGx00psp4Kqd1OwCpXt1pWUFm3Hp+VLEnmAgjBrJR0sdLelxIxuOHJIyCCK3dKthNLub7iYI9zVCGDaeMY9K6SztxBbquME8mtacLy1WxyVp9ET/hSUuKMV1nIJxRilxRTAimXKH6VkEYcj3racZU1jSjErD3oAReGq11Wqo6irSfdoAiI5pKc/wB6m1JQUUUUAUZpvK4HJrKurkkuWBIxwPxrSniMjDjAIxTGs4o4znJPvUvmexcXFbnOySFmO5GAHTmtXw5Ao86Y8nOB7ZqRLCF2YnJA56Vo2lvHbRERptUnJpKNncuU9GSOeDis+6ZsHbx2Oe1X5GwhIHNZc7EbySAeBisaj11HSV2Z87q7liAT0GT+FRNgZIADKO4/WnS8MXUZCj9ar7m24bliKwuraHqxjpoTB/LRSCSFGT71VMrsW3cHPHvROWJVFPfLYPbpTGfc5CYAXIOfes5O70NYxsMlwu5APu4NVGYry5Az+NWJZFkZnDADP51VlYnBJP8AhURdnqbwQ3eCckZVRzUMmMFWXBPvT9/Qjr+lQT+Y8RYHB7Y5pt6lS7IVkUgMRz9aZ5g645U80KCiAFuo70jqWbKN+HrS63JehGyYIAB/3qcrEhSWIzUW84IU5U9BSDHc4wev4U07u7IlqrmzpbqkhJ6L2H8RzXZ6Q7GEGQDLEHI9MVxumulvIJHG7ehwDzzW1HfNBGC7Yxg46Y4rrpNJXZw16TmtDp1U+YTxjsPen4zVWyuTcK0nBXPFXBgrkV0xtJHlSTi7MYVyMUpGFxTqQ807WJGYzg9vSgoDkevenYpKTQ79hgQBvbrUgGKQDkZpTSXcbDFKKQcf/XoFO5I7rigUD0pQKoBR0pwpopwoGRyqSKoSA5Kv/wB9VoyfdNZc7bZAc5U1hV01NqW5BMg2dCT/ADpqFlcOvXHIp6gBtpI7t+FCrtcK3O4cYrB2a0OtPSxsabH9qljBx6mugOOwrP0O3VY2lxznaPw61pMOa66aajqefN3bsMopcUlaGYUlLRTAa33ax7gYnNbLdKybwYmzQJkHcVaj+7VX3qzFytIBsg+am0+Qc0ykykLRRRQMglChh7VDLKiLl2A4p8gA5P8AOqV5PEI2HHTrmiTaWgRTZDPeJnCKFHTdWqgIiQHqFAP1rmoXEt9CoUkbgckfgf5V0zcc9qSa5TWaSsQSv1XHbk+lYt1MJWOH47Cr99IVhkAPJ44rEdmjJ2nvjJ6muOUk2dmHp9QmkLqfmwq+n1quzqUJ5LEjFEgZyBng9BUMgyxXcDxgAGsdWehGNlYHOFypzk4pjyKnykAYz+NI0hLouRtXIyKrl081mPTnAqXe9zZRHOfkA245Bqs8g+bPIOCKVkMn70vznvxUcmSyhGBx9aTuyla2gOw3bB1xTWkGzbgYPHBpm1jI2GAHYGlJdcjK/UCpbuVqRs+4FMcA9ajO5STgEA5qbGG5IJ9ajL/NjoDxyaatexOvUiBBkK4JPTINOBTIGT6EEnP160u5ySvJJznjFA3OMEdRggVVrMTs1YteeIwsrfMQcIDUktyZIiSw+Zgc57VnP5nCr97BP1H9KtIB5aLnG3AH4j/69XzaWMrNM7nTLhSIIA+MpuP6f41Yl1eO3fZjJ3FeD0Arm9MujBfbgo2iLaM9x/kUyK4NxqSQyNwGAx7d/rW6qWscUsNeTud2jB0VueRn6U41l6RffaGkRyd4OQPatUiupNNXPMqRcJWYzrSZFLik4zSIBaTvS54IFNVfU0m3YA6e/NOzSd6O1TFsY/vSimA08CrQCinCminCqASTG05rLuFMjAkgFScAVpScD0rMulIzIMEj3rGqrm1HcrmQB+2B29qsRBSNw6jpVBzufIGK1dKIe4jV8Fd4BrK3Q6qi5Y3Op0+Ew2MSHrt5+pqwRTgABgdqDXWlZWPNerIiMU2pGFMNMQlFFNzTAVulZd+P3grSJrPvxnBoBlPtViH7tVx0qeA8UCHSDpUdSydKipMpC0UUUhlC6ZEjLORisiYFuVb5P51uSQJIPnGfamBIY0+YKAtDi2VGVtjK0qAtebmxtVc1syHCn2FVrJ4ZLiaSEcLhSe1S3JIjJHbk/Sol7sbFX5pGZqEoZgq/w8n3x/8ArrIkbG0HJfJ/CrtzKGQhRyT1P8qozMQpRTk/xcdK4ZM9SirKxWnJI+UdvWoSvlAB2xx93HNPmkVXwrHI4AFQOFMgVlyeCTmsm76Hao6A75OUO0HI/CqxLLkdQO1PLnLM/ToBjFRF1UFQT+VTzdzVW5RXdvLOQcD+EH2qMkZLcKD05pfMyTg9ulRMB7Ywe/I/SknoL0G7sOAp3Dk09ju+XG3OePSoVizyGwQOT3pXYq6qwI2jPB6079Rp2Q9uo+UccCmFQTyMA9KMZGdh59DTXZly2AT29OKajZBe+g1UUufmLDkZ6UuMsEHbqBQHySFZdwXuMZoOSuQ3zAZP+fwqrXBrqOTHTLBgMA0Zxj5jx1X6U1Wd0ywwB6E058hCyoeORg0NWE0ty9HOEjLklclQAPpUlrMBfo4GSxyOelUVlZrZcKoIIJH4Yqe2mKyrwMqcUXS0E1vc3tFleC/DliACc89RXZI6um4Hg155BOFiaQH25NdboOopdW4h3fvIwPxrtoyVrHlY2k7c6NY00jHNPpp5reS0PMGZ60o4UmkAweTxig9OtQtBgDuY+1OUEdTTVwM804HrQrABFOXOaQc04VXoAopwFNFO6CmIgunVYiGPUc1lZ2ghWLJ2JrQu2jmVoWPOOPrWIVlt32tyPbpWVR7HZQjdXJSQsmGXvg55zWtZKsah1HAINZ0SJNtZhnvWlGAsWB6VjFJdR1paWOsjbfGreoBp1QWb77SFvVRU9diehwiEUxlqSmsKAIDSVI4qImmAtUr0ZTNWSwHeqt26lDTEyiOlSw9aiXuKfCfmpCJ3HGaiqZvu1D3oY0LRRRSKK8mMFVJas6S0mkZv4lPQcVrMoXPFVppEhUs34Yq+ooXTGadD5Fng9WJJ4qLUJSkZGcJjDZ61cUhYh6YzWRqWXZhk9sVzV3ZWOikrz1M+SZGIIGQo4FUZXJUhBgZySO9TzbDFgAk9M9KqysT90EAdK4ZNWsj2KcUQuoB3FenQ+/WqzkhmJ6seB7VLOGKjpmoWz8jP94nNZp3VzqihrsGGX69cVAZIwecflT3bliecelQSMwGdoOT+WKl6alq19Q3KAdmB7n0qJS237wY5yNp7Ukm0Y2jt09RTxgKSMj0FNpWRK3sLkYwowMccCmGUmUuz7hjj6UqZyRjH17UjsiAKQRnvimkPbREisqrzn155pjsWzxgZx0/WkCgvnc1DgO/cgDj3pp6ieuoq+XzkLnHPNCqgOUPGOM0MqqNwBA70pVcAjAoT1Fa7GsQGzuKr1xT1xs+9z708LyBjikaNXIIQs2Ou2pbK8hqFg2M5GOeKliPln5Pm77R1qJYxvJXIbP4VLHgv0IYU21uxxS3ZLGAoCAnHetjSZzayCUHOeuPSspCmQMYzjkLVpWBO0Daoq4yadyKkOaLTR3ltcJcRCSMgjODz3qQ9K5Sx1Q2Y2rlhjp+VdHBeRyQh2IXp3r0Yzi0fP1sPKD02JCMEj9aU42/WoIbyO4lKoeO1WNoHX8KLdjBxcdxuOmO9KWwCaMAflSMu+PBpWsIcnTmpBUacLgnJqQVcdgHDriobi4WJc06WURgZrGvLrdMy4yG4+lTOaijWlScmPuWIYjdwTkVAkxJHmjge1VvNyuCxO08fhTgd2CfXBrlc2z0FT5UXYnCkDGR7VfhlBAA79qy4X5x6CrsPUDOTmlF66GFSK3Oq0kk2K59wKu1R0o4sV/2skVdzXbH4Tz3uBNNZhjrSnOKiZCe9UAjuAKrSSknipzCTULQHNTqK5WZiT1NQy5KnmrLQtUMkTYNNXEVQeadGfnpvRjSofmqhls8rUPepRytRHrQwQYooopFDZeh+lYpUTXoWT5l3dDRRTluOluachIGBWbqXSP360UVy1jej8ZisB5u3tsJxVKc43e1FFcktz2YFKVjvAz6VDcEhlGe9FFZHURYAXj1pigGUDsSc/rRRSewMiUZjDn72cZ9qliGZCD0yKKKtma2Gx8yjPcc1DGxDMOwBoooWw5E0iLuTjtShR5gGOKKKJDluOVQSQRxmnSIoU4UdaKKb+EpbAqgRZA5xSqTu/A/yooqX8JbHRgZP0pknyMSvHNFFRIZaj++KlXvRRVIUtySM/MfqP6VqTOywoFYgYNFFdcNn6HBX6CwSPGCUYgit+2kcwRksSSOaKK6Y/Cebityz2NKOlFFOJxsgmdlmABwMf41Pk4ooqkNmXqkjiJSGP3v6GqN0xJJJ5yKKK5a256FDZFXPLVKv+sx23UUVnI62WICcirtuT5lFFEdmctU6iwJFlDj+4Ktox9aKK7YfCjzHuSZNISaKK0AaSajYmiigBhpkgGw0UU0SzKb77UL94UUUCLa/dqJvvUUUPYaCiiikUf/Z;" parent="1" vertex="1">
          <mxGeometry x="130" y="542" width="89.65" height="111" as="geometry" />
        </mxCell>
        <mxCell id="rmZsoPK5EU8ZM_AE0ZiV-40" value="" style="shape=image;aspect=fixed;image=data:image/jpg,/9j/4AAQSkZJRgABAQAAAQABAAD/2wBDAAoHBwgHBgoICAgLCgoLDhgQDg0NDh0VFhEYIx8lJCIfIiEmKzcvJik0KSEiMEExNDk7Pj4+JS5ESUM8SDc9Pjv/2wBDAQoLCw4NDhwQEBw7KCIoOzs7Ozs7Ozs7Ozs7Ozs7Ozs7Ozs7Ozs7Ozs7Ozs7Ozs7Ozs7Ozs7Ozs7Ozs7Ozs7Ozv/wAARCAFoAa8DASIAAhEBAxEB/8QAHwAAAQUBAQEBAQEAAAAAAAAAAAECAwQFBgcICQoL/8QAtRAAAgEDAwIEAwUFBAQAAAF9AQIDAAQRBRIhMUEGE1FhByJxFDKBkaEII0KxwRVS0fAkM2JyggkKFhcYGRolJicoKSo0NTY3ODk6Q0RFRkdISUpTVFVWV1hZWmNkZWZnaGlqc3R1dnd4eXqDhIWGh4iJipKTlJWWl5iZmqKjpKWmp6ipqrKztLW2t7i5usLDxMXGx8jJytLT1NXW19jZ2uHi4+Tl5ufo6erx8vP09fb3+Pn6/8QAHwEAAwEBAQEBAQEBAQAAAAAAAAECAwQFBgcICQoL/8QAtREAAgECBAQDBAcFBAQAAQJ3AAECAxEEBSExBhJBUQdhcRMiMoEIFEKRobHBCSMzUvAVYnLRChYkNOEl8RcYGRomJygpKjU2Nzg5OkNERUZHSElKU1RVVldYWVpjZGVmZ2hpanN0dXZ3eHl6goOEhYaHiImKkpOUlZaXmJmaoqOkpaanqKmqsrO0tba3uLm6wsPExcbHyMnK0tPU1dbX2Nna4uPk5ebn6Onq8vP09fb3+Pn6/9oADAMBAAIRAxEAPwDnAuy4w7fIoIHqfSrAR/OjmAC/vV+XGOc02zmMtxuPQELk9vSrkBR9Vtoll3fvQzrjuDj+VebBbCW2hJ4jfOpzeyCuctHYW8jj7wUkfWtrXmzrN4uc4H9KwYCTpsxUfMUIAHJ6U/tyMo7F3Rr21vr63kc+VdQupEmMbhnkfT9azdcguLHXp4I0KfvCwkPQDORg1TS0uLby5riJ0w48kEEFm6/Wut1SW11K9+wXMbk3EKTKwHIyvOD65rq0NmuR3Ra12IX4gulGWG1/Y8davausb6DLESdsiKoI64qtOUt7e3hzuAjChvUYrUuIY3s1tn48z5FJ7Njj9acVq7GE9kct4ngIIvF5MUIQ59zwf51Daxfa9K+z+YDPbgMhHAHH8q1tVvIbW+ihvV3QXCeTIh7DPWuckt38NamWmmLwrKGEnZ42GKzjsbJKUHYs2su+2lgnTCP8sq9TG/8AeFVNEu5NK1Z7OX7gbhuxHqKualDHY3X9oof3bgLMB0ZT0aotStPMRbiNsPD8xPXen+Iq1oZLszbcKLmaGUfI7fhz0NQ6F50E93ot1lkGZIJDyME9KlaRJ4LefrvjGfcd6D5gQSod00DdT/Euf8Ka2M9izoUP2WPUiD/qSpZT1U/4dxVbU7ZG1CO4RtqzDcGHIb1H17ity2it5dP1W8xt8y0xIR1+Un/69YtiHl0yW1eQB4GBhlxnhuh/OpavIq2lyvLZRXataSOA0g+Un17VmaXK1pqkmmTRFfNUYJ6BwOlX7hmiCTS/I+dsmOQG/wAKsMovdlwCFu0xkjo4zxVyquVlLobQinBmTH5dhqiJjbDL88Tdg+cFa1IrpvOiEn3mbax7Z7fnUN7aJciS3PyLP80bd0fv+tVoHlaA+eubi2wsyj+IZ4YVKZnJPqLe27GeTZwwnLEAZypUf1FNttNVH3rDn+IMxzzV7WYGns5nhBLEq2VJU4xXNwb1/cynhjuQ+9Jxb6iSbR0ZaTBSWMqvbYD/AExV7W4J9QsbK+hKZUbZFePOR/Mc1iov2q3IYfOO/vW9oJH9jf2ZP8sn2cucdhkjNFktiUrMzNR8x7S2uzG/mL8sjRHaykd/SrTSR61pUUxIuShMUyyDBPp9DjPNQWF3IxuLGdi8sS7geNxxU1lFDdR3MMb7WnXduT5WDryOOnqKpCbtuLo2myaRqEdxGSbaMmQZ6hFRmIP4hayry0aeKG7gIDxHLRjoCRyK6bTy40q5t7mQuTblQ+ME7zj88Cua+wXmmtKZT58Mjbg49O4Poah3vc2jK5HHcSQ79hx/ERjI/Kt7SruObT7ma8iyQVhLLwSDzwfT2Nc7IiI2VbI6H6GtliItDs0GQ08jSH044x/M0numh2tdFTVYILWaS5t7kuJSN0LxkEj69KrRwhlVo2+VMsre3dTT5LmT+1vsrR+fDIpUp0wfXPaprVYJpmtrCWNiTh4y+CT/ALPrU76FcraTLNpJG1oqsdu9DlfQ8f41NZ6m9s8ymJAGG2aIg+WfRh6Hv9aqGDyJTCvDKSpz2yAKRpPNhDhvlPySsPasJxUk11Qr2ZHrKzpfSiIgCXDKW6dKlWGS40YQzo6TRZwOhGKtXxItI3mWOSGVApcdUYdx6Co7S6dw8d1cPI648vcM/LjB5+lKMry2JtbQXSLuZrNmVAXiYBmHPGeavXksYiXExt43+ZVBLLvzncO4/CsdpTax3e0PG6srMU43DPX8utaCXiIqvFGkpjVmVHG4DHUfXBBH0qZLdmiegXeo6rrERiuL0RrENzCU7CeOpz36U8w2stm5MnlTRBWQu+C/GMKo5P14AqrKb2+vI9QnujcTPIFY8ZCgcMB6Vq2Fr9rvpYdPhSN5QdzTuDjA+bBPY9aV7O6IsTaRqlzbsGik2Txjg4yCPcVuWl/bXNw95fPHc3XHzTHy4Yxn06sfoKxxZ2Ftaky3Ur6iTiGCKPOTnv7frWjpOlX0l88MbRWdwoVyJowZvX5cjitJe8lLqiUmnY37y7sxGDcRXF6udqRlDFD1/hX+L9ar/ZNc1K1lt0treytSpUKVwxGc9O36VrQXNjZRJIIpJrt0DEE+ZL+J7U3F9eX7Fne1iMQYxqQzMPr2pzlG91q/I2SucRfQRvZrPcXBkkY7WjH3gP8A9dTaOlva301tPapcqy7o84zjPc4zx3Aq/rtpHYy3MAjAiZRMncjIx1/3hWdePN5UcyptlifccAg5xz+Y5q/Z8ysxctjpLi+P2axk8pEKXqqiRrgbcYP8xVe/0hNS1B4/MKF0Ekcuzkkeo9apm5e/0ovHG4MSGUMuSA2c/geK2dPklliibAUljwCM7CMlvwOfzpSSVktxtJmHpt3e3Ch5GKxiUIzJwFOe47eoq3bOj6lIpuPMXhQT1IzUckDaLftPvzbN5YnBBA5Pyv8AhVR75INTMlrCOG3AsS2Tnr9KuL0ugjodHqLOIoo4f4yEBHHCtu/pUukyBprm6clFbaRnkHHy/wA6y0vpJobB5m5aSQuARwMf/XpXuXsoFtY0yVRZpmyeMnOPpzTbaSG2hNSnka7mWYBjaFQ5HRgVz0+tXheHT5LdBFKbdrdGXylJ2nHOax9c1SdLi4teSsgGCX4ww7fhVvW7ySz0zT3IlBZCGVZCDnApRp392XqJLU8uhMltZ3Ny8fmQtlW29QcZB/PipdCV7nULUcgAhjnqzZz/AFoadHtYrGNxl5meZe5XOAPzq54ZgaHxfbo/zLHuye2Mcfj2qYtKSBxcYX7mf4hSS38QXSuMebErj6EY/pWTEXi09zGdrKuQ3oc11fxA8tvFsvlEERWcQIHr/k1gWVpHLZPPdSCO1HMjH0B6fieKFu36GcY6pImmR7+yguY3CHgq8mfkB6nFLrOoG30yxTTiAskRjM7p83ynGKk0zWIdZmnhjjEEcY2xr329Mn3zg1Nd2MesaZa293/r0uWTfGcBeMkn2wKtK2jNV2Xcu2sbXGkWjTt5hES78nk84zn1rXvwDZsg+8Nzxn3Xn+QNUILeGyvdNsYW/ctGyBW/jGN1T6pcLBPaqfvOWZR681vB9TnqRtt5mV4gj80xXLgMhyST9ef51W8uHVbJbSUA+WN0Mh5BH936Vt31sJomtWT5ZI9yD35BH5VxdldJb38+mxrIrRqzAk9SBnismnZSRtRlpyM13hAtESaMbYh5MsfUFOxqnaxy2tw+nueOZLaTsR6VastUiv1MDoVM8eYZcY57r+BqhZSz3W+xvtiXdu26FxwTTTIlHdGrb7f7Pi2cCJ2Xbnle+KbcXL26x3iDdHGcTKO6Hj9DzVhtiWUzlNpyGc+pxioLUIMhvmilJUj8Kexk9NzodKCSwX8CtuWW2LD0Ixisu0snOmy27Pz5bIGHX2qbw2z20V/ZEbnt4mEbE/eQ8ilX5poJlOFkIPH05FJ63LVrJGVaTx6xpkjAhpoxskBGPmHQ4rMjmuooEDR5aOVopMcbVI4IrauJ7NNan4FreohZioylwnvjuPWq2o28V3aLcwt8soGSP0pySepSfJqtipdPcaxpxiWTy9QtGBJjOCwqXT7hbmNLqQYnRfLkBGN9NjtYbWJtQBKFyI5GHQcdT+OKsWcS3MdxDKB5jDhk4J9/rQhNr5Fi/vf7PmjlcfIQFb0rP1OzhW52o21Gw8bDkDNa13bm70mJJgGfaFYnnnpWDfwy3GiW80fyXNsTbsM8HB46+1VsTuySMPbzK38DYz6VsQM8GuadKCTDJGYJR2ww4P51lRlxoUFzPkyREq6kYOW5UfkCavLOomji67EUjPOe9NbkyuhmqQpp2uQ320gI4WQg/wAJ4/KsuSS80jxFHFGPMTzV8tj05PA/KtvX7iF9XS0f/l7g3A9s5/yaiubfyGi1O5QyReQEKDrJJ0HHpjqaWzNI7lzVbxoYZ7eCRDNK4lixyNg+4D7EZqFdQM2nLcxqX2j95H3x3/Ksu5nN3HaX4Ijd1MTKBgAoePp8pFS6fJJDcyAqQGO8eh9al3TItYp6sscBW4hcfZpMgKoOQ3p7Gtq9aMTxWDcG1t4yp/28Zb+dRwwRPqy2hiRhcujSRtwHUH7w9CKQQTzave3U2CsrM0TDowJ4x9BSSuzTm5ivqskW6J4oSrINsxV87jnhqht9AZ7g3NvGSAdwU9MZrqLDTLK7lxcReYwP3lOCDXTW2nw2kQWMfKOmRg4rGStqjopxvueeSWeoJbXEVxnfIA6yH1z0qASAXf2cDYtwm4MP7+ef1r0DUGiEJDAFR7dKxv7O0vUSpaPa6NuBTjmsFVSnqaSwraujCWaQ6dErqCqM8UqN0IznPt1qFSo2PbvuEfJQ9QP6iupm8OW88ap50gUPvO3AJOMU5PD1hakStE528jL4rWybvcyVCb0Zzd4GZFaFSd4Jx1B46EVc0nSbmVvM8l0TKsobqpxgiumt5LKL5I7ZEwOOKvRTxccbcdKqybuWqFtzP07w5BbsCyBowDhGyRj1PrVuBbOxykMYB7k8k1ZkkfY2OV6cVz91PyQuVwTnHUmpa5djeFOPY6TT7mztrlp/LHmnHzjqOf5VZ1xYtWg8+1uRDcQjMbJnzCfqOgrj7bUD/q3OPQ5qwJpom3pLkdhnFTF9hToJnZ6VLPDAIksI4pxGrSkyfeGPvDGSakvJBbzx+ZqKQBwcxwRgsfTA5P6VzdvrEU6rFdySoyqVRo224/8ArVq2um6okA+w3NrbwSZw5iy+D057091ypf8AAOaUHB6lTVrVZ7yGOSO4Kz2siJJcOQdwO4HH/wBaqMl4qMUu5QRKoYqpDBHxwR17VLqGk6nEPP1cm8C5YMJSAACM8fTNSHT7FraH7JH5UkZPmBk2tkHv79qFLlkr6epBmaS7GeSwkvJ4kc/u0Xo2Tz16CrNld3FvAqwSyFkDRyKBuwAcZWo9QtpJf+Jhbx+XjLBR1Uf/AFql02J7e8eSAB1jlVsgjBHWt3C7WhKVnY0ImGoCJJGMgkTySCPlYY4/XFZVslvZz3FvM37xEKI2DnB7nHtxT41Gn6jvuTix8x2ypyUbHHTtnFP1OyfyYr+MCQt8zv0JGMFceveonaE9dmPqWAkdvZ2UsWJPmlJBB5+7Vryrma5ukkkiklnVULdNq46enXmoLZWmjtbZRlmBG70Dt/gKuauEghURA+aZFlTGMj5e9VOLd7FNalPVNK+3XunbmwsscaNjrxkH9BSXthcXXh20WWbzJ42Vjv4IBTp+laW9/wC07COQDaquyv2YbWP9aptHcw2U0csjOgdW9SobJFaJ3tKwJXZ5TBbxwaq9yCZViUyDIxjAz9CM+la3hZX8z7XJnzZSWz7VB4Uih3XUk8XmpMzYRjx0q1oClbyb96XBAbb2TOTge1Z0172pVSS9m4rsiPUbGXV/ETTsfLgktFaaXsOcfnxXOapqENxFLZwDZbQ4Ma9ckH9eK7HVVLWFshvorS1+zsSXJLE7iM4HJFcYq6DBJsglvL5wCc4ESn88mqcfeuTBWikmQ+GXWHUI1cgLLkDp1ruLeySWW8QuUiuNksh7Y+6yj68V55JeqSHiiS0jbnKZyTn1PNemM0ieFY2xi5miW5YEcqMjH6ZNX0Yp6STXQzPtSXWqaVcjALXUgRW6gZIwPwqbxOPkgMJcXESb1GPlYH178GqGkxRQ/wBlxDezxX86kntgMarePb97S+tgmSdi5CnHGOf50rO1jNO81fzN3ULtop7ZycAIBntnrWNquntBr1teW8IKSkF24BA6f4irGrQSXOgKIZHMhgUqwODnANR+H7h9R0N7a4Je4sW+8erJ/iKIpuPKJKz5uzOU1GK+tmkBn2G3uCUYkDj8PcV1Bhh1IWt0sgjlkVWWRR1H8Q/niqWq2t6NVl8qZxFPsZB1xnGf60NdLcW08NtIEewYYcehGD+tGuxu0rKSNaa3Yz3FuxwhTAHYjOQwqjb7oU8qTqTjPow/xFWdE1lNUtPJkRPNAIOeqnuQf8/nVi4sTtGT5kcnymRORnsfUGm9zmlFlrRyJblpBwwiKkeo7UtuBgRgfccMv0zVbw60gvikgIYKytkdeKlsHIkRGHzRsVP0zUx+Nk9EVvEK2kUU8ZuRFJKu+U4JYJx0x2zWV4flRkNj5nmQuqmMnqDj/wCtWv4rDxalbNGNyMgUrjOex/SuWu2ksbm5ngGyW2liUfJgMFzyR702rG8Epxszo5VW2to7ZsfvXfLY69hWNp1041NYCBDPC21l5w656j0NbEk8F/bQF49kgtxMVByUDc8fSqF/bKs9rfYDEMoMi8Z560opWMlpdPY0tVZ4tPcxgnowA7c81BbWKahplwTJ5UUm1zKeilevHc4rS8pbhZ7dzncCR9cVmaXduWltrtcMN0QK9CMcnHbiqYo7ehAL2TUDc2/l7bbyj5KqQcFeQSfUgGqsbNKySQtuZGztPBxViyszb2VzPAR5sSsI/VscnP4cVU0SKXUbhlXYm4HY2MHIBYg/gKejRo0mbeoSRf2fb3b24uDB8uO4HqKp+IZXvfDyTxyGSWGRWY45AYdMduMfSrFveRootp15Zt2D06dKZp7Ot/dREg+aCwyOpqfMnZWMqyLHSLi2nPmvCVmBzyoztIz68ipNMuCyquCoYbgCfunNXdPsree4mEK/Z5ZEaB4v4cnnI/Gk0qSI3zWptstEQOnH61Tehvy8xvWFqs264ihDTQwsYWJwVYjA/Wrmk6PLFAsmoMgfqTjcc9/zq5Ggt7UsAkPHIFYt3qjgsnmfL6Dqa45V2nZI6qeFW7N99St7cFYRvK9WwABUY1czA4Ax61z00/m7YI+FT5pCO57Cn+YYVAJ+Y/w9s1MnLdnRGEdi3ql1+4ZycDt2qhpLsOc5yeOQcVS1ORri4S2yW7kDgZrc0mxWGIARgDqQKxUeZ3NW+WNjdsQxXc5qS5iWYYY4FSQIFj9PrTWIcYrdqyOe92Zd9AUG+M/MvJ96tadPHLEGY9euar6gphjzk9eKzrCSRSw7A5FZKclI05U4nUMc/cHFY+sWny+Yow3oOhrWtjvgDtwKp3z+crJETJngrW0neNzOO9ji5nlSXjBGecEgirttdhQMnHueRUGpRFCS0fI6g8cVnSmeFfNj+Ze4PX/69ZwtLc2kmjpHPnLuXGfStrw3r01rfRWU7s1tK23a3IBPp6c1xGn6o5kClCfUDPSt23Ec88Min5S65x6ZquZxIcVJNM9PuljuWewkOGkjYKT3BGCR71z2hzyoLkzRmQlwsh6cZxuHvmujm06zlBIiVZNpw4OCB7GuOihntNQ1G1jjLKAepGQMgg579a6X7r5ZbHmGrbj7Lc3FjcyFom+aMnnKHrWVp2Iby4gYFUCjB74/xqVi11pyukx8+xyzLyCUJwfy61XvZmtLmG5DkFjsPuKKUY6tA9NexrxacspmMMiSebbMoVhycjGfYVgz/btOii0+/DrCWY2z8Z91/wAK6e3Zv7O84fxgKGPcbqqa1GL22+xSgPsCAsR8wP1/Gpmn6ja6lPRYlt9aRSxKxxmQA8HGzIB9xmpb6OSe3gvGID7FVQpPQDv71Us0u3uJwAl0I0K78YJDfKGHvx0q3NMU06yiaDa7Fixbo3OMg1UXtEUdy5ERN/Z0rDOy2nbB9gB/WopDI8N0m7DSw27Rj6Zz+lOtIFlkkDyZWKzLIi5G3cxz9elXLKMPeRPtzEbZVcZ7jp/I1pbdoLHkFlc3emRRQeQJoWc7fL+8T3rV0ia0aVlthkoCJJf7zY6D2HSsizv5E8mBo8XAVmLnOUQ8kn6/yrW0mMI5dU2xvGWA9Tzn9azpdx1o2TMe+u/tHh7TpW5dpp4SR6BiQP1rm7CPF4mPQittAZvCmRjNtqBY44wGH/1qyLUrHOrDr5u39aqXkRFjtFsEv9SW0nIWAzAu390Dkkfhmu5h1Br/AFy8gYFVk3Y64AxjaPoAK5nQhDDqV00iltxCr2wTwP0zWlZtJYasZz8xdx5vuCcbvrzT5jaUbwNHT7Z/NsndCHSSVpCf4jtK5/HisT4hxvb6rBOcNHLFtKtyMg/zrrhGPtNtjqFkz9c1heO44LgRiaMt5LggrnJ3cf0pmFN3ncngZHhituhNlE4U88Y5rL0+6OiCNmhwizFZepyldNqMdtaXOkyRR7TJYxqwGMZx/OsnX72Gw00wyJmTeVHHUdvxqYS91MuMbTafUfq0HkyeYZAsKbVjfOCdx4rGttPisb23EYdklQwyZxhgTkE++a17W2l1Hw79ku45POtwMM4wCOo/I1BZ2f2q3FrMRM8QyXHByD/Orb/EmMXG6/r1GeENGng1S7u7pMR/6uNB35z+ldPq9hJYuJovkVhhvTNSeHbctqCqUyp5I7Cup1TT49SsWhbgsOD3BoLa5kjzbSnH/CRAA/MQdynrnHb2qaym8i3vF8svKpCg+2f8K0o/D0trr0Ezg5UEBh0YYrVsNBjWzurhuXlyB9Aai3vNmUYs5/VWTzo5pF3CJNwHuM4rlL5RNaDkmW5BAH94qMfyNdte2ytZebjJLkAewrnZtMNwIYrf5WguVdSfTPzfpT3CD5WYV3evpvirBOIIlSAg55UKFP61ueWsMjwMN9vNyB6H29DVe68Pvf6o7dYpS06sfTqefrit+fT/ALDYwKy+bMqKee5x19uKlO1h1I7NFONmEpnJ2KP4jx2qnq4lgkju7aNMdXIGTirMkc0ymQZKsBtHvU8aedpyjgsox174/wAaqzesjGzTMqC8Q6hG0ce2JlIYDpk9f1rQjtLWGzvLm3G2SK2kG0erDZkfgTWVdIINPkuYy+4yKADztPcewq8b4KhlU7VlCZPqP/10M0dzOS8h1G0yE+aNiFI6kA8fjSxTqsqS8h4+QfUd6uz6bbtiW0xFK/zBR0Y/0rHuJgshR+GQ5KjHApbF6Sjc1JQbdYLw5DPISMegPerFrMo1eRSgyG3Bx1I6jNLfxlI7G3+8I4QsnsSN1UZInstTElyjhSisFH8QxwfpSvZalRdpHUajIVhMhJK43f8A1q4+a6eW5+XgA5OK6qaVdS8Pu0Y2yoOV9BXGowgly3PPIrk5FzHrU5Xhc6GB4rS2DzEZ6n3PpVSO6e5vlJ5UHNZ1xcPPKo9BwB0FXLKJllXHQcmrkNItWil9cYE8YyTXTQb3YBeg6e9c1puDrU5J4wqiuwtZUgBdsfKDgUoqyIm9SytpMFDO+3P8PrVSSdkl2IcAdSOtUb3xRbQy/Z0/f3ZGTGDgKPc9qwF8Yz/2mIbi0jWPdglJAxH5cVo6MpLmS0MudJ2Z2NxNFLbsj4JA6+9ZlooyTjhhx9akQ21zEZklDAjoKWJQIgy847e1ZJPm1LuraFhb10tDEOqdazxr1jpRMl7LteTO1B1xUl20kQM0eWDDlRXn2tT39xdTL5Z+bG5gmSB6Z6iqpwvOzFK/LodjfavY6wvmWsgkXGDg8isuyZMmCQZ9D6ioNFs43he5hhMK/KgUnO44+ZvpnpSXSulxleCDWMvdqNI2jrBHW+E9K0+G/wDMlchicpnop/wrW1vws8OqQHStiNcAs0RIVcg87fzzisXQ1mYjevUZDVu2fiMfbLWG6dXeKcESd1QjaR+oqqbUrpnFWk4TumdgfPgijkdfMAQLJHGM8+orlbZvOub5IpN2WVhI3IKN8uD6HOK6Oxne+W9bcdpcrGfQYxXMxrMNcvGihBEkJeaPOCdrdj65x9a7asb2t0ONskmmWG8khkUNH/q2YDaduMHGPaqV3biWIwLKGkgZlKvwSMZUj1yMVo3wt7q2h1OM4WcfOMgbW71m6jqFhJJbNCsgLgo54JYrjHTjpUxS5U1o+vqVeJf0a882GPTJCWIlEgJ6CPGavyK39o3lyi5aFfMQnoDjisCfeLOG8tbaSDysxSOxA3j6dehrdeTzbyEIQRcIDIVJOQUwP61Ur6tdn+BMZJaGXBaztZGW1YpceYFSTJAHGTn2xT5547ixs0LFHjjIIPODmr0NtJFaWasf3bXDMcenQCqOoW32dkXy0BVFLMvU5Pf3pRT5vKxStcfoDtLcagxYDEWwg5PGB/U1fPlppI3zBXZgBtcc4J/xqjp9uYdLlulYgyRM5Ax8w8zGPyFaPlwJbWsZVJNwZiuMkE4OPwqrco1qzyG8kZ79baAAo6lpX7sFHT6Zrf051eFU7xROp/n/AFrn9PeR72/k6oJBFuPXJ/8A1Vv6cowT6xkn9BUUdhYnc5mzDS6Nq0J+80SzgD1V+f0NY1vG7yqqAszyjao9a6Swtmh1VrSR8GWCaLHZjjI/lVDw7ZC/jljMwgb7pfGSB3x/LNO+iFBXkxDOqahHbwkMiMGLD+N+5+nYVd1i+iguJUhEjTYVm44xkHFRNoLx6nD9ln82KMfM5GOc9vWtiYQpbISBNNH+5ZUxye2aTa6HTb3dTdtZd7JGORGGJOOmWz/IisrxIB5u3CM7IGCscDG7G76c1p2SvvLFAAwHT8Kxb+GZ9duWml/cJDhAOCec8/Tmq0cTmpfxGx1wm+5tMkkRxKRnjAA6+1R+IYirW98hw0QEgYfTBqzqqi10WzmViv2+IeX6hP8A9XNMx9p8NW5CAsoaEgnoccU42cLIc/dtLzKPhbUZxDqFzeNJOoaPexcsOpyoH0rVvNJNvctc2uWhmwzFc5XjriqUi2OneHpNPukICRq0rw8Hdnk1t+GIpJtMVBdi7SI/upweSvoe4IpuSW5q4+9dG/oMQSyiZn8xiceYBzjHetvIXnt61TtYwq+hB5x1q2xCo24ZA6/SoTvqU1Z2BokYKcd6ZKoS3KAYUZpsMwK7c5weD6iq+rX8NrZPvkCs6sAO/SrTuiJrlMOGze4sIiSBuzgHnIJpsGlpFNiIedNLwZf4V/xNWbGJrqCKOWTbCAAI04LDHc9hWmHSJ40iACpkhV6DjH9azb0sTGF9bDF06GBd8vzsvJJHGfpWc9q1zLNIkJO75i7Yyx7da212yEeZyD0FKZIxwq/hTVjRx6HJz6XP8zFD8w4A5x9KzdP0u6SWZJFxE2SuUKnNdzIoYHEfPrjFZN1p7mQyC7lQL8xUjIA+op81jN07o5S8gjQGGc7YucsQAGJ/hP8AjWTJafZLGd55A4lJjgUDjbjJ/Kt3WdI1w+Vc2bxsjYMiHBAU9Sc1lajNbzTNp7EP5SbUwDndjnntSW1kS1s2UbCR7uyWBpSk0TfI47Ef0xRLY3GqXkQRUjn85UkAxl0JHzj+oqtaqYW3qjryM56g1tWEbjUxdsP9GhjacMf+Wb4/UHPSqIa5ZaFWW9Fxqt9In+q3cD2U7R+gp4j8+ymu2kIMbrFG3XGefyqnfxJbW5ubbCpI370k4APt7HqKvWqg6HZ23U3O+bPtnC/yqZAltqbWiTQi28qQEmQESMccisDXdLe0uWwnynkHsRXSafaFYlZiCeM+lbF1oi6lpYic4mX5kY9h6GsmnKWh6VJ8kVc8uhibfnknOea3YIxFAT6LzSppckN20csZVlOCKlv0NvbvxgkED64rOWp0XM/Rz/pEkh5LMST7V1FuWmIEgKq/vg4rI0Gw2RjMZORXSyweVEuODjiklfUiT1sc9rHhSQSNNp7ZRs5XuP8AGsm08HX27cflA7t1JrtILuSL5H+72Poas+cJieeF6kGuqNd9jB0zkLOKa0lksiDuDAhh3rqLOALEqk9sVnzR7r4uvTgVt20SmIs3AHSs2ryuaPSNiN7UFSoOe9YdxafZLh5cArIOQR3rYuLoWvzsCV9qjYx3sR2jg9jUTTauhRlbRmJayI1xheEXIwOmaoalEPtJx0LDJ/GthrL7Ed2MDPes26RpZyTzg81xWaep0JrodR4eMMPkee+0FSobOACRWJrlj9mvYDFdRzGQsrbTnYynB/AjmpkkzppRPvKOlZUVu3kzzj5ii8t1wScVtRVnc8rFJqTOq0zxrJaaWbI2bPIoIWRHxz2zTZLjVrq/FwRHZG8QruAyAMjP0OaytMDy6TNJuPkIy+ekcYMm3P3gT6VrW1rDb+IIrDU2e5s2UiBpJCVw2CD6D3rpblf3jm6FFIYILxluJhcBGDbWJIbJ5/Gt24ih/sm7hsoZW8oLPEwi2jIPv7GrOoaVHY3ME0EUcaoSrbECjbjn+ladhCCz3a/MQhR0Y8N/9etErWmvR/5lJWMZJbWa1SONXLXMKylsjBOeR+oqDTRJY6gttMCpBDxFu65rOt71LbVHtWP+ruH2hRn5HGcfga3vEG1VsriFcS26KzHuV9K3jqrC8yzqLSm9WOQgeWoZMc55zk1n61cCK9Md2PKDRKoYHKtx+lbIkju9ZjkGJIpFBX6YrI8Rx+V9oIBOBtweRyP8aiEbWkuxW5L4clkngNnKyDZbLtYAgbN2Tn3FSvcRrfLIqApyxXGQuc4qqNLOm3H7qR1h8kNs3kMeAGx+daNtcaZHCLnzY5tox5f8WT6j2pRlqoyBHkFkDFpUTEfPcStMR64wB+proLAEQuD94RN09c1gTqkUNtGSFWOCMBgcncx3EY/Kt/Tywgd3xu2Enb061FFaM0xK0RlW8kl1Npl9KPLljYeYCDnP/wBehYNP0q/ktshZJJGG0vknnv6CqCag9zZK8IeNZG2k78t3Gc+tReJbZoNdtr9fuzNGZPqQKGm9Gaxavdf1sSeKtRuba4is4JfKjeMMwT5SefWl0OWQag6hswxRbpScclef51S8YY+3W8npEoNWdKRU8+X+GV1UZ7g4NNK0bhLZ3O20Jmk08GU5cYx7/PWbrVpO98kyk+SCyTqOu0qQKs6NJiW3iPX5x+RFW42S4hjWRkjmFy6q0g4YK54/LkGqS905qTtIyNZeS6s9NSQ7Tb2mzaB93J6fXGBVTwzPJe2Orx9beB42j9Qeh/Sn66JLLT2EjHzSCNx5OSf/AK9L4AEYS9tm6SquM99xK06e5tJXpsiCJdNfQTMNzYUsewPT+Vb/AIMi8o74QY4eFETfwisG6tyFvikb+c8SsW7Daf8A69bnguYu2A3HQ+nWolorGlJ80UzsbiV7XMijcp645FQjXbO4XZ5hSTGOfWoL6+gZZITlgvDMpwBXPusUQk8hnPHMrdce3pWeq9DWyat1Lf8AbT2TNA7jezkKRztHvVSfUoZ5WgQmRpV+aRuSRn9KzXXZaGZh97cQD1rK0S8NzcXrr/q7dMA+p/yKKd72WwqsEoOb3Oos9bjtLRIEfzLiXgn0HpW/ZHcWYnngf1/rXjOiassOqxyyb3y+0D3Jrvl8Tq6tbWuMhipYcknNZtuLuzTl5klE6ma+DXW1PuqNoPv3qT7YqDg8+tYEN2sMW5/ve/WnR3jNKHIyxGQvZR6/Wl7Rj9mjoFuXbjvSXD7oPKC580hT9O/6ZqhHeKBgYzSm7zLuLhViUkn3P/1q2UtDCUbFm8ZJ5I7QJgudzkdkFUtR8PWV8fNWONZwPlcj+eOtOspd2+5k+/L0HovYf1q15ye4pN2FGN9Th9a0LUrVopREjorDc0f8I9ayo7zyrQmQZSRCpHQ4zXp3mK3HBz2Nc7r/AIWg1ECaDEci5O09Dxj8KftL7hyWOauHtpoVlgiDrJGUMJPEg9Pr6VcNs66rFZxL/o1vAiRscHBA5z75NZen2wt7mXTLsOPLYMCRgfh7V0FmHly7DdIWJc44zntVt2jcxhC9Sxft96gc/St37YLax3FCSefdj/hWVbZUM0gxx3qOe5edtrj2AHQCsFLlTO5x5mQrfx3E7NdJtZc4Ydx71mXe3Ub0LH/qlOT71cuLRQM469cU20s1RxjgHqKyvKWjNbKOppWFmwhVhwv6Yq5ORt2jnHAqMySKiheg/DioFE00m4nAHRa020Rnvqy1FAhX5wOelOmEcMXyjJP5A1JHEyW/mMOc8VEqvLlnA9gKq4iC3t1Yjd35rSeMrGFXgfSoYI1DAnt7GrkyhocAgnsa0irkSZzOrX0bblUAqpxntXPya/Ja5SI5B456CoPEz3enSSQWyuwJLBgM1yTyX6qjXh3M5yoyMgV6KUIx0Rx++3qz0DS9dfWbee0lALxDcrj+VR7SxZj3PWsPwPHdDULgvIGiCfNySM54rosbZHjDggE4NeNXilUPQov3QRv3ZQ/KSDg9cn0qICTSI7aWOVHhl3GWNXyQc8qw/IipoiGk2vhQOCW6Cn3emSWOoJb3MgeC6OIbnoj+hz2Pr+dTTV1Y48V8ZsaPeW9j4ktpRgwXvysB90k9D+fX0NSajYQLrwhnyI3V2VRwInJ7egzXMGSeG3OmP8xilLRMCDjsRn610Oj3zate+ZODI0VqUk/2jursp22Zyp9DYgnkeyTR9QmDvKCtvL0DDHCk+taVnKTZJbKD5kanzgRyXHBFUhpsF3ZPDdb1UOBEynDZ9R9KZpxudOv7i21GVWlnGbeXosnGDz2PHNZytD929mUY+v2MlpfW+rxRBESUJIe+c8ZH6V014FuLlE+8NqqfQ8U3xDDJe6DfmVUCvErxD0KjP86ytEvH1HTFu3usSQgLJgDHy9/XOOa3UmpXf9MNma2i2xtNWltXJMVsC8JPdCeP1zVbXlM1zIuTtedVJHYZ/wDrVPcI66fb3qynCkKXHV42PT8CAaZqyxm8tbWPlPMaWQn+JgMf1q4vRoFsPvAl9cGdT8kO0gjoqdG/TNLeWFva2vnRqr2+4uqhfnBPB59KnmjWVru1EYVZJFDMOpBFWrKNnNvG4zHFDhgezAkf0qZO7sxng2ou0iX+0jc0gjj+oGBXUaQ27SIHYEE2wBHfODmuKunc6WkyZDNMXJ98V2uhM1xpFs8g2tJFyPQ4NRBWiy6/wo5aKOO30yT7PN5iKSyMRyOeh/Or3iffIunz9Y5raMjjPzg//XqhpcLDT5opRghmy2QQR1rqb77Mui28qIlwsR2xsvAAx2oe2o47v1/NHKeJlFxqUcWwn/R1ztIGOTVrTESG2WF5N+18ru4IPp+VUPEU5GsRqnyssCkt+Jq5ZRqREEQoYmDHPVj6+5pq9rGko6NnV6CBLNFIOsbOp+uKvfZoDcuEHm/Y7uSRh1LMyEn9Tj8KzvDQxIG/vzP/AC/+tVqyZ0vNZYRbVWUYkOcM5Y8fkRn604/Cc0F71jH1e6kSWC1W3SRJEYlHHfOOD1BrL0l2sNbmVCVBijYJn7pRw38s1b1OCY3mnuJdw/eJIB0Izn86qTSQ22oWt/ISVD7ZG67kI28ilC6R0R1j951F1Gia26McRzgr+DDj+dXfC2ni1t5JlPzD5Tkdf/r0Pp3nC2uTMFihRd0p5BAOBj1JGMVPqV8tvAUt3wcn5f8APelWko6hhoyacSCa8jX7Q8qbYgckHqxqgJf3HnzOI45OcHris/Urv94kecqTyD61ia3qkk8pVDiMfKAPT/8AXXCpubPTVOyLusa2k0Tx2/CoNoqv4fH2fw5qFx/z1YgH8K55jJ0APqfriuqtoXt/C0EOMNLlj+J/wrppe6pNnLildRiurOf0bRpzOLqNgwiBYKehbHy/riq8L6po1wPMifbnnHIrrbO0aG03RfIZGwCemB/PmrC6cjkmebCjlmI4xRzp7oFG0rrQzLLWA0L3NzlUVgo38B3xwB7Dqf8A69XoddgWMsZw7NyWqxPb2twqqyfu4xtjUvwB/j61UbTrFTzEg9hWbjDubJvqh1r4jSa8EKN6856CtB9YiNp5pL7XbbkA8+tVYdOtsEINoYc5xkCnvZ75FKnbHGAqr6Cq5LLQxk1OVv6/pkqeJYg4RC5P+0CorTt9S84AtIP+A1lmxt5RiTrT7Tw/+8BSV/LPYHpS5ZI1fLY3VuU/v1Zimdhx9336VFZ2NlbfcEjMBzvelubpRwAB24FDjbUz30KN/pNvc3aXRTEiZyQcZHvUyW6QRjPHoM9KdE5lbOQee3NOlBds4/8ArUX0sg5VfUdGiMuMjHfNNa2Rp1QYVepI6kVZs7T5cnn3NNu0KMPL4z39BQ42VxqV3YzZQ5LEbMdgwqBS4bLuAB17CrepIvlLs4w2wH1OKwbqaTOGOAp4HSsWnFmq95Gs2ooikcsx6egFFpdP5u8nn3PaseK4iIBL5PYVMlxuPynGOprVMhq2h2cM8U9mUP3lBwK5EeKbrSdTMF/bZgZsRuvXGe9T2t48JHPHp3NT3lrb6zCQyYcdQev4VrCSv7xk4u2h0lleWuoW6z28qSKfTBpt4xWPhR9QcGvPo2v/AA7OxsuS5wRzg/UVbPifVJYtsr2cbDqpJBx7etbqOvu6mTTtqN1+RbrzIHBZXyAe4PtXITaFJ58ao8rK2SVYc4zXUNrMUULebHb3TA5DNI0Rx+XNYY12RJ2Wxt4I5nPEpJlYfTPH6V0O9iEkb+gWi2FuwjiMYPJz1JpkySiUspyWO4fWtCGGWK1iE5/ehBk+9MIDyejDke9ePVlzSbZ3U42Qjsu1GYZ5G5emfWtTUDb6hor6VBKnlZ86xLH5o3B5jP4Zwe9ZdxEDpk9ws3lzREFVYcSDPIB9e9UYJIGuXgMm12AbLHgUU489PzTPPxL/AHlkW44I7VpobiZ0KR+ZbPs4kOePp3+hrR0C6aLU3uB5aNKfungHjJA96rXFyL6yc3a+XMjeZAQmAR0YD2J5rMWWS3EDKMfvCwb34rpcNNTm21PTpoVuIUnt5N0Ug3IQR8pqCezi1HTglxIUMcwzjqhbj8uQaoWOrxRwLcNGWtZQPtEYH+qP99fx61o6hbomnSXqEuPuttPDJjO76jrUKfNDlk9V/X3mm6uR2txc2sT6ZqyEBIpBDN0VxjFYHhVn06+jTrFfxEpn+/yD+ldozJqfh9XCI7vH8hOCenOK4h28vwtFJ5JE0U2+GQfwEHkfiK0TVPdks7gBprc7o0aEnaFUY2HGM/TvWNAXGryQE7jAhQseSctwfxArb0y/i1GzWa1/1LhNueuO9Y6YGuTsp/dSSrEo9wM/1qoyUZ26FGuQv2xpScDzwp+mP8aadRig1C6QDATayrjG8ngn9KVXbypBGAztNjn+EHjNUb9h/a3mHowKn8OlaLWbA8Xv12xWcRARXaVlHYksRg/XFdZpMZg0u2iPDLGF/wDHa5vX7dHv4LPjLW3HOCDnI+vNdLahoraxjbO75VOeudlTDWLKrfCjnrAI63CbAG3ENgYBODWnaxF/CBiuUT5JBwemM/8A16o2FrPBc3PmxOqO4MbMhAbnmtawC3eg3trIOUkKj8uP5Un8Ja+N/I5PXbJpdVNyZAIUjCueSVFW7OZYdPjeMOxllAXI5x6/TrTZr5oNbk8uPzF4WSLruGOoq/c2W+3jksCBCnVRyUHtTT0NWrI2dE2w+Tz1lP5kf/Xqt4m8RHT9XOl2h2ptaS4b1JIOKv8Ah0W1tpsV1LykR2qDz8xIH9a5vxjp8R1a6unn8k79v3CQT9R0/Kmc8dJm1qUMaR2U0OGBDyLgjGGO6sS20W78RXsQSb7PHAXWaQc7UzkHHfOcYrStdOub/Q7BrRhJLAwwofIK5Pf0rsbXS7PTYD5YIZ8sccBj6/4VC0TZvFa2RQntvsmnRWi58mLiPPUDHftmsqVnWXn5lIxn0NbN3fefaFO6/KaxyHKkEjB71wSnzttnowjyKxg38beYW5OOay/s3nSbT93sfSugliIZww71CttGTvUbSevpShoi+YopaIkOWHTualgurm7KW0o2rFwrKOoq+kJfKkcHPP4VXsoHhnaUD5Y8njue361qlLfuYynF6PdGs5UbFX5miXYP5/zNN5KbQEyectyc1VEhA+c4Y9qljyRnoeuT1rTl0sSlZEEwulbBfAPTaKWOLy498uMdSTVjGfvHLdhVdh9om+bmKPkgfxH0pKmFSpZWJ0kbaAfvSc/Qdqs+WNvzHBNVF8zJYDLHqegFTgHI3Ek+grQmEbLXcvWltuZS2F9DjJrWWNeAN598VRtGnPzDZEo7kgGr0cu7jzi4HUgcUxSJSF2El+nrxXOanqMjTmNTtUHk98Vu38ogtyo+9XMScyFinJ6LWNR3di6asrm3pQeVctkArwD2FXWXHDZVe+OuKqeHTuEks3BUFse1WonNzcbjwoOAP61SREt2a6KFgXA2jHAqhfFvLIXqa0Zx92MdMdqqXaDGe46it5RujGLs7nO3kzIiLySHz+lVLy2WcZGM9h+FaN8iyrlF+Ydu9Ukhmcny+ef1rn5Xex0qS3MWPTpCGUHIXAHqKhlkfT5TFJn6muhIEEzFxjJBP06Gq+oW0Ny2HAZcYP8AjUqJTlfcz7bUFcD17Ctuz/fSImfm4JxxiuUuNPksrjfA5Ze4PatPT71xIh5UluSa0g1ezM5x0vE7ibT7doV/d/Me4qmmgxrOZQiMXGCHTIA71o6bcx3MYbOdo71c3IFyeNpyD6V38q+KJxc0tmY174V0a5w8lrtbuEJUf4Vlpp+j6VIWtrEJMTgO/JrrGuYzEcOnuDXK63sYkoQO429M1z16kkrpmtKF3qVZpT5hJfdnnnrUSYZ8gZqp55YgMOPXuDVmzJMo7ivKk22d6Vka+mRWbXJstUOLSdNwfO0owPXPbPSsLX9Hk0bV/kdWeBw0YPO9OoPoRitS6iSDUIGug72hwsyg4KqwxwfTvVmG7U+IY9M1YxyWwUWhmx/rE6xvnseRzXbRuotM8ivrK5atPDkPiGxkvtNunZEmJSBwVUDAJUHsck+1c3GYYZ4/tMJeFWKugxnGe3vXWaNqcHhLUtR0e6kAhQmRJCMHO0EZ+ox+NY1tosM6Ws2oGWHNwI7hAwBRZFyjfmea1duX8zNq/qJoFziQ27AmJmJGRk4x/L1rYtLqXSHjtpUkm065l2wtjIiJH3TWXr/hy60ERssrSRFjsnXgg9s+hqz4Y1aO4WTRNUYtFcKChHVWz1B7Y61lVg4T5un5MlaaGtaXMljqD6cInELvm1YHIBx9z265qppdg9xYXsVxh4xNIrIp+6/G3n061uwwTXtrc6PfFY72DDwXAGPMH8Mg9x0NJ4WgZotQS7hRJ/tTGRV4AOB09q3jG6SLsY/g2eXStSuNBueuDJA3Yjrirdkol3TP8pad5FPPynOAf0qx4p0iK3ih1m2V1ms3BYqeSmcH+eas6PHcQXRtbxFRljBjkXkScc8+uam3LNxezAsKxNqsiJtUnzB64xxmsa7LEb85IbOf0rZn026NmsNvNtMcmRno6dwarPpdy7OqqGQHqD1/CqopxunuM8T8UXATWElUZeJEAH90AcmuskcZsz03ODj8Ko6tpEF1It06ZZSYyfYHIq5eHbNagDoSf1p037rCo+aETLkuZnvikshIViqg9hj/AOtVi1kMBuY+0t1CR9Scf1qCeIm9Y/3Jsk+1EzhLiAn7odZG+iqT/MUL4WPeS80ZjWvm3MrxuhLMQzDk/nU1mt/a3BgUIVlG1NucknjFUYpjFeXMPGVmbAPQ85re8KxNc6pLq96+YtLRnA6DeRheP1qE0tGdWrhfoa2twJZabFY20eVsdrTLH1LZBY/mKq+IY4X1G5jniMsczcKvBzwRVaDVWmMt3H/rJX3EHuM7f55rZ1OAMf7RwGDBWiDHhnwMfgOprSN7anNU0akX9FsiIYotkdsyKpaNADtGfu/XGM1d1YGGJTvJ+vFGgaW0RMlyUZpUE2ByASefrzzUHiG53cIeQfmWsqrtG51UFeRhySbZSex61CxA6H5acG38qc+oPBqKbIUkdB1riurHf1K07KCWDVWDjBweTTpskE9vWqBkCE4b8KUWU0adk0heRmBCoufbNKjBbVAThpPmOOw7f403Twz2MjucK7YJ9Bjn+tVZr5pmIX5V6AD0rplK0UjhjFzrS7IlDq0vydO7HsKvRvkDamR3Y1lRt8wHY81q25XbnOFXk1UDedohNuGFXl3+6o7D1psUeTtUgInU/wB40SvtBbhZJOmf4RU0ACxBVH4mrZhFOcrv+v8AhvzDDDjB9hToy3mD5Bgde5pkj44H3j0FTwxsF+Y5PfsBSNixFNEDlwGPQZya1bFXnk85xtSMcL0yfpWXE0aHEa5b+8R0rb02MtaYJ+aRjk+gxQiJEF1EXRpD93pu9T7VhXAO7GNqjk10moNhcgYUcKPQVgPhi+eFXBJ9aiS1HB6C2tw1rHI+CS6/d9qtaVO8uZMYAIA9zmqhBaJs8Fuv0qxYTJBaA45BJA9TU3tIcleJ0jzZiz0IWo7hhkjtgk1VSVvK3ycb+gpGn3wEnrt2n3Na8xhylK6DYDLwSabaSNuKBNhPUUXDhoAB95SDSxgXShiQAP4s81UZJjasOvLNZlYjnjkiuZ1C2uIVXyjhkPDHuPSurkkEKbR1bjNZk9sL0/PJ8q8Y75qZwu9CoTtuYptblYVaQg7uCPQ1WdZYnywRcelal4Lq1iBKb9nBA/iH+NWdPskv4/MlQ7fQ8Vm4cz0NOeyuyTw/qDCTy3yMiusQGeLg4b1rk2skt7kCMYUHr6VvWlwVVcEuPbmt6UmlyyOeok3eIy5gkQkgYPQjtWc9iZd24cH9K6UYmX5hgn1qB1SJufwpOipO4lUa0OIn05oZjjO0mrtjAUBcJll5P0rduYbWcbkIz3HStTQbG0exLqR9pDMCrfMGHoQO1c8qFpGsq3unKRalaPqllHHC95NK2ySKRxtbn5cZ7/WsbULEW9xdxK7rEszrGr8SLg8EjtS+K9HudP1B7uK3nggZhhm42Nnpn6g4NMtNRubjS83GnJModkN+QTIGJzhjnnpxmtKTTPOqam/eXNjqek3NzIyteXVvCyNyD5ytsZfxBFa8Nreaz4X1S0uQqapGwJQ4BOxV28DsccVwejXlvFrNs15GTFFMDImMjGe1ejXwkbVJtf0+USG2SMEJyGiIOT7kU4RUWoii76l+w2+IvBMaSPueWHBZ+quOmfxFclZaD/aNjJd6dM4v7R/nhOOcdCproPCDXEF/qenahFHEZiLiJUOY3RupX2qlcRR+D/EZuw5+zSrlU5yVJ5H4da2teNpdBstWN/8A2xHCpuEt9UtGIg3EqS3dSO6kCi01O4l8S3F6lvJHGqJHdxscGNum7HcD+VT+J9GOp28Wr6SA9woDfJwZF6gj3rn7PxbONRW5u4Y3DRiG4AGDIM9T7iotyK3QD0G+eM2rQXHCz/utwGR83FVLC3E9g2nXhZpbRgu8HDED7jg+uP1zUthPFIgs2KyrtDRN1EkfY/h0qC6gbSrkahAZJImxFNCWyFXPDLn0J6ehra6kuboMlhvntZ47O94kJwkmOJPf61dEfkOSq5V2LN7Go7qCDUYWt5OD1HZlPY1U0rU5ZX+x3sRjuV3BWI+WUKcEg+tSlZb+gHm9xDnT18pixZVkB98f4E1V1SV0u7VFGVbdk+gzmnadI620LA8Mgx7ED/Cqmssn9oW+VkyIwwbHHX+fNTS0hYlJuSXTX8hmpKPNuRjnIYH05zUGqFRp9zJjLCBtn1z/AIGr2qXEVvO0rj5WjUlR1Y47VTuHSfTmkYBFkjYEL0AK/wD1qpdSvswZzl04TxFIOizhXH1Kg1200UWneFYLFCfOvF+1TeuOiisTT/Diajq+nm6JG6KNip+UqoXkn0+lX7nU7XWNXvZoPMbaqqpbAVUzgKPypWTNZNqnYNIt3c28KIFaUBR653Z/+vWmBJfapFBBKDaQ2yohfjJzgt+OKydKmaKxmuySsokaCJjgEdi30AOPxrr/AA/pAuZjcAkKu1uOh56fnV3Fy8xuxpJbSIch8Q7SQMDrXLa2p+0lxkK3I9q6m7vTa4Uj5cHqORXOalcpddEA9DXFWaasdlBNO5jxKhbJPWnTRA85696gd2gkw3T25p3nqy9ciuWMraHa4lOaIDIJ/Wsm7UIflGT61oXco3YXOapRwSXlykK9GPJ9B3NVAG+VXZeuWNr4chjziSXBP0JzWcgUL1y1XvEMqCaCBfuqo4/CqMCbua2qbnNhVeHN3bZIoJYE9ScACtiIKq7GPyx/M/19KoxJ5KCfqzHbEo7n1/CpXbYogU528ufU1pB2Qqrcpcq/r/hvzEaUyzbjySeB2HpWgp2p15rMQZfPYVZ83IVB1ahMvlUVZFiNN0gOPmPT2FWc87AeKjtQCS56HgfSpZgFzt+90/GqAekoAyOtdLpY/wCJfGe7D+tcuV2Kie4zXTWrmPTolA/hA/SmjOexBqkqKMDk9AKw0w0oRuhOTWjeZZiSeATWQz4nVRxzzUvVjirKxanAETEfxdPpUVmyQt+9Tc2cgHpVllEqg8E4zUM0eHbjPYVnJMtPoTyXck8uE59Oc8VZiBFuoHqTntUNpASMbcL0J7mrrKMAdFHAX1ojciVijPGQuP4m549KWygVZvbHNT3BHm4A+b7oFLGApb6YzWkLJkyd0V9QuQJMKOVHGaqW7M0fP3hyD61Fqe8ufQkVYgGxQUOcDgUoyvLUJRsi3Eu7JcBjirkMSKvyjAxnFVbeVWIAHXqD61oLIgQbeTgiutI55Gff2+VLqcg96o2ltK8pYSFB6A1oXCSS9OAewqWGBUwwHPesXBrVl811Ye1xdW8IZHEij+91qnJqxnjZWj5A5FXLhisRZehHNYQJ888YJ9KzlUlHqXGCZZhcud+4kevtV61vfslxF/p8dq6yAjI5kB7DsfpWexW3iLqM9yo7Vy2p6xPDcBJrUqvOCTz9RWCjKSIrNWsexatbadr2ntZXo3LKOChwwPqPWvHLqC90DVp7EykxqwVjkhZkzw2PWks/El3bmUea+1l3RvyRn2rTNxL4rtzcNdLPdWS5WFY8tKnVgAOmBk80kqqa59V+JytXKi3I0fVLW/jIZg4fa2MZz0rs9O1yOCea70Cx8yyeMNeWjHDBskHZ68VwWo2c93bTTWSiSGJVLNxnBPHHWrel30ULWF1aTSW0gI8xyQ2JM9h6H0rplK70epjHRHW6zrE1tYWl1ZeZFHC++2kQhiqHrGSPyx7VpapqNp4o8NF2HlXtnh5YepA6MR6jHOax2iTXDPbyyGyvrhd0atxDO+c7h/dNGkwTato8mnZjt9Y01ikHOxmQ/eUn+IVanbqVe+h0Hh+efw9eRaTczifT7r5rG59cjO0+lUvG3hqK3WbWLTCrJjzo+27P3h/Wl0fTF1/w5NpFz+4vbNiYmbO5Dng/TtWrpmq2upaXPpd4Uee1BRgRgShD1GfpVJ6We3QaZxmiaxe6XfxCWZ9lup2RSHIweSB9RXpun6nYa5ZGS2kWWNhh1PUcdCK5jxBoVgbOSZ4hHblQba4j5MBx0I/uE/lXMaTA+maw1ve3kmmzlQ0M6fNGxzxn1U1hTk6crd+n+Qz0mBFvopLaYMtxauVWTo2P4XH1H9arTR7G+yagHuVmYyRSxR8qe4IHSs5td/s64hbWojbXkQwZEGY7hCecEdx1x/jXQXEH2i1VrZ9jKd0bqc8H/wCsa6ovm9QPHNPmAktIHPyyrxjrkHj+oqHX5JdPmhuQT5O4RXCdcrnII9+tNsHM2oab5fMbGVskc4xkfzq9rUYvre8gI+ZOmOe2QazirRTfdkqVpLyKetsiQ21x1Q4Uk+h4os5CLFDGAGiIUY9Qev61W1BDqXhS3ZIzISFOB1xmnabLt862zkxBSD7Y/wDrVrFe96j2pejNeUNaWUkbEtf3NvsGOqhjjj3xnmqWl2qW7S5RGGE3BfXPSmapcO4juxxNN0JOcDJx+lTeGZY7m+uEAIaIoZFbnGCT/IVMTao/cZb+xLNqX2crhY4QhUYxuB3N+v8AKu40FTa2AQcbvmJPNcJpN8Drlx50oYLk5JyF5GF/ma9F05MaerHndySe5pspfCirqoSWLrkjnFc42wE46dxW1e7VmcKpGVPQ8ZxWKVZwSM/WuGprI7qSsjMvYudyn8Ki8tWjHb1FX5oT3NQvGVHHPuK5pRsdCZkXtsGIZWx61Y022FuUVuXlG5vZB0/M1ZeJSd8o/dxjc59vT8agtZml+03jdWwo9h/nFbUfiRy4mT9m1/Xkc/rNxv1Z2/hHy81b01PP4BCqBuZvQdzWddW7zTtI3GSSa1baMW0JgfhUw07ep/hjH9a0+LUv+FTUUXXYH96o2kjbEv8AdX1qqifMSTmp1fziW7t+QpVTLYPQVLd2OEeVajCjYO3jFMi5bB+6Op9asNzxSxRgVpFlMtWznIYjgdBVzA8xR1IyTVFAxcfkParqHbJt/iPFFyWh7oAVzyeTW5CcWUO7rjP44rI25Kt2zj8K1I2DW0ftVXM5FGbD7gPU/lWNOv8ApBPoc1tPgblHU5JNZlyql1UdSOT/AJ9qARLZyMxYnoQAB+FWzHklh61Wt1UAHt2FaCD7o/E0WBsj+0iI7R8oHGTyaWKVnbcThQOBUdwB5pbpgVVG9jjJIP8AjUtsLXLy7QTKxz2Ue9CMdpY8ZzTItpO5+QOAPU1YYqsW78vegkzbz52CkZ9frUduzBsGp2XhpG6k5FRwx56fTNZ9bmnQuQL836j8qv26DA7/ADAGqURyBj7w7VdtHUbl+lddKfRnNUj1LjWmR0qF4yhPGD6VoQTIQA3GeM+9OuIFdTng9mrqaUkc6bTMWePep2nr3rJChpijDDqePetadJIZSv8ACeQR0rPvsbWlHDAc4rz6kdTrhLQxNevJLG3eaLDMmAF981x2oTzXURvGu5540y3lMclD/UVta4by4jRYQGGSXJIH86wTpV95gntRufGSI3DZ/DvW1OCSSOOc+ZtojjupZTHcI+5UwxUdVP8AeH9arw6hcWV6XQvCwO5GjJHH1qaJTLMdmLa5U8xtwGPt6VZeO3n+SSIrMOXVhjafVfUetaWWxCkbS6hPp9imoaKZztVTIxQM4OPmx6DNJbaks1jc3t1bRo0oZo1YEbG6gqB1Oaz9OurvTNPuOT50eXGeQy5/lT7y9a80oy3HEisFKjoPb8jWUqa00BNWfqdF4X8XSTqbTWUkuUALh2AIRQCT7j8MVGNdNpq66ppOoPMkfyCZoyOMfdYH2rDtdO/szSb/AFW1bc9zGIIUPOCxy35AfrWPYajLDf8AnoPLZTuZQMoceq1CppaxNOWLPW9T8TJqENtqlhMbXUIl8ueMn7wPTHZhmrF79lv9LD/YmjvIgqziPGc44OM5PbnuK4bVfEB1m9s5RYJb3YiAuhHyHPZgOxx1q0dVvbG5iu7W53eUNqkdCPT6USi2rxepg209T1Lwvdw6h4biV1EipmN1GW7981R1LSbAL/Z95GZLFmPkzqQWs2PYnsp7flXJWfia4lvftdtstkkUC4SIAB8DliPWul8P6zprNPEksMW//llKeJRjsT0+nSpm9VoXFp6FF7mXQWGk+J4je6ZLgQT8sFx79eB+NXXvbrwlZi+tpzqWjS7RGGb54R2APcUX0lqlosUsR1DSZcko/wA0lsfVT3X9RWP9nutEja2026S+s7hd6RyASqee47Gso1Y7XGZGj2pt7xoeGWJ2wRzwSMfoap21w8t7LuIdZZXVXXkNzlfx4YVp6PLaG2DW1x5vlRbXY9flHGfwxWHpdpcaesjTCOaHd9oEkbHO7Oeh9q7VH3LeoKN6kkXgGhsJUh/dmLJXgAD/AOtTYbO3srJHWEpPeFZZAcHYMcL9Opq0PmLjghgeD34zXI2utS3Ov/vLnBkkMbo33WHT860g27MiHvRlFmnrkz21lbyqvMStj688074eIyf2nK77mMSkn3JP+NGuTP8AZ5ljtvPZkWJEPUEjGR+NT6BZHRPD+pzSZabyRvcdN2DhR9DRs2W3ekR+GXS4v2LkbDI52nA3Enr+texYf7MqxkLhQADyBxXguks0E0bpJnDqm0fWvdrUhrGN27qOnPap6WOhrYxZxN9tXzZAQWwcDAqkkQUfStC/kBk+VgcHOMVUkBEzgDgE4riaszqjsVXVGPIoey4yvfqDQRmXk/gKtHO3PfoBRZPcbbWpiamhS38sdCcnHc1nGMQWCxg8vljWpeRlnK7+M45qpcIk0xRB8oworKN/efyJqfZg+ru/kZcFkTJ55ONn3AemfX6DrVK+RwB5ZIijJxnqxPVj71uyKqx+WpyqjGaz7lU8naB+Jqr8qsVF80ud/Ij05wUyfXAFaGzpj8aybUOk2P4RW3CQwGKZsyIQnvye/wBKliixxjr1qysQx/On+UR0qoktkAISUcdP51IrAZYct0/HNMlVhyOvTNOCEYx0AwPrSbHYuRjKqM9DzV+2Obdh3VuPpVCHCx+45JqzaSEH2PWrM5Edydokb2x+tZrAtM7D2UfXFaWog+XLjuAQPxqlEMqpHb5j9aExWJwoVsL0UYzVuIYUseg4/Squ1ghI9QpNWlHy7QeO/wBaq5LIplDn29KhVBkbR071cMakknoKgk6+g7LSC40AZwD7ClyzvgnhetMY4OfTp9aasowQByTyaAJSgaIn64/OmQrsHI96czZIRegHJqYxjBI6YxSsguNA2jd/EDtNTRtk5H41Gy/M3oeT9aekePm6EdaVn0ETxTuGKNwensRWhaXDt8menY1luP4j+NXtOOXBPUVtCbvYynFWHalEmN2CCOQRXL6vOE+UnAxuJ9q7W+iDRkevI+tcVr9rHNaSRSoCrDG4kjBp1V76IjrBpHCnU5Vv5Y775YpXzC4GQP8A61Q3cOy4MiDLj5igJGfdSKuy6ZLbWu26yYNw2quH3D19QPeqbT6eIvshllRlb93I2GCe2fStLXOdxtqMFz/acbR3FvmaJdyyoclgOxz3ot7gPGAzC5iXkMOJEq9pmh3FxqsMoA2q2ZGQjaRj7x9KyYohpN5JC0BaZSVDDJ7076WsHIpa3N2wMN1IWSUSKqNvUjnHofxrKe3nhs47dsvLNdY2nq2a0LQC1hV5B5ckhy2U+YjsD6fjVuXU000PdOEYoo2BhklieMHsaLppGfK4PlK1+17DLFplraeZBZgBZmQ5Z/4mB9M8VDHZXDK7zBFkY8qzjJ9wBU32+31VfMklkVgOshOB/SqzabNhZ/tQ82MllaMEDHYVLimzRS6bFm2sIzFvREjnUFiwkJOPqM4PtT7a7Dyvp8sUkUnbeMYNUBbSTTG6kDpcN1mQnBJ7nHIq9Hay3duPOfdNbncrpxkn19TUqNne4+XnRJaapNY3Elnc2uY5OA7D7vPUGtBlihvo2trt4ymGJKZIPYVUmijvrZHldFZOuH3FD+FV7qUfYvPgLyS2mPNXGCV9vWnKCl7rM3GVro6hdaubW2EnniBZ3Z9scikZA5+Q9P61UXxERdiWNInBXYV8rEb477ezZrnopobqEXKQ7weqt1FX7CO0u5TLHH5f2dMSKoxnJ4z781zvDJMpNS8ma+kwwW+n3TsUiEhaPdgKD0HP4muelkGmysGeRJS2wpnKkdORW9qrNa+HYmjRN8zAAMcAZOST+lYE8sfiCxkMQ/0uBfnU9XXpu/xrqera6Cpq3vmvpV6LhGGctC5jc4xyD/hWRf29raXbS3WmRMDLuilRyhPOe/BNJ4WZkNyshy0rhjzkhsYrduES4VreZUljc5CEgc9jz0Oaa0QJNVLEc0e+UOjFPMXcCOo/zmpb0vP4SuYLQoxZ1RFXnpgkfWmXCNZaVDtSSSRMKc4JwDz0qlqljM2lrFFMkUM100hY8kDaowB3OaqW/qVBXjbszndCiu4tTEGPmRtzBgePfmvatK1IyiKzJwwQZBPOMdTXmcl9beHzHBIRNfEZETHd5Q/vMfX0FangfUFjv5b2aWTFx8zNNksR/SiS7m11sd3qkci8rkiqWNxDN1KgmtOdzdR/LjBGeRWdIAkijOdowa45KzOmDuijMCs2f4e1W1OQpPAxVW5UNOoz1NWf+WJYnJ7D2qYmkuhlXYUTlh/CC3tVBzsh3Hhn5A9q1tTEaBF4LSEDaO4x/KsK+fEhZj9BWcvcXmZK9Sr5JWBpcqAPz71WkUsyii3k3N9KmaNmYewqIJtnRJ2KwTPT1q9aggAnoOlNSIBh71dSNQimuqNMycyaI8ZqYKpHNR7MDjkEZqROw96lxaKUkxJIgeKb5YyB2FWioxUez1+pqGWmM2nGxerVLEpQqD0yM/nUkaEEnueB9KWRcEDpgUyWxt4N0DP2xVG2xkjsOTWhIM2bA9eKz7cEFu2eBQnqHQsbsnH8PU1Zj5weg6n3NUnG1Xx061fslzEGbk9hVCexK4Hl46En8qqSIWbP5VccjJNVS/zDsPU1TM0M+zAnJyR/OoJsJwOMdK0Nyhc44xWPfuS21e/Wom7FR1ZZiKtjmraknAxgDpWdBMsK7eNxH3jzVqG6HJI5xxTSbBlsRkqeMkmpvLyuR1HUUsUm5SFAI7GpEJ3ZPfqK6Iw0OdyKUx25HpVvSmGcUXNt5nzIKbBA0DBxwe4qORxmU5JxsbcqeahGf/11x2vBYspJMIt525Kbhn6V0VxqiW8O4nDY+761574u1ltSzFFC6spyT0IOOCK3nFS1MU2tCukUHnkprL+YT80UsIAf6ZNVXu7NblbS90aWdpDt81YgA5+gycfjWZ9tSazC6jGiEEqw7sOxA9alt7h7iw+z6RdPG8Qztc5dk7j2osjK7W50jfurdtLs2gYsuHjGF8sduB1+tZF5ql5Y3IW4mAgUEExRgEjp97rWU4a0iKG3KyzczTRcEDsP8cVoW98bi3jJQTRhdsqunJH94evvTsg5rFGaSQA3EZjmiZsbsleferUpF1YCdrXzjxmMEGpW0m2nYvZTGDeAGVyfLcelXI7X7PbvBtJU5XdnkjFJRXMkKpO6UjnmvrRJdlukiqnBXHDH/Cp7Zo3U3AYwwqQCyvtGfTFZlxAIY2ycEfdkHRhnn6Gm2zu9jdxqeCFYA8ZIP+BpqK3LaT3Oik1e3tYsRymYOQHifpt/DvSy6nEgaOBPNTO47AV+mfeuTUuysGc5QBgvA71NFJMsUgRTluMknAOapq4JJHV2qTuklxDZBIXw0hyByRzVO6ku7K+j8iJGiPzFs8v6/pxVIanPNClpbI6fIEMo4B45+vNXLBpJrc2l0PMK8xsev0rNxCUpJXNA6banbc27G3Zh8yHJQ+xHY1DDFdRaZfxAfamLx+XyFO3POTVK11FrG5KXvmQxOMBWG4HmrKyzb/tFpPHPavnkDDD2NVrYy1TTZ03iKwjm0+304SENCqsCOvAx/SuXj823P2i2mjEkIDjkElfoK6nV5/suoT3cqEwh4Yt3GAWyP5jNcj4hhi03V1WC2CK6lyxJ5yecn09qFKMm/UdK60fU0USG5lN9YERzSoCY0HDnOfl9/UVPq6yxSwzxgDGVfccYFY+kXGJvs2EEcu4R8jKnHUV0bW7zWMcdx87DCsW53HpTUdWhVHyyTG6q8lrpCTxzBBCihsDk59KqwtdX+grIn/H1CRJH9SP/AK1O163Er+WJQGjQfu84JpbJpFswYhsZUXCjuV6fpxSm9fQun8K82c3bOrQyz32no0yyY3HIYnPfP9asWbRPfm7h+1hlw0nzAqAD74xWpfW39oWn2+2UPEx/fxHJKnueO9UrBnWZUkBkMi7Y7ckfKuep7AcZoS1uy7Wd3uetWTI9hEUJLMgJLd+Krz5EmCKoeHNStr22JivROUJUsiFQD6DPX61ouv7zhix965aiOqmyoyHcznlsYA96lBxEC3LHoo709wFibPTuarQ3EaCQk8KpOfaklbUqUuiM64O+/kJOREuC3visLVZVWPrzW9HH/ofmN96UljXPa1CGjH1rKpqVhlaN++oyyYCPPUtyfpWtbKsox1Y9B61jW3y8EY7fhWlo8rPcSRjll+79auFgne5dS3DMQvO00soKxgHtUumKyXEiyde3tT76I87apPQl72I4Zcqmew6VakQAgj61jNK0TnPbira6mgJ3HnbxWqakrMjWLuaEbEnnpTwucntmoVdZV3Ke+BU6txx24FYyjY1Ur7E0Qzn6U4x5BPc1BG5DH34q0HBX8alDZWZGZdg71B5apkgcAY/GrwwAT+H4VDIu1c9zzilYLlSXIi245PWrNofkA/E1XmVtoGOT3qa0U7eTgcflTB7FosMbRy3c1TfiTg5LVK0oXIHIzzVWSQlifXtVkotFlxz8x9BWVdbGmOD35qeR2CnnmqkpWKFj/EeprKbuVHTUhZwXwpwD0FWY5CigY3dqoQgZLPznoT6VbWVMfLVdAZfhuSmM/lV23uAeKyo9z49K07ODnJrSnKVzGajYv+cyjkcVlX2qyKxVcY9e4rWm2JF8w49a5TXZVERCH73AYV0VG0tDKCTepT1ltQ1Cz8yKXzI0P3o35B9/T8axlkLwYa7LMhyTvBJP4VnNc6nYXzT2MzjzeT0Ksfcd6dHM01w8rWIhmJBkaPJXHrjt+FGyJauy1NYWxhWOSM3EjDMkkIUEH+vHtVCaGfT4ll0628pYzydhMn457fSnHTLa4mMqazaWxLbgkgdGznryKlksry1Cka1atvGR+9Iz+fFWjJxa2ZXF3d3BM1ngMeZLSYcD3Unt7VNBNLOFim0yeEochoeQDSpLq0Q+eGK4hbrKpDAfiOKjmupBw1pazK3TaSCR9BT0IafY1o9KuGw8BGxuJIpCFH1A7GrMMciTzI0sbRjBRQ+SD3FYiJFFJGw0105VlCSEZPuK1UicX8UskrqGfcygAgj0oSu7olqyd0Pkm026maw1CJA0uMMRtOexBFZF74dNh5q2shmMi7cdeM1s3lzCl3mP95JGoWNBzjvuPvz0rOaCd5sNFiIdZTJsANJstSaMECa0aN5rZ17q5GBjPvV2O5N0zLezeTCRhHPIz6DHetoz6ZAwH26W6I9I/kB+vU/lTTbaXdn598vJYL5gAXjsMZFGo1Uj1MK7sbq1Ct5RaFVBEgJwfcY5q9B9quLCIwQu0u4qNwK/qa3JpbqFVSzkit4VQDdIC5HGPpWFf3F2Jcy6g7g8bny64+g6UNX0NE+qDXfsZliLzi5uETYVh6D6n65rMs7prLc0RcAnDo2CM1eNqJXE0PlSJwGaA4C/1qNLTTQR+4Zgcln+0cj8KaCytax2MV7eal4dntlybyLY0rqhbcBnBx+NUbsi90wrPDHPc2jbZkePB6e/I9a2fCdy9rp+qPfW4kwYx5a4UkE84PtVKDTY4NQvJ4r954WbYquMZJ5/Hg8mpppKUku/6Ez7lLQltZ9QVBZRq3lv8ycj7hPfpV6wZjb8t5gHzK2evt+lamg2WnWCyOqFnCliDzgVVuLiKe9nuopnS3RNpibACNn6Vvy21ZlUkpJnP6zHI93JO2fJkYEFTu6D9Kv75F0iGdBuZnAI/vcc1lapM9vqzp+7ZXT5QeDg/wA6uXV8kPh2wWSY2zTMwVpIwQCBjkdqycbhtGNu5G9wll+/gLss2Q7Ifl46qcd6r3mrW8liv9j+Wk0pKzvIBuC+g9v50y3n/s5biG4t45UuQFlGfvjHUY7+4qtNFYwxYgDlsZ8r7x/TtUxVkdG+p0Hhi9mgt5Ed/nxu39sdK7G1vI7iNBEc5wM9zXCaCjhdxAVZOCvJP5dq7LT2eGJBKP3r9VXkqv8AiR+lTUgrXKhNqVi/fD9yVz3xx61lTJ+7EKnBlO0n0HU1sXMYdAx6MTiqLbEMjY+b7iH0HU/rx+FcrN2vd5V1I7nCxBV6BQBXPagQ7Kg5x1Na08x8oj06GsGZnMx745xUT7Gy0EMbYG0ZLdAOp5rasoI9BsmmmAa+uBk4OQg/uiqWjozXMBmADLkge+OK0bSyuL69a4uBtRWIUHoKEmtETo9WWdI06WYm7nJBPIHYVLdmNVYsw47VYkv40UW8A+UcEnua5TxDqciQOEG4jpitLJKyJbbd2V9Sv4oQx3jNY9zqfkBXeUAkhtp5OKhjZJ4Ggvynmli0TMn+rb0JHUe1UnsJgJILk5dSWDEFuO+Pb0reNJR1Zzyq82i2OrttVI8sof3LorIxPfPSuht7+ObCA8jrXn2lzRNmyJkHzbo3cAHd/TNaVrdYJ8s5O4BtxwQM81Uo3FGdtDuUYcsPwqRJOg/E1iWWqF1zJgYySM5/Cr1pdRzruz944B9a5pU2tjdVEX3f7oPQ9aJZVbnsKjKlgCO9QSBl+lZu6NE0WHGYz67aih3qOOhqSBmnjZcY7k+1PEZwRnpzQlcdyvgljn7o6Y7mmSrsGW4PerKgAEnn3qrMMklvwFX0F1Kxk3HB60lxbMYhilBCsSw4FSST7156Y6VmnqOXkZs0ghT/AFf44qvBI7tkdBT72cs2B+NOtnRAo79fwrVLmfkZt2RrWifdx3rdtlCrn8xXOpfIkTleDGyn8M4q6NTwMg4wOfyrojyxMZKTNC8u0CmNmAPY1wereZdXwW1kilAJDJ5m1s+gB61e1+9cwu6SBSccnoOawZWmusQAhZGxvYIGBGP0oTU3fsKScNDOlsppZii+YUUkZKHC/wD16sw2LxMsnlurbchiB09/QVrWo2ROF8u5kbG1kcAkDj8fwqCaMCFYrgyxTsSyyu+QePu4HarVrib6md5S3CzSSSQecigqGyNwzzUKSOwVbuN3hjBw3AI+ntWtE3zKttFF5uMtKbckZx6npWZcSa/qUSxMknlE7WBAUf44qrE3IYLyOxY3FjdfNnAXYFDe3FWpdTR5VF1p9ukykMzQkqT9R0H86rjTHihkRTHGUIVzInJOeSPQVNDp9vOcFkiUdGPO7nrmnshaPcvWmuaefka2jikBwrsS3P1qXVbnUDaMPtSXKzKEVYyFIBPJ4rKfTGWOSOAfaQMANGOCc+vamSWLtMTczwW2AABvLMB9BwKEyHy3I83KNCiy+QxGzaTnjtW3YLP5Jtm2AMrbuQwHHYHpWKLm0tMiMXF0x6G5OFx7AVZtNQluCE/dwoCAFQbR/jSDV7If9imtyQTarEDxvyT/APrplx9lzujJDd1EmQTV220lVnaGWUPnkZGAw/qaZf6cLSVYozGCRuAx1H8qlblOKe5VhuZ4ozsk2hhkBTkD86kS5ldCZERsDBb7p6U5UV43SU7mAGxlIAA9KpTx3HkbEjk2nqq4IP8AjT0D2a6Gjb20syndLJLDjgiNW2n8KaNPhuCI7izjdR/FH8jA/wCFYUY1K0uCYpZUZQc7Tg1t6br1/LIIry3S5Zl+V5BtYD6jrTsTaSOltJ4jFcxRmNFlRlj/AHgLHBHJx0qOe9ayu0CEeRFEq7WIA+v51XghRdQjjeLO5SgOABgdx7E1FcJHcalJMxgUr8qgk5Ix7VKbVTQ0sjZivXNjcz7AruEjjBJUEk7uvpgfrWR4ivneK1sJY40muTl0A4wOmfxxV3UHR5bW3niRFRRcybicbyMBR64UD6ZrME6auJnuiIJkYJDcoPujGQr+3vWzb2MeW7v0KN3btqWlrcgFprYFWx3H+eajDS3Wl2VteXVvsjjYuJTuPXj8qldJ9Mu3muo9kbACSPBxjH8J6H1oFhHLqtkSSbU9HBwMdealjWjt0ILVrJYzbRzPcxhgO67D/st1/pWxDaWt1auLcyLLGpcxOAjEd+R1/rVqO3s7i8ksbSRLNZc+ZcHBJOOMd+veg6dDpRW2a8Ms0ihQVjLOef5U7F3F04iAtMsZWNQCF7O/YevHer/2oWt9uDbWlO52JyWqaLRJhbIzf6OhyM3I8pnJ7gd81W1SKygsla6je5Zf3aiPK5Oc49cUmrrUnmtJM6cThtOEqjO1doB7nP8AjWbc524J57n3qfSplvLVWMfk7wZBGM9emeeaju0I+XoPSuGatI7abvqZcx+U+grHuvN3jyMF84APQ1q3h2ggfdrDmjluLhI+FV2A+Y7eM9amCvIub91jWgnEqXUFw7EYYR5xg9j9K62DVTNoq3GMmQ8LjBFYWr3Oj20f2KwlE06IM+Xgnjv6fhVrQrhJ7d7eWQCVOSofdgeme9bz5ZRujlouSlyvYGvpIlN1KMJ0Ve5rntSuLi6zLANu0/MxHAH1rZ1hd52g/KnRRWDJeNEixSAlUJxtH3R3+v0qKVubU2qaxKiQXIhDqwmkDExqkgx+Pc0+2+1tILa6G6T7wYPyDnsB+dWmaby/9GBkicEqwOB9PXAqVonXypWPleWBluCc49uprrujnK32Z3lWSG5MgQ/PGpAJ/DtViS6utizRR7pZB90EYQ9+vJFOVM2s04keHygCJCPmc59ug+lRXE2540YRyq65IYFSeOoI6VNiHcvXM8k8UKwq+xVYzSqm4s/pnpRDqMdr9njCFmIwM9RUdheafbneYbyAx4BRXJHTrjrTZZtNeROZArMCNkWCT9TxSa7FxaOph1OMIgJIyOSeoq3kzSgN8qBRz71yNzrMOm6okEWzaFDM5cs+c+mMVpWV9LNOTI/DchTnP45qJxVioN3OlSRB8kYwo6mkwZA2eB/Oo7GRDwwOatug5wML6muY6tikX28DjFV5MsST1PepJ8KT3/lUaOp75JpDRFsCgnHSqeoOYUDJyD6VoSsqKW7c5rl9U1Mf6veQg5Y4564wKUY30QnK2ox3csTyB2NT26sz57VX00G4DE5zxwe1a8FtspSupWBaxuV3ym4f3xg1K8hCA55IxRLHumCkcCobs7W2j8qUnoNFW7vbaJPKnj80v/CDtPtzTvtOm3Vh9ltpIoWf5pPOG0sR23dMVQZ7O5aSV7edpoiAV37cfnxSR2KThvlQZztiE27b754zXbSjyxSOWo+Ztj3jkgnSOa2dQyBY2VyUK+xxzT5y9vaNGgeWIYwqOSV/Wljtrq2QQNGWgU5Cu+7n1B7Gn3Gpx24SC5jR2JypjADIPX3rRLUyaM9RcRwvJDHKu4bs4J2jOPWpYNSZIRG9+ibyMBxyTj2qxJt+QBvNUjmUHmQZ6Y9aifSJJpknKYHBy3NVZit3ZNFpKBRcL+/bB+VssM/jToWlCOU094lReQqAEmmLqMVtEyxxT7l+YbuS49qsQ6pHqVtNaxTPDKVAJKbWT3waz96IuW+5kHU7Zm2yRXZwSDkk0j3OnKfLeHBTK5L7sj068iotX06TT7dJVmlmG7EjnACj6DrR9gW5tUlgjecqv7xlwBj1HocdqpK+ocpYj1DTntzaeXuQHIDRlgv070yU6aSVh8rcPuhg2c/hWdHbJvlNr5rMBnecZUZ6mr1nZ2qN5puvs9yDkFhwfxptPoVyRS1uXCNYijEotoCrnOS7KCfxqaMTzyql7bCIN0bfuINMj1W70qUG7keeCTIIyG2+hHemXmofbm/dSeWUHG0HJH5YqbS2J5bdTQn01bFQsUUcrS9doyf1qsLePyQ43ph9uTnIPpTpo0WzhmurtPLUKwaU4KHHr1zTLG+t1+2W/mBobhMpLngOB7+tPkvo2GpWZGeb/Vu+SSWVweakCxS7Q8Ekfl8Zxgj2HtWQn2fTpTtcys2Syk4Cn+tS/afOfMM6xuvIy5DPnrRy+ZWvc7m10iGw0D+2pFkafeYVVyMnnkgeg5JqBdDeDUZJbho3t7dt0sQBLY4Kgf72RWyNWtNSsls57fzHUYjMcmTjHQE8KO5NUdWEuoKPsh3oiBgwODPIoCjnvx0/Ola072Klfoznp4rt7ie4uJTiaVnIdwCTnooxnpUcEc1pNt2EO6YCqnP/AALjBq3eQyQqSbWNLiJgsrZEgH/AjzTYru9eWKEIbhZeSwkO5fbNaLcLaWNOK4SaxiszYJKzSbBEvyhhjJbB4Hp7+lZwt4/Kl+yGSWPJ8yJhiSE/7np9KnZZFnDCQrCU/dlMMFOOcnqSOuKo3DzHVAl6si3iAeXe22N0o/vFf4hjvVGco32JLCYacoZoYrhpG3cEtn8a07nxTqR077TB5Vu8rFSkEQViM/3+TnrUXmWUsSC6vLePztypKAVdj3yoB5qEaRo6LFZtq0k7RDKxRIVJz3Jbp+VS+wk/5kURFPfz+beXVwIycySyPk5/E5PsBXQaFHHrUbWUQkkt4ipImwxKDqM+posdPsmtZreG3k05UYMZnlEwk9hnkH6VPqdydFhisNKtiFf5rmcODJntnvnv7VXmEnfQ0NNge31C5aZ4xM/WJH3bB2HsMVNeoeCTkt3rI8KK7y3U5V929YzuBxye2etbs8Re3Dt0ycH8a4qzvLQ7aWkTl9WcIME4/pUItrTUbQwy3KMn3VlZyrr7Z6EexqHxCkk1x5QJRFGSygnFZF5a3F1Bbwg7FRSCxIQH3q6EbJyZFWV3Ys/8I3dQXrSWL2tw0mSxVwG69AD2qLT4LvRteiubu3lSCRtpjZD8o74/HmoYbE29zGs97HJ5fHlCQ5JxxyBxXQ6fqVwIzbrKHHQLK4bH584rVxTuZ3aL+p26szuqfKTx9MVzcttHLK0TR+Y33kXOMnvXZogutNDOAGTKnYciucvbRjNmPhgcg9K5mnF37G2k1ZmY9nBDCZJIy7/e3OcAfh/SkV823lWdsjTsN24naAM+/U1dTS7q46Esxz8yvzn/AApk9hPArRX1nJ5T4BdPmC+/HP1rpjJNaHO48rsxt5canb2scd3DJFBImNkMYbcOnJFZdrbXQuPPjXzFiyAr5bI/xq1BI4hEcZkS3jJGTIdoHfk9qstcweRtjuCA4OSoyB9DVNXFzqI2C7Q3KxiF5Gk+Xy0AP4etT6lFZWd1GGtPOuTyIhkon4VWTWLPTYHSAku6hWlJ2kD0GOlUW8Sy+aq2aCN5DjeiAsT9TzU3FzpvQ6Arq8R8yAx2Ub/cby1Qg467QMmprSW9nuN1zdxzbQF3+WAW+pzXGia/1CRWnklKMTl3c4x61uaKLWIR7J9zHqcgZH07VEuZ6FR32O3sFUvxzWpMoKe1ZdgQCCprSkb91iudaI6nuYl8yqfWqg4G4dOpq1fLn6mqvReee1Z9TVbEN47i3ZhydpwPeuJnuDLK6yxv5seVAMZIY59P0rqtcnWLTH8xiobC5Xr1rj3jglnyuqEMPlAcY/KuijHdnPVnZo6XQwXKqwCsFAIAwM10HlhRXN+FLV0uGWS5EwHIIfNdVIu0E9hUzXvjg7xKKpmV5CPlHArA166eCMyRZ3twMetdDN8qbQeeprktYukS6R3TcqnlQePx9qzUeaaRbdotlbTfNwbu6kdQCMMEGWOf1FX7L5fPczEd9zxDOPqKyr3UJJpgI4BHETtRlyFNPkv1RkijuBIByWXIycdK7Gc9rmtDEhVCmoSTh/lB64NVxp4tppJZwGkT+OQ5z/hVC01K9gmZILiKPedwZsZA/Hmrkl46wziS4gk87I81n3EDPYDpTQiW6ntYI3j86ISMd5aMkjGOnFV/7ZIjYeeYWYfcCELVKCfT0i2GRy68LJs2g/jVpmia2J2efFIC7SIQCp9PaqV7C0KE07upmjDyPv5l35B9OO1F7eXFlI0ETFXjGC2wDec881oWsNs9s8cDIp4JYAsM/lVdxbrKSZYy0h/efISMn0z+tDt1JuRHW454o47t3ZsZKsgJBx7e1aVhPptsEkjlnRVGALZCMH3J4JqvLpioY5iomgw2ZoH4HHfHIqvbzOdjyNKEUlQsWVXP16k0JW2Hvub8WpaRp6sscb7rptzCTLFj+WKry6zJ5qfZPLAJPmRvF29qztzoWZUMaxDLSuhOOfzzUkd9p1xIjGOScxkEM+VGfXFDkkgsPm+zm48y+j8skEqzD5Mfh3pstxuvwYPKZShVDJwucdqS+eJ4JUkkR1Djy8nBAx1NZsKqNoMm8L/COF/M1MXfUJNdC2t6kw3XFjJIeVG3kA9zz+tRnyZrhC91GV3EbfLK89gMcU1J423RngZwVB2jHvT71vKtrWeFI0YxnfjgAbiB/Kq6huS3Fjb26/NBNIQCSwzjOKkmcfZ7OSDKW08OVkiwrb14YH+dUYtZuiJCrn951IJGD/hVhdVijQwzoJIydxUqMg+oH86qwjoJNQMETW1k6O+Cs9wAcN/soDztz36mtDSL+7luPsV5Nu82E+SW6IQM457VzV5o2pKqPORHCoDCPZtI5wMjvWjpEMkF7HcT48uNWAYOCASMdKhNdTTl0dilqGs3aXv2F4RbpvG8Ek7z6j2p0fnk/aIdkBZSXbHKY6e9W7i3guLG3vWYGS22gnuVI4/lWWZpmQxhsxujAHfkE46k9yKpaCNG0uDAj289wjM2XkJ+YsxParAub+3SE2cb/vflDvFuAXrgGodMnjgVGtbBJJQhY3E53BMHGNvrWnp+qOk0lzOJL2a4UqI2GQB/sjtVEszLya1lsltWHlXKZaSYfIP90be386SPRrfUbeN4JERreOMSScr5aE/e9eDkH8KluQb3US1vauxfJMQkBRcHBJ981b0sXhuUaIxQwrlpdvzZHQqT3yOtTJaaPULpK7J7CWC1SXUyXNrF8lssnAlbP3uecf0qsA99LJOgLyvlmZepHrTtXuku4gFjeSzQHa6D7pzj/wDV7VW0Oa30a5RWlkubm7BEjn+BMfoKElsyIxv73U6PwhP9oW5SSMxG2lDMCeTxx+tbU0qy6fEy8AZB9KxPDzo11qdxb72jlCAHGMjkd61rnEVgqsMckn2rlmrSaOuHwo43XridL1Y4ZEQSYyTnn8ulVTBMyl2igkZhg4OCfzpmrXEVzcyyvL5QTAUAEgj8KoiK6ji83zSls5BEp5BHb3zWkL8qMJt8z0J2juxNhYeGOf7wQYx19anhjS2vRceVIx4L/IWL/wCzz0FV0sLi9gbyrl2KP8yE4wPX3NVRFOh3iUHBCkFxnFatvsZ80jsvC15I1veW88mWkO9VYYKjuPwrorLSba7l3SAEBRnPINecxttVvJkkh3kbmjJ+Y/lmtjT/ABPfabBLbxWst9JJjy5DwEPoT9alKMpIpTaR6EIdNsYzEY0VSP4cc1z2r6jp0CuouEyv8JPNcRJrmsvPInmOZGblXThD0wAKpy2ccswkN0/nSk+azjcQen5VrpYWu7HTXMcs0ziTKFso0r7V68YHU1BcwXAmaAyRtJgcKTwPXmrllHpunzyNcD7VMVCR4wR15P1qrLC81w9xGiMxzy55+lZ27ak2jfa5DLaxkNHNktjcrKg9Kda2awS70IfCjDNgcGnyvdCErcRoqH5S5JJ69Kmnn0+e3M0JnhfPIjAaNW7deRRyt7loCsSExCVCydiRgD8OlWbER3DD7M57A44FYEEPyvKHLMdw3YwDU2nIIhKxMsUx2iMDgNz3zRaxaPUNPdUCKXBIHatYncvSuU0aRvJTdy31zmumjk82MYGAO9c0lZmsXdGfexuDmqBU85rUuOc5NZsvFZtGqZgeI2H2WMYBBfJz0xiuS82NFfZDahwQQACcj6113iWCKaziSUuq7jyuOOO+a4mezhRndWlJOdrBBg1vR2Mqm51/gW1aW7kuAU2svIX1rrrrCKWPIHbtWT4CsPsulGYqV8w5CkAZ960tSJmk8sDCKecdzU1NwhqZt0+yDcfvNyTXJTXTvcTANtCE4Xy924+n/wBetzVrxVLRnt0Fc0+q2qXMax2krsfvqZMDP4DpU0fjbHVS5LMkjlZoizvAG/uEc1VmmSKaJfssREmMN05zUl+YJLyQwW+CACVZz8xx9KpCaRVVDFGHlOAAOQv+NdJz8kTVtIYr6QI1uiDB+Zuv4U+S2t9PlaNVDGVeivnP4dqfA91YRpbTsTG6bgQA20YqaPyooVmtLmOUvwCUX5m9CMcUm7MORMpxW8ETbhFtZzkRsc7vwplxPC7qJIwo5BZeAQfX1rQUXl3vPlCBQpUuoGPoOc1A2lMDvvCVjXkvkY9sUyeVdyoZIH2+UpZUHHz7Rj3qWNJIplaG2SRWXG9iCF9RzUsXlqw/eFYjncsoGce4FWLy+ggHlwQuoZMI2Mk8enanyhyoqXDvZKuNhlfkqpICj60v2iY4jO+XdyAqdDj9adYs0rSRGJHULuWVgTgY/lUW2+iiLxNOyrnLeWV7+tLlQ7IS6W/EThHd5u4I6+wx3qo9nqCxFp5ChI+6OTn0wKke/uk81musSMBhVOO3Qe+aq28pZClzK+7lsiQcnHA9TTUbIfKhtqE88SopYpzICCcjPp3q1DbwXUrOuxAucIDzn1p4lEUQ2SAhzgiPg5xz+FSzyWdxcIvQqwDyNgb8HsKsA1ezg2Bre3EU6qDKUyAffFQ21lNcW4kmBlRSqg47egHatK0vXmjnhux5Bb5rSU8EegzVPT9RMswilQs2SDswCw+ooEONrYRSbltUVSAQZJDjPpjvVO4WcMWtreNxjnYoXGDj8a0tR097fT2ulwVfDNkneOeue9Z7QXN1pz3KMzKzeW2zlhjpmknfYdrbnol3qljqVxPFZQlI4QfME/XYvTA/DHXJrnoIPtupSQNIkEzrujiZOnGQCM9a7OPR/t1oz2U1rZgEySth5Cz598DHT0+lY40KS4u57qeK4jmiG5ZXjZfMIPVcj05FRFrZlXscpFpt3dobYJLCobDAIfmcA/yFXP7C1Kx0mO4jtp5kkLh92VCY7muug0vWLG3N/bWFqsSqWEsyHeM/564qC81LX76wNml088MwEcjRQAKOPu5xk07pbA7s5q0u308Bo4RO4T7h+ZM468GrthqT3Ni9rdx7HyWEnl7QhzyOPvEioI9JfzRbyxSKVxmFYiz8dMjtVh9VtLRwifbGkA2lXyR054PSq0Yn5DWhltZVt7YIkdwCoVMgscZz9Kvv5Wn2yWiSiNsZkkCZGcfyqZv9GszfS/KknyxKwySfr6Y5+lYOqyS3LssY3Z4zv56flUp8z9DNrmfkaVwTLbQXDS7omIhmQAAA5+Vq590uLaby1CSsXIDbwwBx9361oIVt1gsSYlMyBZG3krwc8+pHX2qpfzwC+uoJy8SzPlGiwCRmrerLWmh1vgkuWvFnP73C5U4HGOOOwq7qzO1s6Ak9RWP4AjLapqDmQuPLTBOeTn/AVu6umyPYOvciuaqtTeD0OBvC0FwpQO+wsAqnH51Fdi9aEXEqJDCjhI0Pc4z+PHNaWoC9MEkMSb4t+44AznH54qLXLVT4c02JQ8gJZ2ZeOT1JrSK9xGFR2l8zHgjid8faMSM3CrjDfhTVmWG6b/Ro9yMFKNkkD1xmmPp/lXcBSF41ZQyyeYF4qxdSSXMUFqsYZwzMLhcHcPqO9UoJE2V9DVu3tf7NeOC7k3E5C+VsGfwrLvNWvbVS9lsjThSygbgQO/ahERRHLKJJIeQpY8M3bFWbWF7i3jgSGRZ5HIG0ZyO/3q2ikLVHIXGoXdxO0slxIzMclt5yTVi1v5cpFJlgx465NbVzoKS3zwebtIOA7xhRnHQ471l6jot5pUqrOCVPAmHKgVMrbDRp2sSXupLuuvLDZZQOirnj863Yry106/t2cGQK21gqBuP71cvaJ5t4Qku1uHLHgAAVqyXEX22S4tXKxPlyzjOW9VHpQtgZa1G4txqsiQRRJGVLbmAYgE88ZwOar/ZooRNK/wC6gbJQBwuT2Pv+VZlm4e9knhDooyybU3k49c9BmthbqO9UrdWxlWXq4HzKMcde2aFqGxkXU7xSQmFSRt+83Az60SO9u6K6Es67j5gxgY60qM8ExW4JVGGBwSR9PwqGa5lvZlDTYhGFDbNxx/OosWdbpGpSTQRpEDtxjdXWWLOBtJzXC6PFBaXCKs6Pu6Lggk/yruLINKBIhyO9Y1Y63NINbEsykE+/esqf72B0rVuiwxngdcVl3J5AHc1ibI57xTv+xwhERgz4O/p0rmzDGlwHkL+aMkIOR16cdDiup8QW7XlkAqbirhsVzslncKhVoyAFLZOAc9hxWlPYie53ugagJ7KOMDaVUDb6GjUrjyVK9Otcn4Rvp/7WhtX+YYPzg5x7Guv1WLOd3Q9qU1qKBxOrF58lMhmzg9KzIdMVoylwwEgI2OD156H2ror+1LEtHw2DgHpnFc1NHcnDz2gyfukZUj04qKL3RdVaIfc/aIlJSyQvGfmkZ9wx6elWWuRMiq0UYZwMlUHI9yP/ANdZN/q1zfGOJhsERxt5wT6n3p/nOY/3ToEBDSMBwT/d9zXWjnNGS3dryO2R/wB0R8spk4UVLe2em2FuZGuRJcBtw24UE+3esZhJc3AeeYiNzjdsLY/Ae1QvbweYxabdkfIOcn3x2pgXotZntmJAKRy/xEcN/jU95dTavYwzFN6xMUkVSRtPZse9ZfntNsygYwgKi7Nyj8KW3ury2mZFV185drqowGGaLCuXhplzbSgkiFiCxQHdJj6dqWaWJIY5+pVtrB8gk/TqKzTLc+esks0gJwCzZP8A9epIZlF4TOTLg9UPb8aANiHUIU2tbny+NoVXOcZzx7e1TT6vcXMLQS3kpXdjyy5IxjOfSqkOyW2ZN9vFAeA+weZn+lV2tYraZQLkO0uAFlBO0+pqhEsFgV3SzxyeU4KiZRlQ2OOfSs+SAi1EwjlEW7Gf89K1b+01meUxCZLuHaADC+4Ae1VrnTLqwsx5jSAP0AB2NQ7XsBTijR2A8w7uMKO9WvsVwYZDGjgR/K/mjaBzxV+2hiCi6hicSgBjGjhQDj1PSopPtEyh1UMsi/MpfIOff170AjQvITdafDIkkBaIbXjLgn3xislRJY6pGc/dI4YAZBH97pSNZxRYeJcEEAnqV9Tz3p3nQi5DMQ6qeozxxjkCgOhoR28zCa3aVJ49uFUS7gh7U3Tln0ieJw5bcpDxoQBgdPrVmBY7m2LWcwd0XbJAAF5z1H4U5I7q1Ro7dUkRSA0ijcyn068U7Jk3Oih1O4luIrCa1wYw0ojDjMZHRhjgHv8A0qGy0zWNRlu1/ti+XeNsXmEtsGevy8k8Yz0ppL2ltckRyRSkCNmlyDGCSW9D7D2qOHUrw3D/AGR3jKHcAAd3HGM9uKhI0Ltst1pV8IRcvOjn93LNcErGCMEnbySDW9qJW6s7W1ub+e4lRRhkkK7yxzkjqOAB+dYqLHcFG1OU7osGPGGJb0x1PJ605S1j5gtJkgniQ4hkO5znjnPAP1qWmxobLqo0jS5LuDCtE3lmcTfvMZ4JGfmqppEz+MNWee6hlCFQ80xAKhAe2ecnGKgl0vVdWIN1EBBHjc7R8ZPU5HH4Vs3Wn3uj6Rb2kEIw5WS5ZcKNv8KfTHJqJX5bJ6gzG13XX1K+kRLR44oMxwxEgBR059Cep/KqluY7eyEkrlp152hDtxnqSe1dZb+H7TV7RPsl0kJ+beuQxdyeMnt/9ese80TUdIuC7JHNGgHA4U/UDqKuDSVhWtoczf3093eRwZeVAAyMcYQ+voB7Ujacxki2RB2kIbOeCxPvWnqFlMikvYQW8c6hwmSoA7Hnnr0q1p6RQqiyzupZc7UQvuGO2eBWqsyW7I2fA0CRa3dRxFB5dvtkjUkhWz2ra1QbpmXAI/rUXhMWqy3M0FuYx5YLMTk5J4B/Km304+0neD81c9Z6mtO7RyGsx3EU32mKXy1AKyckEjPYdzUGu3UYsbBN5+VWwckZ7CtDXhJNaTCJCJEyyhhww7iuU1W5jlmgjlEjGOPcBGAeM06ctLIyqr30Wo4rvUQIY4ZZ5Mrl8jGcY2jPb6VO9hNZYmuUkiaHOFMvDjB7EVXj1ORokgilS3ZgAqqNrD6mr15d3WpQRW0rveLApBkbAB9Dnvit7aEtlKURtbC8lmGyKLMSoOM55wPXmqj3sbxJ5TzG5jfhG+YEY/nVq8sZGtmmbf8ANtwThRwfTt61XaxlWQyRRuwA3M/GMEc4PWgYs2oXTtGs3DRHJK8d881Lq8kF/ZxJLqsm3klT0znrinZewtYmuBtVm2hQNxbv+dV7q4jgzLEUmEikojDBQ5703ruA3T7ONGxFfxO0gwqrgg/nU9xpMwk8tZUklY5kbGQoplqiyxxPbRR/akP3EkC8dz0561oK9xaWyvc2aSNK/wAqvIQCfUjr+FRr1HtsMtru802J4Vls40YZXfljn8Kjh1TU72b95dJCV+UpGNufTnsKpa3dO7RyPJH+7/1cCoOPfA6VBbTXTb4I7VxJMoAK/M31/wDr1XNoHL3Nl7VpbhI3igUODhpNzEn0zUVxpsgaO1ikitnkOFUchuPXNRaYbY3jLeXMoXGB8/3mz0pNYu5tJ1B7aC7SdpFDRs6LlM9eaW6DZjzqn2fUgpBXyo9gVugPrXoHhu9S5tlWPhFHLN1JrzBNPkcs11LvkUhmVjzXX6BqQhmVGfgcADoBWbjoXfsdfqMeIS2Oe1YbytyD1revZVNvk/xDpWDOABvAya5mbxMjXLxrSDzIhmSLDL6ZzxXNave/bdrBD5rr8yjnnv8ATmtvUt8ruvbGBXMatIkF+4iIMbbSqjjjFXSejIqKzRueE1S21OJpQNzMBjO45rtdYKqpYHPt3rz3SrwWt5DLLGdykEYHTmvTr6xt76CO8ikJaRQSucgGtZwvG5nGVpWOdlhEinPORnNc1eQGK8leWcQl9oVmQkY/DgV2M0JjBA+gquLVblhDJCkkZ4IYZya5F7srnRvE442dnczRw29xEZWyoIOFJx6YqC+8PzWE0cU7gxuQQyjjPevS4/BWmGLfJahHzkMhIxWDr/hxtNDajHNJN5SkFZHJ4rrSbVzmclezOIjhkimENvcFQ2VYs9QRaeRLvlkKqX2kMh34z6dKvsIZbZLxz5M0jnasQyW/DtVZbq6M6iYuzx5XMxzgEfzq7aC3C38p5H8ttjZK7VH3h3/Cq0pd9g80mRDtIBHyj61pmwMVsrCaKJCACw+ck/UdKW2sdLWbYnn3C4yZAQoA/Ec0wZnPYFpVWORJGwG4fLH86a0ZgkxcxlWBBKMNpP41q3NnpZHmKl4+OWZMMR+lTuqXemNbxW1wWBBjeZ9oXnsD3piuYuxZy4txs3AHIJIA700XbYaN03FR1xzn1qy2nssoC3IWYEjapxgfXpTpJ0trUW6mSNnbdLPjJc9h7CkBHHeyRQkxzm3ERDIicDPf3qaTxDHOYmuI/NeMbdwO0/hUcumG3R57xJXjXHl7BkOceo6CqVvDbNOpJPmKRlRGWB/KnYDWju7Typla1nZOvBzt9M0hR1CSQxJBDkMwlfnOOvr0NV7aGN73yTLKFZmJkBA5xxmtCfT7u4LxI4DRgE4IYnjkH8aAHmzj1KSTyvMaFELFozkA565781Ts9NibKJMJcA5CkAOMetaNm0lhpdzZ7Ns8+RIW4CrjHH4VStbSxhlWE3BMLkEyiMsM4/lR1DdXIoLdoIFmgiLAsVJGQVPvV+z320Z80tGM58wdVyOlX4rzTYd3kW13cs3ykmMqpI+tRx6is0zCa3jto8DluvsOKYj1XULPTrKK1t4oRPcyKFjTO4scZLMep/D9K5q+0YXoa3tZUti2Mjfl2f0I7AfjTVvdRuL4R2928LSEIbhkIUL0OG7Vou1sur/Z7TUgNkTCSRn2H5QBw3YZ6nqcVi2aJWK0OlT+GGhdL+O4ckstuIjukb+EuByAOD161UmktXvHRrKNJpctcSyEsXkIyTx0yfwFNTUtM024uJPKup54lKhXk+WTI4LHrj0FZ2p67cahbKVjQBQC6+WI+FHC5HJ6nFMVjptI0sXdzBcRyA2MY3SrkkDA4XJPc1Nr+pOdSdRp8k91GQI9jHYeOGGPf88VzFnc6jY6HNdRzEs88UMaDOERRvY8d+FpbW2ttWaaOK5vFmI3faTcBUjYnsBz17Umu4+oX3jCJcW9lEUQhhNKsSoQ4JB5H4d6y4tXZJ4GuLiWbyXDBD0NH/CIzaTMsV5ckNMfvEgrn1znFH/CPXLaqmnxTec8yjYwwcnPTP4UKKSK5jordNK14qbqQ27R/KAZNxI7dcgAH9azNV0uztr0Mb826rnEkoKcdMjsfwqM6NeaXdPFcBEmCB2WUglR9BkZPuaW8WKUGTUES7k27QTkhB/Q00rbEvU6XwCba40vUpLeR3QSqpkfnecHp7V3B0mxbT/LuIkZQuWfofXOa8x8H61p+lQXVk++GSaQMiEjaDyAc/lXYXviyzbR3ia6jE0kRXZvGScU+VSuxO6skW7i1s5dOhhKopkTeFOGIHr7ivHfFlpa2WrbbfIlIKmMAtiumTUdfkWArYExWyERqJlBx75PFc/eb9W8Q3KuvlTSBWhXrlscjPTkdPemttiWkne5lRzSzCJblPMR22jAAYj2Aq7LHd+Wbe2lkMT/AHdsZ3Kc9CKZC0ljctF5WyYZz0ZgPT2qQSy3G6BJJFOQCiEj659KtagyKYXZRVuLss5+V4y4IXjuOtQB7sbosvIkmAQCAFH16VeWO1tmffGXY4wgwSP8KrpG8ERmeN413YK9Qy57A0MB8UWxfKuIPMaMl4wCSTxgewFUZ4pTeyQIY5Ig20Sq5wBjJ69adBPc3Up+TDR/ewc5HbI74HarcmhlLgTG5eRD83PyluOceh9qBFmKGxs4Yr23LyQg7XaUjcpzj7o5A+tPvbm2lVJJmSUKS0apnPT7x9sVk3F5aJIsf2Y4dNxZkPJ/qKmtczq8lnGjSkbUJIUfr1o5dQvoUYLEXGpEiVNsmQDJ8uOM5PtVu4cQ3YjjkSSBlClhkGT15HY1fBuUsorS4IvCXCogjy+fr2FLNfQ2N9scRFoyQFABx6ZI4/Cm0ugk2UJfDyXp32sUoWVQy+VwF55Bz3qW38OsuoDdN++SMENI4IHbqe9bZ/0+2IJk837rIsmFB9BWYmn3Bc2r5gMZ3fONwIx6+lFgCfTPKvAfPixgFniO4qc9WI4/Wp9Kjgh1ABS8zbwc8YHNV7u/YW/lhEA2nGwgrn6VTsvNE6ymXDMQpbeNo47fSoaLTPTrs7ohjoBWXNyc44HUVpaY32vTBghtowWByDxVO5gO7aemK5GrM6E9Dm9VizFJg7NwI3elcrZpC9iY58Fo33CVX+8egBPXFd3qNnvhZce4rjb0RQztEI0RGwXYdQaKTtJoJq6TGlDEPNSNG2tjCk4b6Zrp/DXia3srdob4vGshwqtyAc1nWZsbGATxRG5UrkCQnGfpWBfS/br1pUIDE7go5x7AeldV2tGYWTPaLa0srpYnWQOp5OD1FSyWVtbSiSFQ6jqK8p0bWr6wXExcqpyigEEfh6VoN4tvJb+MtHLFF0IHH86ajDewnzdz1Br60EG5nAXHOa5jxDqMM2l3H2RPOcA4Ud65a48Ts04ihiR8jO+R8kH1wKo3dxe6qxihunaIKWkWP5R+NDl5AoW6mfbTrLcYeCD2dic/lU9nZxz3flynfuGY1HY56fWltbaaGeKJI9uQBjjjjrz+ddDdabpelaOSJE85l3FkOTu9FpDOZudOVrx1iXYvOWPA46j0p0en3KW3mRujhclVPRR9emT6dae8YEURhM6ynOVmxxnqQPSnQQThy3nDcxBAIJHIx09aYidNPuvJjntyTEvXykOM5z1NRtqxurlLSYb1U43NwQfqK0Y7qaxiBtvNUSnbgkgZ7nFQSWyFnZkHmAfeXkHn+dMRnXSRTvKLiZ1ZCQqnk/44plnBHdTR4thLFGuSqZ5P97Her9xaRz28U94HRZeBsTk88ZNSpFi2MUERkBO1ljyTj0J9KEDI722untkgVXgjcEFgSo256HtVA6bbhUIjztZl8xMgjFdEts0WmAT27vgBQpRsKPX1zWcLCS48tVDpChZ9pwcZGCPWhiKDWtqGMqxTylMbcIABzzk96Da27aqzGaONJHYQKuflz2J9K2oo/wB06x5jO0ABRuJ/Pj8aoTaTCsu4SRtJIwDAZABz6+tOwXKVxYNakwSEorHbIPM3KPoRyBnqKQxR6fCsMbwFTlizHIAzxjPBq/qlvd+UIY5Ejbdt3vgB/wAaZHp88siiaSNZVAwMEjp6dPyosF9NTQWRE0ic3Cy7rgqtszR4OP73+FYFky2lwPNMbzcg7kzge/vV+/FwIoYbw3F6FwVjV9oU/XrjFVoIzIgb7PsQk79rE5P1psEel6d4a1KfRoEa7uLWIIVESZDgZON3YitC08AWhlEk9/JKWGTGThvfkf4Vv3OrabZmZJrgMP8AnkMls45IOemPoBWTbrZXN6buCb7NPIykNM5ORz8o7flWLdildhJ4D0x7h5ImfzGzwwyoHYfhU9r4P03T5lZbbzJCuAxGVH1561avNUTTbfczyvuwN0UZYL2HHWsmx8YX9/qbQjTlFtHgGfeD19eeKm6BRZR17TESJ4raERRAtMWdwBnGM46CuKE76bMt0+9rcf6yFMYY9uBz+Fet3OlWWr2r+bFELdwNrRpglcd/x5rnNa8GxzEyaPcAP5gEkbPnOMfkffNC8wTsZsV7aeIdIE6yIFDCOOAjPlDOGPPf/CodJ0mxhMN7pMtxJcLuEkrSBCMZy3PAGOBioZfCtrBrU/8AZ6SR2sMYWWQuWBl/iC8DJHr0FU7LxBqOj6pLa2SSNZxkgtGQVYgepHT+dVZdCr3Onbw4NWG68vJ2ZisqyLGdrcYGWPU4/wA5NXtY0mKzjtrESTtZogedUiALYOCxcd65/TvGd1pzlJpE+Yh0tIk3NJnk4yePrmrB1y818JdzQxwK6tsskc73TGMyMPur16VneS0sFtRkmkaPe2P9oQ2xS1fcI5N5bgH35rGWDSLWa5+zoJHjj5AIUqOufmxz+NX/AD5dM0OG0jiMzThg7KQQoJxtjHbk9T+dZ8Uc8MjRX2nxpa3PzBZ8lio7t7fWtIy1E4oqteWFsJGuBdqkqfKCgwBn2PNNsNQ0e4s3tlgLMZFYXKEk9PzHPYfnWrri3ep6IqQeZLZxOIxCMARqeSVJwc4+oFYEnhSM3MItJJAAhIjU7pN/rleAMVpdNeZGvU6C7s7PVQsMksS6gVDRup2+ePRs9Grm5IrnT7yeMQx20mOYm+X8Pf61p6hYXehwpZ6gJ5pZUEispDFQc45ByOlW7Oe21mwW219CzRErHeY2OB7nvQ7dzO/JqtjlhA8UzyamwM0wxHGoJAH07nNW49NJZhJcvI6LuVGjBA+ueBzV6/8ADsmhXMl+rbrYYZJc7uMe/Q1Unu5ZrYlbxLgMDmFZNpPHTAHT8aE+iRXOpaojjsU04eYTGsryZdvvbRmqEl405jgt98kQJaRiTgHPPPcmn3Uv2SEeXaojPxjZu2/UnNMRNVIAgmAYKWYYCqB9emaLu+w9TT/s6zW8eYRyyqABmVMBjjsBziqzaepkSaBOcYKygAKPYdSe9VZbgMsVu90ZHdgskuThR6gdx71PLZ39t5tvCEEoG0GX5SVzwVPTmjW47l6NbcxzLal7eZ0x5sgOXNU49MNvCsjkyNGwZzHHgufqf8Kjnhm062imcR+fKQsm5C2D9eoqcyNbypNcF1fIIjJJGPcdqomzIdTv5yuWtyGVt0bYKRon9T71nz+JrmWBbbKZBIMpBZiM5x61JqK3BhEttdyo4lKyRkkEdwQe64qrPcXcUQdwJYh3njGW4/PFCbCzCzxdzFmG/wCYFsYUAE889qml1SRJph5I8iLMcQiPCnOOfqKZY3MKqS9l5QcEARE4PGOjcd/Wpf7BEDSRw30bKSAZWOOD+hP0oHc9O8GoG0RIE6qMsx9Tzirl4iGQhedvf1NYPgq/8vbYqCuBg7hgkeuK6C7XymYEdc1zTjZmsHczbqIFW4+bkmuD8QWji4AWPCt0YZ5P9013ks6jcDyw6VnPGl4jGWDjP6Vhfllc3SurHFRDUlEaQx5ReCTx/Oqb6uqOQpCMpOWQDrXQ6r4furcNdRSTyQ/eKjsPcVhPYxtuJijbJ5UcED19q6YS5jJq2xagurTyfthvneQggApjn+tVob2Y3I/0gMvEbBwRx7U6HT1+zRiWExx+ZgMTgDj+daEOj2gJfz/KO0sAYyxY9q0StoiG76k2vaei6pF9jt0CyQk5yQM+5qC2gu7WIlYpNsqkfIQAR6c+9WIx9r2R3Esu5l2mRuNo9gOKvbAZcWTu0KkL85DBh/Siwr2MuKN7eOdbiTY7qAm0j7vfk1NbKWiRB5YZiEWRELHPtVq5kiXc3lBYn+UuyHIPpz0FRQzJbQ7Sz+UwI3oNxzTtYW4+W1mhddyhZGbDMuDkYyevQ4rQt5J7mxHkCOFYuPOkjBkb/CsyLVY7eykMEch+YkSSYwxrQ03VobvZbJKWkmyGVuBgU0kS2xmozSecnnXOVUbQwGADVVdqBmeTbGRwAOWNVmiaKWWBv9IJmwpJLDGeOf0pbqWNEVzGVYkqYucDHWldXLsSxSNeq0E0mShwqyYxjr+FTxRu1wIY0urRscfZZiQT9OtZ8axrIhZA4f723KnPtUjXJyzqDvzhPkIKc/rQnqJo1GmurG4EUmpysuMlXkZiB/jVGe8S+vvMj3sNpXKg4J9u5ogmWdmVZvMmix87Dn1II61DcxXFtODa28kIgLNIyckEinLUUXb1J7ZlhcwvvVCpBPBIqpdTm3lBN3ayIeclMkjtx1zTLz7RqChknBZCCuOhHufWi3062aRM4dS6rIy4OCT6nmpKuU7m/nnnZYbaWZAOFPXHsPSp9LkkuYZk80oIwWKAE4GfU9DWm09pbK8MUM4ljLRoxwCDn19qQRSQRboEEjnPPmZBP4e9OwrsiS4Z3W3u47hkT+NMbR9c9ar30El4yiKb7PH2V5Cxb8BwKLtXWCOORPPnY7pFGcEZ757Uywb7Tdt5isJgS+5Vzx0/Ci4bHu1zZ6cEjUxwJGuAhVBlSD+grAnfTru3ZrPVIppoiyxqZAqqf93v169utFFcsmdFKnzK9yBdX1GG8t7e4ktbuEpkyW8gTBz29RWTq2vSWVhJdGGJbO5ctDI6ZeXbxxjr+NFFKOr1Ca5di7oOu6xe6UGs7EukiHdIpC7R9KbPrupSzQWDEJC+VmQYBxjOCeMZHGfeiiq6kSdmXbfW47TVGjON0casY44gygEcKDnjGcZxVK50688QWAS3S0tRJKSIIcKigcZbjLH9BRRVRFJdTmtY0bVLK5hMUlvI0cIQkZOe249889qxIpNS06VPtV1HGHIVUiJ+73Oe9FFaJ3tchGlYaxdQ/u3uwkJdVWSEkuUz6noO3Srtxq+meTeo809xHI37powWkIz1JAx1/Oiim4JD5my1p1tZQ3qz3UklxabAwaSQoAcc+/rVuLxbpzCXTrG1s7lI4m3RRxk7h3+bjJ/GiipUVJ6mMZubscxc63Pd3h+z28iMRgySA/KB05btRa3QeK4LXEczHCuGBYqfY9BRRWkYpagrPoS23iDWbK4Cm3Sa0fCmA/Nx3OexrQm0+w1SAtpbCGU/vDbSHGfT6CiiqWopxS1RzV7Hff27JO8ZsMuGMeOMYxhe3NO3fZrPE7iNDkxxKdzsM88e56miiouzaKvFSJLKK0h06SaSPAdArRqNxcn+EHrzVqzS5g0si8AFtEB+5nO7aM8YPY/SiiqJTuRfZJLuzklgmEZZlwWI+b/gR6ACs+4s7qFlkuYUdGUkSKd2AKKKGhvQJjcTQWot4zbSZKlivDJj7wHUGsy1nuZ5fsZkfYDkq2SRjp+FFFJgjpBpwu9ISCV4FaJifPAwGB6j0rNv7azgkjitJHlYZAXsD9OmKKKm7Zbio3NDQ9SurExxtIBITncwI4ru/wC04NRtFmjYbgMEZHWiiirsTT3IEJdZG2hgBgg96R8wxquPkccE9qKKw5U0za9izb3IgJiYBlPTHUVheIrSJI/tUVonB/eNGACR64ooq4PSxEkr3OSe6+0TGESCRlIbaUCjPt+FP8755FUgL8xUE5wOmKKK1WrsxbEcNi8sxKzCJZF3BBJyR/hU8CxWgmF5EJVIHlqmcqc+vTNFFUS0RSTxywZAcjco2HnHPb0pYljsIdk29nfdznGB6UUU0r6A0TyIk4EaxF4RgMDyV4/WozthikEacqchgQCBjpx2ooqE9UgLdiBKrw+UFMq5+/knB4NSXBH2YDCOsWSG6FT6EUUVQinIWKlnUkMCNi8Bee3epY2uW2iESRuONxPG3txRRUjZDJpXkM8pu0V0O4sDg5+verip58Qdrp2dhtLb85OMjI9KKKvbQkp6iZILO1WGEmYMGdVHvk0kMcKF7mMxfN82x85B+n1ooqUN9iyonvsC6KI0rfMxBLbfQYwBUskVukoFtG8SoON4LFx2IHT86KK0aSIi7odJJnAljdlQ7kaT5QT7fhUGp6i1sfIgWNWYAlV6A+tFFRYtH//Z;" parent="1" vertex="1">
          <mxGeometry x="228" y="455" width="90.99" height="76" as="geometry" />
        </mxCell>
        <mxCell id="rmZsoPK5EU8ZM_AE0ZiV-41" value="" style="shape=flexArrow;endArrow=classic;html=1;rounded=0;entryX=0.005;entryY=0.547;entryDx=0;entryDy=0;entryPerimeter=0;" parent="1" source="rmZsoPK5EU8ZM_AE0ZiV-35" target="xyOQkmO1HEtsdpfs6mHX-3" edge="1">
          <mxGeometry width="50" height="50" relative="1" as="geometry">
            <mxPoint x="398" y="552" as="sourcePoint" />
            <mxPoint x="427" y="552" as="targetPoint" />
          </mxGeometry>
        </mxCell>
        <mxCell id="rmZsoPK5EU8ZM_AE0ZiV-42" value="&lt;b&gt;&lt;font style=&quot;font-size: 25px;&quot;&gt;Image dataset (jpg)&lt;/font&gt;&lt;/b&gt;" style="text;html=1;align=center;verticalAlign=middle;resizable=0;points=[];autosize=1;strokeColor=none;fillColor=none;" parent="1" vertex="1">
          <mxGeometry x="95" y="403" width="246" height="42" as="geometry" />
        </mxCell>
        <mxCell id="xyOQkmO1HEtsdpfs6mHX-3" value="" style="whiteSpace=wrap;html=1;aspect=fixed;fillColor=none;" parent="1" vertex="1">
          <mxGeometry x="426" y="436" width="212" height="212" as="geometry" />
        </mxCell>
        <mxCell id="xyOQkmO1HEtsdpfs6mHX-4" value="&lt;span style=&quot;font-size: 18px;&quot;&gt;&lt;b&gt;Test&lt;/b&gt;&lt;/span&gt;" style="shape=cylinder3;whiteSpace=wrap;html=1;boundedLbl=1;backgroundOutline=1;size=15;" parent="1" vertex="1">
          <mxGeometry x="474.5" y="548" width="115" height="80" as="geometry" />
        </mxCell>
        <mxCell id="xyOQkmO1HEtsdpfs6mHX-5" value="&lt;span style=&quot;font-size: 18px;&quot;&gt;&lt;b&gt;Train&lt;/b&gt;&lt;/span&gt;" style="shape=cylinder3;whiteSpace=wrap;html=1;boundedLbl=1;backgroundOutline=1;size=15;" parent="1" vertex="1">
          <mxGeometry x="474.5" y="453" width="115" height="80" as="geometry" />
        </mxCell>
        <mxCell id="xyOQkmO1HEtsdpfs6mHX-6" value="&lt;span style=&quot;font-size: 25px;&quot;&gt;&lt;b&gt;TFRecord&lt;/b&gt;&lt;/span&gt;" style="text;html=1;align=center;verticalAlign=middle;resizable=0;points=[];autosize=1;strokeColor=none;fillColor=none;" parent="1" vertex="1">
          <mxGeometry x="464.5" y="389" width="135" height="42" as="geometry" />
        </mxCell>
      </root>
    </mxGraphModel>
  </diagram>
</mxfile>
